<?xml version="1.0" encoding="UTF-8" standalone="no" ?>
<!DOCTYPE svg PUBLIC "-//W3C//DTD SVG 1.1//EN" "http://www.w3.org/Graphics/SVG/1.1/DTD/svg11.dtd">
<svg xmlns="http://www.w3.org/2000/svg" xmlns:xlink="http://www.w3.org/1999/xlink" version="1.1" width="910" height="200" viewBox="0 0 910 200" xml:space="preserve">
<desc>Created with Fabric.js 5.2.4</desc>
<defs>
</defs>
<rect x="0" y="0" width="100%" height="100%" fill="transparent"></rect>
<g transform="matrix(1 0 0 1 455 100)" id="fee1d431-3632-4a00-b33d-a2f3481911a9"  >
<rect style="stroke: none; stroke-width: 1; stroke-dasharray: none; stroke-linecap: butt; stroke-dashoffset: 0; stroke-linejoin: miter; stroke-miterlimit: 4; fill: rgb(255,255,255); fill-rule: nonzero; opacity: 1; visibility: hidden;" vector-effect="non-scaling-stroke"  x="-455" y="-100" rx="0" ry="0" width="910" height="200" />
</g>
<g transform="matrix(Infinity NaN NaN Infinity 0 0)" id="92d4f6d3-2652-4314-8b7a-8e9360923f2d"  >
</g>
<g transform="matrix(1.14 0 0 1.14 455 100)"  >
<g style="" vector-effect="non-scaling-stroke"   >
		<g transform="matrix(1 0 0 1 296.72 23.63)"  >
<path style="stroke: none; stroke-width: 1; stroke-dasharray: none; stroke-linecap: butt; stroke-dashoffset: 0; stroke-linejoin: miter; stroke-miterlimit: 4; fill: rgb(204,45,41); fill-rule: evenodd; opacity: 1;" vector-effect="non-scaling-stroke"  transform=" translate(-717.04, -152.58)" d="M 678.5 87.525 C 677.95 87.716 673.976 88.63 669.669 89.555 C 665.361 90.48 662.211 91.592 662.669 92.025 C 663.126 92.458 666.427 93.706 670.004 94.798 C 680.196 97.909 695.354 103.617 709.203 109.56 L 721.905 115.011 L 731.446 112.255 C 736.694 110.74 740.99 109.21 740.994 108.856 C 741.007 107.493 711.528 96.421 694.632 91.443 C 680.116 87.167 679.773 87.083 678.5 87.525 M 637.5 98.321 L 627.5 101.632 L 634.5 103.905 C 653.456 110.062 672.621 117.486 685.482 123.654 L 690.465 126.044 L 695.482 124.104 C 698.242 123.038 702.68 121.375 705.345 120.41 L 710.19 118.656 L 707.365 117.175 C 696.608 111.539 658.047 96.779 650.982 95.593 C 648.505 95.178 644.614 95.965 637.5 98.321 M 751 112.141 C 727.933 119.076 704.013 127.737 686.5 135.495 C 658.604 147.854 612.957 173.503 614.478 175.965 C 614.771 176.438 618.721 178.725 623.255 181.047 C 627.79 183.368 633.838 186.558 636.696 188.134 C 642.552 191.364 643.318 191.51 645.179 189.75 C 646.546 188.457 648.936 186.869 662.5 178.246 C 680.774 166.628 708.809 152.053 731 142.634 C 751.539 133.917 756.831 131.902 773.359 126.511 L 786.217 122.316 L 777.812 118.21 C 766.675 112.769 760.095 109.979 758.667 110.094 C 758.025 110.145 754.575 111.066 751 112.141 M 787 128.952 C 766.764 135.673 728.114 152.926 706 165.111 C 689.634 174.128 653.926 196.688 654.065 197.922 C 654.148 198.655 682.879 217.396 684.543 217.802 C 685.224 217.968 690.443 214.552 696.141 210.21 C 723.987 188.99 768.811 162.035 797 149.559 C 810.325 143.662 818.22 139.888 817.865 139.585 C 817.423 139.208 809.687 134.838 801.5 130.341 C 794.583 126.542 794.332 126.518 787 128.952 M 806.455 155.455 C 803.455 158.454 803.323 161.87 806.073 165.365 C 807.579 167.28 809.066 168 811.514 168 C 813.366 168 815.102 167.644 815.371 167.209 C 815.64 166.774 814.36 166.593 812.528 166.807 C 807.903 167.347 804.545 164.024 805.399 159.754 C 806.123 156.137 808.535 154.075 812.095 154.032 C 816.787 153.974 819.525 159.183 817.598 164.5 C 817.199 165.6 817.613 165.22 818.518 163.655 C 819.892 161.279 819.962 160.323 818.945 157.867 C 816.72 152.496 810.595 151.314 806.455 155.455 M 809.063 160.684 C 809.114 164.558 809.302 165.063 810.025 163.267 C 811.029 160.77 813.633 161.117 814.286 163.835 C 814.507 164.751 814.645 163.475 814.593 161 C 814.507 156.861 814.279 156.475 811.75 156.184 C 809.08 155.876 809.002 156.007 809.063 160.684 M 810.688 157.646 C 809.383 158.95 810.006 160 812.083 160 C 813.247 160 813.992 159.476 813.771 158.813 C 813.284 157.351 811.614 156.719 810.688 157.646" stroke-linecap="round" />
</g>
		<g transform="matrix(1 0 0 1 -70.3 -26.85)"  >
<path style="stroke: none; stroke-width: 1; stroke-dasharray: none; stroke-linecap: butt; stroke-dashoffset: 0; stroke-linejoin: miter; stroke-miterlimit: 4; fill: rgb(42,103,170); fill-rule: evenodd; opacity: 1;" vector-effect="non-scaling-stroke"  transform=" translate(-350.02, -102.1)" d="M 257.094 41.306 C 252.29 42.99 249.758 46.878 249.216 53.404 C 248.798 58.448 248.549 58.915 246.131 59.195 C 243.725 59.474 243.5 59.884 243.5 64 C 243.5 68.166 243.704 68.524 246.25 68.816 L 249 69.133 L 249 85.566 L 249 102 L 256 102 L 263 102 L 263 85.5 L 263 69 L 266.5 69 L 270 69 L 270 64 L 270 59 L 266.5 59 C 263.333 59 263 58.733 263 56.2 C 263 52.799 264.626 51 267.7 51 C 269.786 51 270 50.546 270 46.117 C 270 41.898 269.694 41.151 267.75 40.63 C 264.43 39.741 260.929 39.963 257.094 41.306 M 21 72 L 21 102 L 33.818 102 C 49.363 102 55.482 100.493 59.773 95.606 C 66.284 88.191 64.407 77.355 55.68 71.975 L 52.859 70.236 L 55.945 68.039 C 64.761 61.762 63.699 48.634 53.98 43.752 C 51.138 42.324 47.797 42.003 35.75 42.002 L 21 42 L 21 72 M 154.235 71.75 L 154.5 101.5 L 161.25 101.796 L 168 102.091 L 168 94.168 C 168 88.289 168.393 85.918 169.524 84.98 C 170.362 84.284 171.185 83.892 171.353 84.107 C 171.521 84.323 173.023 88.325 174.691 93 L 177.724 101.5 L 184.862 101.794 C 188.788 101.955 192 101.941 192 101.762 C 192 101.583 189.525 95.226 186.5 87.635 C 183.475 80.044 181 73.385 181 72.838 C 181 72.29 183.25 69.255 186 66.093 C 188.75 62.932 191 60.042 191 59.672 C 191 59.303 188.188 59.004 184.75 59.008 L 178.5 59.016 L 173.5 65.258 L 168.5 71.5 L 168.223 56.75 L 167.947 42 L 160.958 42 L 153.97 42 L 154.235 71.75 M 290.147 58.716 C 287.925 67.947 284.938 80.675 283.51 87 C 282.081 93.325 280.67 99.309 280.374 100.298 C 279.886 101.924 280.486 102.067 286.649 101.798 L 293.464 101.5 L 294.5 96 L 295.537 90.5 L 302.71 90.207 L 309.883 89.915 L 311.071 95.957 L 312.26 102 L 319.71 102 L 327.159 102 L 326.428 98.75 C 326.026 96.963 323.16 83.575 320.06 69 L 314.423 42.5 L 304.305 42.216 L 294.187 41.932 L 290.147 58.716 M 467.2 47.75 L 467.5 53.5 L 474.25 53.796 L 481 54.091 L 481 48.046 L 481 42 L 473.95 42 L 466.9 42 L 467.2 47.75 M 36 58.5 L 36 65 L 40.345 65 C 45.516 65 48 62.803 48 58.228 C 48 54.315 44.944 52 39.777 52 L 36 52 L 36 58.5 M 302.716 57 C 302.388 57.825 301.435 61.956 300.597 66.181 C 299.759 70.405 298.783 75.017 298.428 76.431 C 297.799 78.937 297.907 79 302.867 79 C 307.929 79 307.948 78.988 307.377 76.134 C 307.061 74.557 306.018 69.27 305.058 64.384 C 304.097 59.498 303.044 56.175 302.716 57 M 80.275 58.923 C 75.657 60.089 72.282 62.554 70.447 66.102 C 68.57 69.733 68.682 69.906 73.671 71.064 C 79.504 72.417 80.583 72.21 81.818 69.5 C 83.877 64.982 89 66.908 89 72.2 C 89 74.24 88.507 75 87.182 75 C 82.881 75 74.572 78.366 71.166 81.487 C 67.772 84.597 67.5 85.267 67.5 90.505 C 67.5 95.633 67.807 96.438 70.766 99.082 C 73.411 101.446 74.942 102 78.825 102 C 81.491 102 84.479 101.349 85.559 100.532 C 88.08 98.625 90 98.611 90 100.5 C 90 101.681 91.398 102 96.583 102 L 103.165 102 L 102.833 84.703 C 102.468 65.75 101.852 63.526 96.147 60.576 C 92.541 58.711 84.454 57.869 80.275 58.923 M 131.376 59.086 C 129.657 59.584 127.69 60.669 127.003 61.496 C 125.271 63.584 124 63.374 124 61 C 124 59.205 123.333 59 117.5 59 L 111 59 L 111 80.5 L 111 102 L 117.5 102 L 124 102 L 124 87.071 C 124 70.982 124.736 68.535 129.375 69.197 C 131.429 69.49 131.509 70.043 131.775 85.75 L 132.05 102 L 139.025 102 L 146 102 L 146 83.95 C 146 63.73 145.329 61.008 139.881 59.108 C 136.253 57.844 135.667 57.842 131.376 59.086 M 214.231 59.194 C 209.968 60.637 204.412 66.853 203.072 71.679 C 197.144 93.026 213.033 108.999 231.144 99.899 C 242.821 94.031 243.023 68.122 231.448 60.968 C 227.429 58.484 218.918 57.607 214.231 59.194 M 350.419 60.496 C 347.714 61.869 345.387 62.994 345.25 62.996 C 345.113 62.998 345 62.1 345 61 C 345 59.205 344.333 59 338.5 59 L 332 59 L 332 80.5 L 332 102 L 338.5 102 L 345 102 L 345 86.622 C 345 70.075 345.468 68.503 350.195 69.173 C 352.481 69.497 352.502 69.637 352.775 85.75 L 353.05 102 L 359.525 102 L 366 102 L 366 87.071 C 366 70.982 366.736 68.535 371.375 69.197 C 373.429 69.49 373.509 70.042 373.775 85.795 L 374.05 102.09 L 380.775 101.795 L 387.5 101.5 L 387.803 85 C 388.17 65.085 387.401 61.483 382.333 59.366 C 378.258 57.663 374.101 58.243 369.245 61.193 L 365.99 63.169 L 362.918 60.585 C 359.082 57.356 356.642 57.339 350.419 60.496 M 406.5 59.204 C 398.66 61.937 394.044 69.829 394.044 80.5 C 394.044 91.97 398.999 99.576 408.06 102.016 C 415.553 104.034 425.26 100.266 428.447 94.103 L 429.95 91.197 L 425.955 89.598 C 420.859 87.56 420.265 87.589 419.527 89.916 C 418.715 92.475 414.163 94.01 411.255 92.706 C 408.997 91.693 406.532 85.566 407.653 83.753 C 407.975 83.232 412.941 82.969 418.865 83.159 L 429.5 83.5 L 429.826 79 C 430.869 64.614 419.255 54.757 406.5 59.204 M 457.5 59.206 C 455.85 59.783 453.51 61.154 452.301 62.254 L 450.102 64.253 L 449.442 61.627 C 448.817 59.134 448.457 59 442.392 59 L 436 59 L 436 80.5 L 436 102 L 443 102 L 450 102 L 450 88.023 C 450 74.187 450.025 74.03 452.521 72.394 C 454.266 71.251 456.268 70.907 459.021 71.276 L 463 71.81 L 463 64.905 C 463 57.478 462.86 57.333 457.5 59.206 M 500.5 59.147 C 492.621 62.043 487.664 70.226 487.567 80.5 C 487.438 94.031 494.418 102.333 505.923 102.333 C 514.84 102.333 520.483 98.097 522.505 89.886 C 523.037 87.724 522.747 87.165 520.824 86.65 C 519.546 86.307 517.131 86.021 515.457 86.014 C 512.882 86.002 512.266 86.5 511.457 89.25 C 510.674 91.909 509.93 92.555 507.367 92.805 C 504.628 93.071 504.093 92.706 503.117 89.905 C 501.615 85.598 501.724 73.104 503.29 70.009 C 505.66 65.325 510.288 66.484 511.515 72.069 C 512.131 74.871 512.398 75 517.579 75 C 522.873 75 523 74.933 523 72.148 C 523 68.901 519.699 63.572 515.986 60.823 C 512.916 58.55 504.578 57.648 500.5 59.147 M 538.5 59.445 C 534.344 60.974 529 66.016 529 68.409 C 529 70.056 530.322 70.628 536.122 71.489 C 540.053 72.073 540.602 71.903 541.5 69.826 C 543.547 65.088 549 67.172 549 72.691 C 549 74.257 548.414 75 547.182 75 C 542.36 75 534.355 78.409 530.778 81.987 C 527.645 85.12 527 86.46 527 89.835 C 527 97.97 530.993 102.167 538.734 102.167 C 541.742 102.167 544.216 101.477 546.037 100.131 C 548.752 98.124 548.799 98.123 549.302 100.047 C 549.741 101.725 550.705 102 556.156 102 L 562.5 102.001 L 562.147 84.309 C 561.882 70.977 561.436 66.069 560.339 64.394 C 557.054 59.381 545.681 56.803 538.5 59.445 M 467.541 78.423 C 467.142 89.106 467.113 98.781 467.476 99.923 C 468.053 101.742 468.933 102 474.567 102 L 481 102 L 481 80.5 L 481 59 L 474.633 59 L 468.265 59 L 467.541 78.423 M 217.912 68.605 C 215.953 70.967 215.92 89.994 217.872 92.346 C 219.613 94.444 222.368 94.466 224.086 92.397 C 225.984 90.109 226.499 73.272 224.77 70 C 223.168 66.966 219.835 66.288 217.912 68.605 M 409.035 68.934 C 408.466 69.998 408 71.798 408 72.934 C 408 74.752 408.612 75 413.108 75 C 418.179 75 418.212 74.98 417.528 72.256 C 417.149 70.746 416.37 68.946 415.797 68.256 C 414.216 66.35 410.203 66.753 409.035 68.934 M 36 83.636 L 36 91.272 L 40.726 90.624 C 46.699 89.805 48.455 88.048 48.455 82.89 C 48.455 77.832 46.289 76 40.309 76 L 36 76 L 36 83.636 M 82.655 83.829 C 80.386 86.336 80.497 91.66 82.845 92.917 C 86.123 94.671 89 91.645 89 86.443 C 89 82.449 88.763 82 86.655 82 C 85.365 82 83.565 82.823 82.655 83.829 M 542.073 84.635 C 538.708 88.913 539.894 93 544.5 93 C 547.686 93 549 91.044 549 86.3 C 549 82.414 548.766 82 546.573 82 C 545.141 82 543.295 83.081 542.073 84.635 M 613.5 114.884 C 596.617 121.136 590.254 123.848 574.5 131.507 C 555.478 140.754 555.893 139.876 568.288 144.642 L 578.766 148.671 L 591.633 141.7 C 606.284 133.763 619.199 127.783 636.5 120.925 C 648.333 116.235 648.458 116.152 645.5 114.964 C 640.01 112.761 630.527 110.015 628.5 110.042 C 627.4 110.057 620.65 112.236 613.5 114.884 M 643.692 125.511 C 629.566 131.435 608.833 141.482 596.562 148.351 L 588.624 152.795 L 599.903 158.451 L 611.182 164.108 L 620.841 158.664 C 633.628 151.456 652.798 141.88 667.023 135.593 C 673.361 132.792 678.761 130.063 679.023 129.528 C 679.524 128.508 660.593 120.012 658 120.093 C 657.175 120.119 650.736 122.557 643.692 125.511" stroke-linecap="round" />
</g>
</g>
</g>
</svg>