<svg xmlns="http://www.w3.org/2000/svg" width="840" height="228" viewBox="0 0 840 228" version="1.1"><path d="M 257.094 41.306 C 252.290 42.990, 249.758 46.878, 249.216 53.404 C 248.798 58.448, 248.549 58.915, 246.131 59.195 C 243.725 59.474, 243.500 59.884, 243.500 64 C 243.500 68.166, 243.704 68.524, 246.250 68.816 L 249 69.133 249 85.566 L 249 102 256 102 L 263 102 263 85.500 L 263 69 266.500 69 L 270 69 270 64 L 270 59 266.500 59 C 263.333 59, 263 58.733, 263 56.200 C 263 52.799, 264.626 51, 267.700 51 C 269.786 51, 270 50.546, 270 46.117 C 270 41.898, 269.694 41.151, 267.750 40.630 C 264.430 39.741, 260.929 39.963, 257.094 41.306 M 21 72 L 21 102 33.818 102 C 49.363 102, 55.482 100.493, 59.773 95.606 C 66.284 88.191, 64.407 77.355, 55.680 71.975 L 52.859 70.236 55.945 68.039 C 64.761 61.762, 63.699 48.634, 53.980 43.752 C 51.138 42.324, 47.797 42.003, 35.750 42.002 L 21 42 21 72 M 154.235 71.750 L 154.500 101.500 161.250 101.796 L 168 102.091 168 94.168 C 168 88.289, 168.393 85.918, 169.524 84.980 C 170.362 84.284, 171.185 83.892, 171.353 84.107 C 171.521 84.323, 173.023 88.325, 174.691 93 L 177.724 101.500 184.862 101.794 C 188.788 101.955, 192 101.941, 192 101.762 C 192 101.583, 189.525 95.226, 186.500 87.635 C 183.475 80.044, 181 73.385, 181 72.838 C 181 72.290, 183.250 69.255, 186 66.093 C 188.750 62.932, 191 60.042, 191 59.672 C 191 59.303, 188.188 59.004, 184.750 59.008 L 178.500 59.016 173.500 65.258 L 168.500 71.500 168.223 56.750 L 167.947 42 160.958 42 L 153.970 42 154.235 71.750 M 290.147 58.716 C 287.925 67.947, 284.938 80.675, 283.510 87 C 282.081 93.325, 280.670 99.309, 280.374 100.298 C 279.886 101.924, 280.486 102.067, 286.649 101.798 L 293.464 101.500 294.500 96 L 295.537 90.500 302.710 90.207 L 309.883 89.915 311.071 95.957 L 312.260 102 319.710 102 L 327.159 102 326.428 98.750 C 326.026 96.963, 323.160 83.575, 320.060 69 L 314.423 42.500 304.305 42.216 L 294.187 41.932 290.147 58.716 M 467.200 47.750 L 467.500 53.500 474.250 53.796 L 481 54.091 481 48.046 L 481 42 473.950 42 L 466.900 42 467.200 47.750 M 36 58.500 L 36 65 40.345 65 C 45.516 65, 48 62.803, 48 58.228 C 48 54.315, 44.944 52, 39.777 52 L 36 52 36 58.500 M 302.716 57 C 302.388 57.825, 301.435 61.956, 300.597 66.181 C 299.759 70.405, 298.783 75.017, 298.428 76.431 C 297.799 78.937, 297.907 79, 302.867 79 C 307.929 79, 307.948 78.988, 307.377 76.134 C 307.061 74.557, 306.018 69.270, 305.058 64.384 C 304.097 59.498, 303.044 56.175, 302.716 57 M 80.275 58.923 C 75.657 60.089, 72.282 62.554, 70.447 66.102 C 68.570 69.733, 68.682 69.906, 73.671 71.064 C 79.504 72.417, 80.583 72.210, 81.818 69.500 C 83.877 64.982, 89 66.908, 89 72.200 C 89 74.240, 88.507 75, 87.182 75 C 82.881 75, 74.572 78.366, 71.166 81.487 C 67.772 84.597, 67.500 85.267, 67.500 90.505 C 67.500 95.633, 67.807 96.438, 70.766 99.082 C 73.411 101.446, 74.942 102, 78.825 102 C 81.491 102, 84.479 101.349, 85.559 100.532 C 88.080 98.625, 90 98.611, 90 100.500 C 90 101.681, 91.398 102, 96.583 102 L 103.165 102 102.833 84.703 C 102.468 65.750, 101.852 63.526, 96.147 60.576 C 92.541 58.711, 84.454 57.869, 80.275 58.923 M 131.376 59.086 C 129.657 59.584, 127.690 60.669, 127.003 61.496 C 125.271 63.584, 124 63.374, 124 61 C 124 59.205, 123.333 59, 117.500 59 L 111 59 111 80.500 L 111 102 117.500 102 L 124 102 124 87.071 C 124 70.982, 124.736 68.535, 129.375 69.197 C 131.429 69.490, 131.509 70.043, 131.775 85.750 L 132.050 102 139.025 102 L 146 102 146 83.950 C 146 63.730, 145.329 61.008, 139.881 59.108 C 136.253 57.844, 135.667 57.842, 131.376 59.086 M 214.231 59.194 C 209.968 60.637, 204.412 66.853, 203.072 71.679 C 197.144 93.026, 213.033 108.999, 231.144 99.899 C 242.821 94.031, 243.023 68.122, 231.448 60.968 C 227.429 58.484, 218.918 57.607, 214.231 59.194 M 350.419 60.496 C 347.714 61.869, 345.387 62.994, 345.250 62.996 C 345.113 62.998, 345 62.100, 345 61 C 345 59.205, 344.333 59, 338.500 59 L 332 59 332 80.500 L 332 102 338.500 102 L 345 102 345 86.622 C 345 70.075, 345.468 68.503, 350.195 69.173 C 352.481 69.497, 352.502 69.637, 352.775 85.750 L 353.050 102 359.525 102 L 366 102 366 87.071 C 366 70.982, 366.736 68.535, 371.375 69.197 C 373.429 69.490, 373.509 70.042, 373.775 85.795 L 374.050 102.090 380.775 101.795 L 387.500 101.500 387.803 85 C 388.170 65.085, 387.401 61.483, 382.333 59.366 C 378.258 57.663, 374.101 58.243, 369.245 61.193 L 365.990 63.169 362.918 60.585 C 359.082 57.356, 356.642 57.339, 350.419 60.496 M 406.500 59.204 C 398.660 61.937, 394.044 69.829, 394.044 80.500 C 394.044 91.970, 398.999 99.576, 408.060 102.016 C 415.553 104.034, 425.260 100.266, 428.447 94.103 L 429.950 91.197 425.955 89.598 C 420.859 87.560, 420.265 87.589, 419.527 89.916 C 418.715 92.475, 414.163 94.010, 411.255 92.706 C 408.997 91.693, 406.532 85.566, 407.653 83.753 C 407.975 83.232, 412.941 82.969, 418.865 83.159 L 429.500 83.500 429.826 79 C 430.869 64.614, 419.255 54.757, 406.500 59.204 M 457.500 59.206 C 455.850 59.783, 453.510 61.154, 452.301 62.254 L 450.102 64.253 449.442 61.627 C 448.817 59.134, 448.457 59, 442.392 59 L 436 59 436 80.500 L 436 102 443 102 L 450 102 450 88.023 C 450 74.187, 450.025 74.030, 452.521 72.394 C 454.266 71.251, 456.268 70.907, 459.021 71.276 L 463 71.810 463 64.905 C 463 57.478, 462.860 57.333, 457.500 59.206 M 500.500 59.147 C 492.621 62.043, 487.664 70.226, 487.567 80.500 C 487.438 94.031, 494.418 102.333, 505.923 102.333 C 514.840 102.333, 520.483 98.097, 522.505 89.886 C 523.037 87.724, 522.747 87.165, 520.824 86.650 C 519.546 86.307, 517.131 86.021, 515.457 86.014 C 512.882 86.002, 512.266 86.500, 511.457 89.250 C 510.674 91.909, 509.930 92.555, 507.367 92.805 C 504.628 93.071, 504.093 92.706, 503.117 89.905 C 501.615 85.598, 501.724 73.104, 503.290 70.009 C 505.660 65.325, 510.288 66.484, 511.515 72.069 C 512.131 74.871, 512.398 75, 517.579 75 C 522.873 75, 523 74.933, 523 72.148 C 523 68.901, 519.699 63.572, 515.986 60.823 C 512.916 58.550, 504.578 57.648, 500.500 59.147 M 538.500 59.445 C 534.344 60.974, 529 66.016, 529 68.409 C 529 70.056, 530.322 70.628, 536.122 71.489 C 540.053 72.073, 540.602 71.903, 541.500 69.826 C 543.547 65.088, 549 67.172, 549 72.691 C 549 74.257, 548.414 75, 547.182 75 C 542.360 75, 534.355 78.409, 530.778 81.987 C 527.645 85.120, 527 86.460, 527 89.835 C 527 97.970, 530.993 102.167, 538.734 102.167 C 541.742 102.167, 544.216 101.477, 546.037 100.131 C 548.752 98.124, 548.799 98.123, 549.302 100.047 C 549.741 101.725, 550.705 102, 556.156 102 L 562.500 102.001 562.147 84.309 C 561.882 70.977, 561.436 66.069, 560.339 64.394 C 557.054 59.381, 545.681 56.803, 538.500 59.445 M 467.541 78.423 C 467.142 89.106, 467.113 98.781, 467.476 99.923 C 468.053 101.742, 468.933 102, 474.567 102 L 481 102 481 80.500 L 481 59 474.633 59 L 468.265 59 467.541 78.423 M 217.912 68.605 C 215.953 70.967, 215.920 89.994, 217.872 92.346 C 219.613 94.444, 222.368 94.466, 224.086 92.397 C 225.984 90.109, 226.499 73.272, 224.770 70 C 223.168 66.966, 219.835 66.288, 217.912 68.605 M 409.035 68.934 C 408.466 69.998, 408 71.798, 408 72.934 C 408 74.752, 408.612 75, 413.108 75 C 418.179 75, 418.212 74.980, 417.528 72.256 C 417.149 70.746, 416.370 68.946, 415.797 68.256 C 414.216 66.350, 410.203 66.753, 409.035 68.934 M 36 83.636 L 36 91.272 40.726 90.624 C 46.699 89.805, 48.455 88.048, 48.455 82.890 C 48.455 77.832, 46.289 76, 40.309 76 L 36 76 36 83.636 M 82.655 83.829 C 80.386 86.336, 80.497 91.660, 82.845 92.917 C 86.123 94.671, 89 91.645, 89 86.443 C 89 82.449, 88.763 82, 86.655 82 C 85.365 82, 83.565 82.823, 82.655 83.829 M 542.073 84.635 C 538.708 88.913, 539.894 93, 544.500 93 C 547.686 93, 549 91.044, 549 86.300 C 549 82.414, 548.766 82, 546.573 82 C 545.141 82, 543.295 83.081, 542.073 84.635 M 670.500 89.387 C 665.550 90.575, 661.950 91.814, 662.500 92.139 C 663.050 92.465, 668.675 94.428, 675 96.502 C 686.453 100.258, 705.421 107.568, 716.127 112.352 L 721.754 114.866 731.369 112.183 C 736.657 110.707, 740.988 109.231, 740.992 108.902 C 741.012 107.385, 693.559 90.463, 681.500 87.686 C 680.400 87.433, 675.450 88.198, 670.500 89.387 M 638.216 98.114 C 633.110 99.746, 629.199 101.513, 629.525 102.041 C 629.851 102.568, 630.768 103, 631.563 103 C 633.917 103, 664.497 114.305, 678 120.167 L 690.500 125.594 700.450 122.093 L 710.400 118.592 702.950 115.193 C 686.047 107.483, 652.073 94.875, 648.735 95.074 C 648.056 95.114, 643.322 96.482, 638.216 98.114 M 613.500 114.884 C 596.617 121.136, 590.254 123.848, 574.500 131.507 C 555.478 140.754, 555.893 139.876, 568.288 144.642 L 578.766 148.671 591.633 141.700 C 606.284 133.763, 619.199 127.783, 636.500 120.925 C 648.333 116.235, 648.458 116.152, 645.500 114.964 C 640.010 112.761, 630.527 110.015, 628.500 110.042 C 627.400 110.057, 620.650 112.236, 613.500 114.884 M 745.320 114.028 C 703.790 126.348, 664.552 143.910, 626.315 167.291 L 613.130 175.353 627.578 183.176 C 635.525 187.479, 642.266 191, 642.559 191 C 642.851 191, 646.557 188.658, 650.795 185.795 C 684.124 163.279, 733.218 139.467, 773.250 126.400 C 779.712 124.291, 785 122.293, 785 121.961 C 785 121.628, 782.638 120.294, 779.750 118.996 C 776.862 117.697, 771.213 115.142, 767.195 113.317 C 763.177 111.493, 759.577 110.026, 759.195 110.059 C 758.813 110.091, 752.569 111.877, 745.320 114.028 M 643.692 125.511 C 629.566 131.435, 608.833 141.482, 596.562 148.351 L 588.624 152.795 599.903 158.451 L 611.182 164.108 620.841 158.664 C 633.628 151.456, 652.798 141.880, 667.023 135.593 C 673.361 132.792, 678.761 130.063, 679.023 129.528 C 679.524 128.508, 660.593 120.012, 658 120.093 C 657.175 120.119, 650.736 122.557, 643.692 125.511 M 776.312 133.010 C 735.768 148.602, 700.682 166.591, 666.500 189.311 C 652.792 198.423, 653.145 198.146, 654.578 198.663 C 655.171 198.877, 662.035 203.315, 669.831 208.526 C 677.627 213.737, 684.420 218, 684.926 218 C 685.432 218, 687.123 216.926, 688.682 215.614 C 700.135 205.977, 732.355 184.514, 756.201 170.637 C 766.950 164.382, 797.210 149.178, 809.250 143.983 C 813.513 142.143, 817 140.289, 817 139.862 C 817 138.590, 795.671 126.993, 793.500 127.085 C 792.400 127.131, 784.665 129.797, 776.312 133.010 M 807.223 154.557 C 806 155.413, 805 156.623, 805 157.245 C 805 157.868, 805.918 157.392, 807.039 156.189 C 809.898 153.120, 814.320 153.320, 816.927 156.635 C 818.067 158.084, 819 158.759, 819 158.135 C 819 156.020, 815.014 153, 812.223 153 C 810.695 153, 808.445 153.701, 807.223 154.557 M 809 160.667 C 809 163.233, 809.270 165.063, 809.600 164.733 C 809.930 164.403, 810.200 162.504, 810.200 160.513 C 810.200 157.713, 810.568 156.963, 811.820 157.204 C 812.878 157.408, 813.497 158.658, 813.606 160.810 C 813.840 165.479, 814.823 165.928, 814.722 161.320 C 814.633 157.322, 813.674 156.041, 810.750 156.015 C 809.331 156.003, 809 156.883, 809 160.667 M 817.501 163.998 C 817.152 165.096, 815.884 166.204, 814.683 166.459 C 813.483 166.714, 811.600 167.112, 810.500 167.345 C 809.318 167.595, 809.829 167.815, 811.750 167.884 C 814.913 167.997, 819 165.244, 819 163 C 819 161.329, 818.173 161.879, 817.501 163.998" stroke="none" fill="#2a67aa" fill-rule="evenodd"/></svg>