<svg xmlns="http://www.w3.org/2000/svg" width="900" height="549" viewBox="0 0 900 549" version="1.1"><path d="M 642.500 42.016 C 565.592 45.596, 448.357 59.993, 353.248 77.538 C 313.738 84.827, 312.309 85.106, 276.500 92.538 C 268.665 94.164, 266.002 95.335, 267.264 96.598 C 267.611 96.945, 274.556 96.068, 282.698 94.650 C 344.270 83.924, 431.714 73.641, 487.500 70.565 C 493 70.262, 502 69.742, 507.500 69.410 C 520.391 68.630, 584.512 68.616, 593 69.391 C 596.575 69.717, 604.900 70.463, 611.500 71.047 C 667.136 75.976, 700.252 90.037, 708.500 112.233 C 709.832 115.817, 710.142 118.852, 709.777 124.733 C 709.193 134.141, 706.106 142.177, 698.801 153.303 L 693.644 161.158 698.250 165.096 C 703.889 169.916, 710.262 179.262, 712.496 185.987 C 713.412 188.744, 714.516 191, 714.950 191 C 715.384 191, 721.985 186.651, 729.619 181.337 C 778.137 147.559, 808.012 119.482, 818.060 98.217 C 824.298 85.017, 823.160 75.030, 814.424 66.293 C 803.007 54.877, 779.550 47.328, 743.500 43.469 C 725.725 41.566, 669.525 40.758, 642.500 42.016 M 582 255.679 C 562.131 269.617, 495.037 312.576, 478.267 322.097 C 473.765 324.653, 472.031 327, 474.644 327 C 476.257 327, 517.735 305.124, 569 277.236 C 584.675 268.708, 597.651 261.604, 597.835 261.447 C 598.533 260.856, 593.454 249.029, 592.500 249.022 C 591.950 249.018, 587.225 252.014, 582 255.679" stroke="none" fill="#cd2426" fill-rule="evenodd"/><path d="M 110.983 161.548 C 96.087 163.998, 83.829 168.972, 73.115 176.915 C 65.082 182.870, 57.014 192.521, 57.788 195.250 C 57.904 195.662, 57.639 196, 57.198 196 C 55.144 196, 52.589 206.771, 52.573 215.500 C 52.552 226.244, 54.503 230.912, 61.989 238.027 C 73.988 249.431, 94.530 254.791, 121.500 253.557 C 141.746 252.630, 140.531 253.117, 142.345 245.191 C 143.188 241.511, 144.091 236.554, 144.353 234.176 C 144.767 230.418, 144.612 229.949, 143.165 230.598 C 142.249 231.009, 134.262 231.537, 125.416 231.772 C 110.477 232.168, 108.965 232.040, 104.159 229.973 C 81.101 220.054, 90.357 189.733, 118.856 181.830 C 129.623 178.845, 143.161 179.943, 152.404 184.552 C 154.001 185.348, 155.606 186, 155.970 186 C 156.594 186, 158.192 178.547, 159.520 169.436 C 160.056 165.760, 159.864 165.259, 157.505 164.184 C 149.090 160.350, 126.165 159.051, 110.983 161.548 M 560.743 161.636 C 560.185 162.571, 558.956 168.641, 556.620 182 C 555.803 186.675, 554.429 194.438, 553.567 199.250 C 552.705 204.063, 551.305 211.938, 550.457 216.750 C 549.608 221.563, 548.287 228.650, 547.520 232.500 C 546.754 236.350, 545.838 241.695, 545.483 244.378 C 545.129 247.061, 544.602 249.873, 544.313 250.628 C 543.880 251.755, 546.623 252, 559.696 252 L 575.606 252 577.376 242.250 C 578.349 236.887, 579.788 228.787, 580.573 224.250 C 581.358 219.713, 582.669 212.174, 583.486 207.497 C 584.304 202.821, 585.615 195.283, 586.400 190.747 C 587.186 186.211, 588.618 178.114, 589.584 172.754 C 590.550 167.393, 591.151 162.828, 590.920 162.609 C 590.015 161.752, 561.229 160.823, 560.743 161.636 M 650.326 161.980 C 648.031 162.469, 644.773 163.583, 643.087 164.455 C 641.401 165.327, 639.760 165.973, 639.442 165.890 C 639.124 165.807, 636.307 167.035, 633.182 168.619 C 624.476 173.033, 611.403 186.600, 606.316 196.500 C 600.333 208.144, 597.829 218.064, 598.038 229.301 C 598.506 254.536, 610.228 270.267, 632.500 275.548 C 640.481 277.440, 646.830 277.326, 656.601 275.116 C 683.671 268.991, 702.175 249.554, 707.925 221.201 C 708.516 218.286, 709 214.401, 709 212.567 C 709 209.016, 710.532 208.042, 716.168 208.014 C 722.073 207.983, 723.092 210.035, 721.067 217.884 C 719.956 222.195, 718.425 228.698, 713.038 252 C 710.812 261.625, 708.716 270.512, 708.379 271.750 C 707.798 273.887, 708.046 274, 713.324 274 C 716.381 274, 719.103 273.642, 719.374 273.204 C 719.912 272.334, 723.674 254.682, 725.141 246.140 C 725.648 243.192, 726.704 239.540, 727.488 238.023 C 729.573 233.991, 753.074 211.905, 758.261 209.104 C 768.276 203.694, 770.585 209.110, 765.678 226.500 C 762.850 236.523, 761.417 241.495, 758.542 251.261 C 754.009 266.653, 754.168 272.863, 759.157 275.279 C 764.906 278.064, 772.932 273.874, 779.500 264.659 C 781.700 261.572, 783.929 259.179, 784.454 259.341 C 784.979 259.503, 785.751 260.959, 786.170 262.576 C 787.453 267.528, 794.679 273.693, 801.175 275.379 C 804.297 276.189, 807.897 276.632, 809.175 276.364 C 823.376 273.386, 831.949 267.991, 838.782 257.730 C 842.444 252.230, 840.678 251.948, 835.983 257.282 C 830.492 263.520, 821.425 268, 814.291 268 C 802.172 268, 795.409 260.159, 796.178 247 L 796.500 241.500 803.500 240.735 C 832.118 237.609, 849 227.014, 849 212.181 C 849 209.749, 847.064 205.067, 845.289 203.206 C 842.279 200.050, 834.971 197.852, 829.151 198.351 C 806.988 200.253, 784.016 226.601, 783.996 250.144 C 783.990 257.392, 776.190 267.380, 771 266.786 C 768.663 266.519, 768.504 266.142, 768.559 261 C 768.591 257.975, 769.771 251.675, 771.179 247 C 772.588 242.325, 774.033 237.375, 774.390 236 C 774.748 234.625, 776.174 229.225, 777.559 224 C 781.360 209.664, 781.711 204.129, 779.034 200.750 C 776.460 197.502, 773.073 197.204, 766.770 199.671 C 759.417 202.549, 753.892 206.912, 741.251 219.825 C 734.515 226.706, 728.759 232.093, 728.462 231.795 C 728.164 231.498, 728.586 228.610, 729.399 225.377 C 731.813 215.782, 733.840 206.759, 734.511 202.616 C 735.061 199.227, 734.923 198.816, 733.429 199.389 C 731.325 200.196, 715.523 204.601, 711.750 205.432 C 709.335 205.964, 709 205.740, 709 203.595 C 709 198.769, 706.737 190.385, 703.752 184.154 C 699.791 175.885, 692.826 169.012, 684.297 164.958 C 678.063 161.994, 676.548 161.700, 666 161.408 C 659.675 161.234, 652.622 161.491, 650.326 161.980 M 370.500 163.881 C 365.173 166.327, 362.773 169.172, 363.175 172.563 C 363.665 176.694, 367.734 179.130, 375.130 179.717 C 386.402 180.612, 396 176.122, 396 169.953 C 396 163.180, 380.213 159.421, 370.500 163.881 M 649.500 166.127 C 631.364 173.449, 616.216 199.086, 614.388 225.553 C 614.031 230.733, 614.237 236.981, 614.878 240.394 C 618.752 261.014, 635.415 274.614, 652.190 270.846 C 665.560 267.843, 676.964 258.036, 683.941 243.541 C 690.181 230.575, 692 222.197, 692 206.419 C 692 193.543, 691.845 192.488, 688.919 185.460 C 681.598 167.874, 665.153 159.809, 649.500 166.127 M 439.500 167.245 C 436.750 167.778, 433.825 168.459, 433 168.758 C 432.175 169.056, 430.656 169.464, 429.624 169.663 C 421.471 171.239, 413.639 173.028, 413.270 173.397 C 413.025 173.642, 412.577 176.578, 412.273 179.921 L 411.722 186 404.948 186 L 398.175 186 397.337 192.250 L 396.500 198.500 402.250 198.798 C 406.114 198.998, 408 199.517, 408 200.381 C 408 202.230, 405.210 217.789, 401.523 236.500 C 400.765 240.350, 399.881 245.412, 399.560 247.750 L 398.976 252 414.450 252 L 429.923 252 430.900 248.250 C 431.438 246.188, 432.159 242.700, 432.504 240.500 C 432.848 238.300, 433.755 233.125, 434.520 229 C 435.285 224.875, 436.643 217.450, 437.538 212.500 C 438.433 207.550, 439.362 202.488, 439.602 201.250 C 440.013 199.131, 440.525 199, 448.383 199 L 456.728 199 457.351 194.750 C 457.693 192.412, 458.256 189.488, 458.603 188.250 C 459.219 186.050, 459.054 186, 451.117 186 C 442.128 186, 442.113 185.985, 443.913 179 C 445.122 174.309, 445.910 165.966, 445.127 166.138 C 444.782 166.213, 442.250 166.712, 439.500 167.245 M 197.500 185.964 C 190.900 186.392, 182.573 187.277, 178.996 187.931 L 172.491 189.120 169.834 196.560 C 166.733 205.242, 166.674 205.196, 177.356 202.380 C 181.675 201.242, 188.335 200.722, 199.783 200.630 C 217.753 200.486, 217.956 200.555, 217.985 206.799 C 217.998 209.716, 217.508 210.321, 213.750 212.027 C 211.412 213.088, 208.055 213.966, 206.288 213.978 C 198.830 214.029, 171.670 218.134, 166.967 219.921 C 159.681 222.689, 157.264 224.514, 153.937 229.760 C 150.117 235.784, 150.158 239.523, 154.097 244.301 C 159.556 250.924, 163.726 252.362, 177.500 252.371 C 190.057 252.380, 197.704 250.742, 206.816 246.094 C 211.357 243.777, 212 244.097, 212 248.667 L 212 252 228.023 252 L 244.046 252 242.372 249.445 C 240.817 247.072, 240.813 246.342, 242.308 239.195 C 244.015 231.037, 246.079 219.554, 248.157 206.661 C 249.327 199.397, 249.276 198.552, 247.460 195.161 C 246.052 192.531, 243.939 190.743, 239.956 188.810 C 235.093 186.450, 232.882 186.062, 221.956 185.652 C 215.105 185.395, 204.100 185.535, 197.500 185.964 M 494 186.013 C 486.575 186.412, 477.267 187.308, 473.315 188.005 C 466.651 189.180, 466.046 189.497, 464.970 192.386 C 464.333 194.099, 463.108 197.192, 462.249 199.260 C 461.390 201.328, 460.992 203.325, 461.364 203.697 C 461.736 204.069, 466.181 203.533, 471.242 202.506 C 482.864 200.146, 507.769 199.743, 510.342 201.872 C 512.898 203.988, 512.424 208.521, 509.399 210.901 C 506.456 213.216, 506.064 213.293, 485.500 215.601 C 461.056 218.344, 450.962 222.316, 446.850 230.810 C 445.345 233.919, 444.907 236.266, 445.293 239.146 C 445.925 243.862, 447.865 246.248, 453.999 249.854 C 458.265 252.362, 459.178 252.496, 471.500 252.430 C 483.556 252.364, 485.107 252.130, 492.863 249.208 C 497.463 247.475, 501.885 245.511, 502.689 244.843 C 504.535 243.311, 505.962 245.219, 505.985 249.250 L 506 252 521.535 252 C 536.829 252, 537.054 251.968, 535.986 249.973 C 534.790 247.739, 535.487 241.476, 539.044 222.500 C 540.754 213.374, 541.415 208.859, 542.182 201.060 C 542.760 195.178, 538.791 190.348, 531.269 187.782 C 525.272 185.735, 511.423 185.078, 494 186.013 M 307.312 187.980 C 300.132 190.101, 291.352 194.641, 290.590 196.627 C 290.300 197.382, 289.414 198, 288.622 198 C 287.373 198, 287.367 197.301, 288.579 192.750 C 289.347 189.863, 289.982 187.387, 289.988 187.250 C 290.019 186.594, 263.058 187.098, 262.648 187.761 C 262.389 188.180, 261.654 191.443, 261.015 195.011 C 260.376 198.580, 259.242 204.875, 258.495 209 C 257.748 213.125, 256.413 220.775, 255.527 226 C 254.642 231.225, 253.285 238.875, 252.511 243 C 250.681 252.749, 248.240 266.505, 247.497 271.250 L 246.909 275 262.350 275 L 277.790 275 278.250 271.250 C 278.920 265.798, 281.137 253.096, 282.176 248.758 L 283.073 245.017 288.046 248.438 C 293.892 252.459, 300.293 253.582, 312.155 252.668 C 326.354 251.573, 338.603 243.212, 345.040 230.222 C 348.094 224.060, 348.375 222.709, 348.414 214 C 348.450 206.092, 348.089 203.806, 346.263 200.357 C 339.795 188.145, 323.879 183.088, 307.312 187.980 M 360.639 188.750 C 360.026 190.912, 358.555 198.684, 356.524 210.500 C 353.677 227.058, 350.016 247.476, 349.486 249.750 L 348.962 252 364.981 252 L 381 252 381 249.028 C 381 247.394, 381.650 242.782, 382.445 238.778 C 383.821 231.847, 384.755 226.679, 388.551 205 C 389.466 199.775, 390.562 193.588, 390.986 191.250 L 391.758 187 376.446 187 C 362.720 187, 361.083 187.181, 360.639 188.750 M 300.605 201.717 C 296.599 202.743, 292.387 205.821, 289.620 209.746 C 287.139 213.265, 286.724 214.821, 286.620 220.996 C 286.506 227.820, 286.649 228.295, 289.612 230.944 C 300.614 240.778, 318.892 229.993, 318.129 214.116 C 317.987 211.155, 317.198 207.706, 316.377 206.452 C 313.608 202.226, 306.708 200.155, 300.605 201.717 M 819.756 203.569 C 817.697 204.918, 813.966 208.604, 811.464 211.761 C 807.075 217.297, 798 234.129, 798 236.731 C 798 237.610, 799.778 238, 803.788 238 C 824.854 238, 844.193 217.757, 835.918 204.368 C 833.979 201.230, 833.484 201.004, 828.668 201.059 C 824.938 201.101, 822.458 201.800, 819.756 203.569 M 206.500 223.570 C 203.750 224.335, 199.908 224.970, 197.962 224.981 C 194.030 225.002, 186.154 228.624, 184.666 231.095 C 182.996 233.869, 184.703 237.701, 188.143 238.900 C 200.272 243.128, 215 235.286, 215 224.599 C 215 221.598, 214.016 221.479, 206.500 223.570 M 499.500 223.562 C 496.200 224.298, 490.871 225.414, 487.658 226.043 C 480.575 227.427, 477.761 229.877, 478.191 234.286 C 478.611 238.597, 481.865 240.171, 489.500 239.756 C 500.955 239.133, 506.391 234.976, 508.466 225.250 C 509.270 221.478, 509.040 221.434, 499.500 223.562 M 282 357.666 C 275.221 358.734, 275.291 358.666, 273.692 365.741 C 272.852 369.459, 271.422 376.550, 270.515 381.500 C 269.607 386.450, 268.257 393.425, 267.515 397 C 266.772 400.575, 265.422 407.550, 264.515 412.500 C 263.607 417.450, 262.255 424.425, 261.509 428 C 259.541 437.438, 257.199 449.855, 256.463 454.750 L 255.824 459 261.365 459 L 266.906 459 267.947 455.250 C 268.520 453.188, 268.991 450.692, 268.994 449.706 C 268.997 448.719, 269.638 445.119, 270.418 441.706 C 271.198 438.292, 272.548 431.788, 273.418 427.250 C 277.864 404.061, 278.217 402.869, 280.935 401.827 C 292.820 397.274, 300.943 397.593, 305.057 402.774 C 307.016 405.242, 307.159 406.254, 306.570 413.456 C 306.212 417.832, 305.299 424.132, 304.541 427.456 C 303.326 432.785, 301.872 440.057, 299.084 454.750 L 298.277 459 304.093 459 L 309.909 459 310.512 455.250 C 310.843 453.188, 311.727 448.575, 312.475 445 C 313.223 441.425, 314.576 434.450, 315.481 429.500 C 316.386 424.550, 317.548 418.613, 318.063 416.307 C 320.491 405.439, 318.396 397.748, 311.681 392.884 C 308.102 390.291, 306.911 390, 299.887 390 C 294.432 390, 290.543 390.604, 287 392 C 284.209 393.100, 281.504 394, 280.988 394 C 279.815 394, 280.897 387.095, 285.485 365.303 C 286.318 361.344, 287 357.857, 287 357.553 C 287 356.981, 286.243 356.998, 282 357.666 M 566.635 364.073 C 563.381 366.632, 562.945 372.735, 565.829 375.345 C 568.436 377.705, 573.405 377.416, 576.537 374.722 C 579.895 371.834, 580.436 365.523, 577.510 363.384 C 574.753 361.368, 569.663 361.690, 566.635 364.073 M 218.221 364.481 C 202.542 367.990, 193 378.024, 193 391 C 193 402.345, 197.306 407.176, 213.500 414.002 C 227.773 420.019, 232.052 424.490, 231.952 433.284 C 231.848 442.426, 225.414 449.300, 215.181 451.203 C 206.485 452.821, 195.094 451.202, 187.116 447.216 L 181 444.160 181 449.059 C 181 453.816, 181.124 454.023, 185.250 456.136 C 191.215 459.192, 202.490 461.963, 209.040 461.983 C 219.967 462.017, 232.086 457.252, 237.530 450.782 C 242.597 444.760, 244.263 440.110, 244.263 431.987 C 244.263 417.896, 239.961 413.451, 216.126 402.917 C 207.099 398.928, 203.493 392.179, 206.395 384.707 C 208.647 378.909, 214.264 375.093, 222.201 373.972 C 229.179 372.985, 239.312 374.034, 245.906 376.424 C 248.329 377.303, 250.496 377.838, 250.720 377.613 C 250.944 377.389, 251.212 375.586, 251.314 373.607 C 251.416 371.628, 251.950 369.989, 252.500 369.965 C 254.289 369.887, 246.885 367.024, 241.120 365.565 C 232.145 363.293, 225.031 362.956, 218.221 364.481 M 353.124 392.735 C 341.547 398.366, 334.467 409.415, 331.490 426.500 C 329.856 435.880, 329.851 436.903, 331.411 443 C 333.427 450.879, 337.054 455.724, 343.272 458.842 C 350.209 462.321, 358.254 462.744, 366.337 460.054 C 381.134 455.130, 390.169 441.099, 392.562 419.326 C 393.094 414.491, 392.791 411.670, 391.164 406.315 C 387.590 394.546, 380.661 389.956, 366.628 390.061 C 359.981 390.110, 357.521 390.597, 353.124 392.735 M 435 390.702 C 434.175 391.001, 431.363 392.296, 428.750 393.581 L 424 395.917 424 393.554 C 424 391.355, 423.704 391.228, 419.750 391.730 C 414.205 392.435, 413.279 393.279, 412.541 398.308 C 412.202 400.613, 411.297 405.650, 410.528 409.500 C 409.759 413.350, 408.387 420.325, 407.478 425 C 406.569 429.675, 405.226 436.425, 404.495 440 C 403.763 443.575, 402.422 450.550, 401.515 455.500 C 400.607 460.450, 399.246 467.425, 398.489 471 C 397.733 474.575, 396.833 479.300, 396.489 481.500 C 396.145 483.700, 395.620 486.512, 395.323 487.750 C 394.834 489.789, 395.144 489.999, 398.642 489.986 C 406.768 489.958, 406.495 490.358, 409.616 473.911 C 411.172 465.710, 412.908 459.005, 413.473 459.011 C 414.038 459.017, 416.709 459.692, 419.409 460.511 C 428.238 463.189, 438.825 461.667, 446.903 456.556 C 451.602 453.584, 458.354 446.197, 460.802 441.349 C 466.062 430.935, 467.787 412.673, 464.352 403.770 C 462.503 398.978, 457.860 393.542, 453.800 391.415 C 451.152 390.027, 438.214 389.537, 435 390.702 M 505.508 392.083 C 502.763 393.224, 500.021 394.567, 499.416 395.070 C 498.086 396.173, 497 395.258, 497 393.034 C 497 391.740, 496.223 391.488, 493.250 391.819 C 488.066 392.397, 487.432 393.147, 486.107 400.261 C 485.468 403.692, 484.309 409.650, 483.531 413.500 C 482.753 417.350, 481.389 424.325, 480.500 429 C 479.611 433.675, 478.253 440.650, 477.484 444.500 C 476.714 448.350, 475.351 455.325, 474.455 460 C 473.558 464.675, 472.217 471.425, 471.475 475 C 470.732 478.575, 469.857 483.469, 469.530 485.876 L 468.936 490.253 474.467 489.794 C 477.509 489.542, 480.197 489.136, 480.441 488.893 C 480.685 488.649, 481.347 485.761, 481.913 482.475 C 484.268 468.797, 486.040 459.627, 486.398 459.269 C 486.607 459.059, 489.481 459.588, 492.784 460.444 C 500.498 462.443, 505.466 462.410, 512.135 460.315 C 523.472 456.753, 531.728 448.718, 536.868 436.246 C 538.899 431.316, 539.249 428.726, 539.331 418 C 539.419 406.481, 539.233 405.154, 536.963 401.089 C 535.608 398.663, 532.771 395.288, 530.658 393.589 C 527.154 390.772, 526.097 390.478, 518.658 390.255 C 512.273 390.063, 509.415 390.461, 505.508 392.083 M 608.750 392.934 L 602 395.813 602 393.470 C 602 391.335, 601.665 391.172, 598.250 391.648 C 596.188 391.935, 594.017 392.312, 593.427 392.486 C 592.837 392.659, 591.565 396.783, 590.600 401.651 C 589.635 406.518, 588.203 413.650, 587.417 417.500 C 582.792 440.177, 580 454.994, 580 456.864 C 580 458.778, 580.554 459, 585.336 459 L 590.673 459 592.394 450.750 C 593.340 446.212, 594.800 438.900, 595.639 434.500 C 596.477 430.100, 597.761 423.800, 598.491 420.500 C 599.221 417.200, 600.129 412.118, 600.509 409.208 C 601.330 402.917, 602.741 401.725, 612.112 399.412 C 617.294 398.134, 619.424 398.037, 622.743 398.931 C 630.732 401.082, 632.623 406.989, 629.582 420.294 C 628.802 423.708, 627.430 430.325, 626.533 435 C 625.636 439.675, 624.244 446.650, 623.439 450.500 C 622.633 454.350, 621.980 457.837, 621.987 458.250 C 621.994 458.663, 624.700 459, 628 459 L 634 459 634.152 455.750 C 634.363 451.251, 634.464 450.642, 635.186 449.492 C 635.534 448.938, 636.110 446.688, 636.466 444.492 C 636.823 442.297, 637.727 437.575, 638.475 434 C 643.863 408.265, 644.101 402.760, 640.075 397.105 C 634.559 389.359, 621.275 387.590, 608.750 392.934 M 678.344 392.420 C 670.749 395.957, 662.672 404.207, 659.175 412 C 651.509 429.087, 653.662 449.777, 663.804 456.489 C 670.650 461.020, 682.395 461.433, 690.162 457.416 C 691.668 456.637, 693.373 456, 693.950 456 C 695.642 456, 695.160 462.590, 693.015 468.775 C 690.316 476.558, 685.623 480.528, 677.528 481.875 C 670.646 483.021, 659.704 481.505, 654.250 478.650 L 651 476.949 651.004 481.724 C 651.007 486.413, 651.085 486.530, 655.254 488.164 C 673.079 495.150, 690.369 491.681, 699.414 479.302 C 702.710 474.791, 707.016 463.445, 706.987 459.345 C 706.980 458.330, 707.643 454.350, 708.461 450.500 C 709.877 443.833, 710.749 439.443, 714.516 420 C 715.422 415.325, 716.802 408.708, 717.582 405.294 C 719.484 396.972, 719.425 396.519, 716.250 395.042 C 704.349 389.506, 687.156 388.317, 678.344 392.420 M 566.957 392.318 L 561.414 393.165 559.633 401.833 C 558.653 406.600, 557.206 413.875, 556.417 418 C 552.929 436.238, 551.812 441.932, 550.439 448.500 C 548.181 459.292, 548.055 459, 555 459 L 561 459 561 455.956 C 561 454.281, 561.638 450.119, 562.418 446.706 C 563.733 440.954, 564.773 435.742, 568.548 416 C 569.337 411.875, 570.703 405.026, 571.585 400.781 C 572.466 396.535, 573.033 392.704, 572.844 392.266 C 572.655 391.829, 570.006 391.852, 566.957 392.318 M 361.942 398.917 C 350.207 402.621, 344.970 412.215, 343.202 433.244 C 342.797 438.054, 342.699 442.104, 342.983 442.244 C 343.267 442.385, 344.285 444.198, 345.245 446.273 C 349.329 455.105, 363.654 454.895, 371.363 445.889 C 376.613 439.756, 379.058 432.164, 379.701 420 C 380.343 407.859, 379.010 403.091, 374.294 400.652 C 370.481 398.680, 365.091 397.923, 361.942 398.917 M 436 398.624 C 423.594 402.477, 424.016 402.226, 422.890 406.409 C 422.300 408.599, 421.472 412.440, 421.049 414.945 C 419.788 422.416, 417.895 432.099, 416.402 438.706 C 415.631 442.119, 415 446.220, 415 447.819 C 415 450.561, 415.338 450.798, 420.936 451.986 C 440.304 456.097, 453.895 441.897, 453.942 417.500 C 453.961 407.831, 451.520 402.592, 445.784 399.988 C 441.563 398.073, 438.948 397.708, 436 398.624 M 506 399.489 C 496.781 402.448, 497.890 400.119, 492.427 428 C 491.619 432.125, 490.289 438.575, 489.472 442.334 C 488.655 446.093, 488.193 449.504, 488.446 449.913 C 489.346 451.369, 499.916 453.275, 504.030 452.723 C 510.139 451.903, 517.036 447.975, 520.624 443.271 C 527.477 434.285, 530.236 415.521, 526.057 406.316 C 522.980 399.540, 514.663 396.709, 506 399.489 M 685.878 399.563 C 679.934 401.393, 674.062 407.108, 670.410 414.618 C 667.990 419.594, 667.492 422.011, 667.179 430.312 C 666.762 441.365, 667.687 444.718, 672.206 448.520 C 674.713 450.629, 676.173 451, 681.968 451 C 686.542 451, 690.198 450.366, 693.090 449.071 C 697.747 446.986, 697.760 446.954, 701.014 429.500 C 701.527 426.750, 702.624 420.900, 703.452 416.500 C 704.280 412.100, 705.244 406.845, 705.595 404.823 L 706.232 401.146 700.935 399.573 C 694.586 397.688, 691.972 397.686, 685.878 399.563" stroke="none" fill="#003c5a" fill-rule="evenodd"/><path d="M 120.269 159.603 C 121.079 160.413, 138.889 160.444, 139.696 159.637 C 140.047 159.287, 135.683 159, 130 159 C 124.317 159, 119.938 159.271, 120.269 159.603 M 108.500 161 C 105.767 161.695, 105.722 161.769, 108 161.824 C 109.375 161.857, 112.300 161.512, 114.500 161.057 L 118.500 160.230 115 160.233 C 113.075 160.235, 110.150 160.580, 108.500 161 M 145 161 C 146.375 161.440, 148.625 161.801, 150 161.801 L 152.500 161.801 150 161 C 148.625 160.560, 146.375 160.199, 145 160.199 L 142.500 160.199 145 161 M 559.437 162.396 C 559.064 163.879, 559.039 165.372, 559.380 165.713 C 559.721 166.054, 560 165.385, 560 164.226 C 560 163.066, 560.480 161.821, 561.067 161.458 C 561.654 161.096, 568.605 161.122, 576.513 161.518 C 590.111 162.197, 590.915 162.352, 591.310 164.368 C 591.640 166.053, 591.756 165.924, 591.864 163.750 C 591.990 161.203, 591.716 161, 588.157 161 C 586.043 161, 578.869 160.707, 572.214 160.349 L 560.114 159.699 559.437 162.396 M 651.557 160.868 C 649.938 161.216, 655.312 161.500, 663.500 161.500 C 671.688 161.500, 677.062 161.216, 675.443 160.868 C 673.824 160.521, 668.450 160.237, 663.500 160.237 C 658.550 160.237, 653.176 160.521, 651.557 160.868 M 378.768 161.725 C 380.565 161.947, 383.265 161.943, 384.768 161.715 C 386.271 161.486, 384.800 161.304, 381.500 161.310 C 378.200 161.315, 376.971 161.502, 378.768 161.725 M 391.750 164.566 C 395.113 166.582, 396 167.691, 396 169.882 C 396 172.612, 393.574 175.580, 389.500 177.833 C 388.400 178.441, 388.047 178.953, 388.715 178.970 C 389.384 178.986, 391.545 177.583, 393.517 175.851 C 398.238 171.706, 398.092 167.633, 393.102 164.282 C 391.233 163.027, 389.208 162.004, 388.602 162.009 C 387.996 162.015, 389.413 163.165, 391.750 164.566 M 642.750 163.162 C 641.237 163.715, 640 164.591, 640 165.109 C 640 165.627, 641.237 165.427, 642.750 164.663 C 644.263 163.899, 646.175 163.023, 647 162.716 C 648.333 162.220, 648.333 162.158, 647 162.158 C 646.175 162.158, 644.263 162.610, 642.750 163.162 M 684.797 165.074 C 692.594 168.931, 699.946 176.147, 703.519 183.449 C 706.541 189.625, 707.830 190.922, 705.569 185.511 C 701.242 175.154, 690.245 164.892, 681 162.583 C 679.625 162.240, 681.333 163.361, 684.797 165.074 M 157.763 164.226 C 159.782 165.200, 159.975 165.867, 159.552 170.409 L 159.077 175.500 160.136 170.119 C 161.242 164.493, 160.559 162.959, 157 163.083 C 156.086 163.115, 156.385 163.562, 157.763 164.226 M 366.973 164.646 C 363.346 167.061, 362 169.056, 362 172.017 C 362 177.351, 369.028 181.121, 378.493 180.864 C 382.915 180.744, 382.637 180.638, 376.109 179.955 C 367.697 179.074, 363.676 176.784, 363.178 172.591 C 362.810 169.498, 364.204 167.468, 368.500 164.842 C 370.150 163.833, 371.038 163.006, 370.473 163.004 C 369.907 163.002, 368.332 163.741, 366.973 164.646 M 651.500 165.560 C 649.850 166.369, 649.400 166.732, 650.500 166.368 C 655.537 164.702, 665.151 164.786, 669.735 166.537 C 675.578 168.768, 682.364 174.963, 686.102 181.480 C 689.389 187.211, 690.001 186.882, 686.999 180.998 C 684.198 175.507, 677.435 169.111, 671.514 166.354 C 665.638 163.618, 656.225 163.245, 651.500 165.560 M 82.971 169.621 C 72.935 174.646, 61.760 184.446, 58.594 191 C 56.797 194.720, 57.158 194.336, 62.708 186.617 C 66.521 181.314, 78.027 172.795, 87.042 168.601 C 91.144 166.692, 93.983 165.101, 93.352 165.065 C 92.720 165.029, 88.049 167.080, 82.971 169.621 M 445.340 169.751 C 445.204 173.785, 445.299 174.048, 445.971 171.500 C 447.047 167.424, 447.151 165, 446.250 165.001 C 445.837 165.001, 445.428 167.139, 445.340 169.751 M 631.138 168.737 C 622.495 173.849, 610.448 186.651, 605.647 195.824 C 603.539 199.851, 601.977 203.310, 602.177 203.510 C 602.376 203.710, 604.310 200.414, 606.474 196.187 C 611.391 186.582, 624.587 172.977, 633.250 168.584 C 636.413 166.980, 639 165.517, 639 165.334 C 639 164.420, 636.895 165.331, 631.138 168.737 M 641.232 170.750 C 638.500 172.813, 634.999 176.075, 633.454 178 C 631.483 180.455, 632.265 179.960, 636.072 176.344 C 639.057 173.508, 643.075 170.247, 645 169.098 C 646.925 167.948, 647.983 167.006, 647.350 167.004 C 646.718 167.002, 643.965 168.688, 641.232 170.750 M 589.019 174.398 C 588.346 177.966, 587.985 181.455, 588.217 182.150 C 588.449 182.846, 589.184 180.111, 589.851 176.073 C 591.361 166.930, 590.685 165.569, 589.019 174.398 M 556.545 177.545 C 556.163 180.096, 556.055 182.388, 556.305 182.638 C 556.555 182.888, 557.072 181.005, 557.455 178.455 C 557.837 175.904, 557.945 173.612, 557.695 173.362 C 557.445 173.112, 556.928 174.995, 556.545 177.545 M 122 180.951 C 120.625 181.365, 123.550 181.508, 128.500 181.269 C 133.450 181.031, 137.950 180.683, 138.500 180.497 C 140.589 179.789, 124.380 180.235, 122 180.951 M 628.210 184.750 C 627.150 186.262, 625.754 188.512, 625.107 189.750 C 623.001 193.776, 624.624 192.124, 627.809 187 C 631.136 181.648, 631.393 180.206, 628.210 184.750 M 108.500 185.913 C 103.133 189.019, 97.558 194.069, 95.789 197.427 C 95.188 198.567, 96.756 197.222, 99.273 194.437 C 101.790 191.652, 106.471 187.951, 109.675 186.213 C 112.879 184.475, 115.050 183.046, 114.500 183.036 C 113.950 183.027, 111.250 184.321, 108.500 185.913 M 201 185 L 193.500 185.640 200 185.721 C 203.575 185.765, 210.325 185.466, 215 185.056 L 223.500 184.310 216 184.335 C 211.875 184.349, 205.125 184.648, 201 185 M 498 185 L 488.500 185.617 497 185.734 C 501.675 185.799, 507.525 185.491, 510 185.051 C 513.922 184.353, 514.051 184.259, 511 184.317 C 509.075 184.353, 503.225 184.661, 498 185 M 517.768 185.725 C 519.565 185.947, 522.265 185.943, 523.768 185.715 C 525.271 185.486, 523.800 185.304, 520.500 185.310 C 517.200 185.315, 515.971 185.502, 517.768 185.725 M 239.665 188.390 C 245.487 191.120, 248.053 194.363, 249.153 200.380 L 249.907 204.500 249.569 199.688 C 249.109 193.126, 244.765 188.606, 237 186.611 C 235.625 186.258, 236.824 187.058, 239.665 188.390 M 359.425 189.547 C 359.059 191.497, 359.039 193.372, 359.380 193.713 C 359.721 194.054, 360 193.395, 360 192.248 C 360 187.046, 360.145 187, 376.502 187 L 391.789 187 390.919 190.750 C 390.440 192.813, 390.086 195.625, 390.133 197 C 390.180 198.375, 390.759 196.800, 391.419 193.500 C 392.080 190.200, 392.454 187.162, 392.251 186.750 C 392.048 186.338, 384.729 186, 375.986 186 L 360.091 186 359.425 189.547 M 458 191 C 457.326 193.809, 456.973 196.307, 457.217 196.550 C 457.460 196.793, 458.193 194.676, 458.846 191.846 C 459.499 189.016, 459.852 186.519, 459.630 186.296 C 459.407 186.074, 458.674 188.191, 458 191 M 174.122 187.866 C 172.255 188.389, 171.121 190.228, 168.841 196.424 C 167.245 200.765, 166.065 204.611, 166.219 204.973 C 166.374 205.334, 167.625 205.308, 169 204.914 C 171.263 204.267, 171.295 204.190, 169.338 204.100 L 167.177 204 169.838 196.538 L 172.500 189.075 177.500 188.156 C 180.733 187.562, 181.440 187.231, 179.500 187.218 C 177.850 187.208, 175.430 187.499, 174.122 187.866 M 468.750 187.716 C 466.226 188.099, 463.176 191.509, 464.328 192.661 C 464.597 192.930, 465.098 192.266, 465.442 191.184 C 465.910 189.707, 467.490 188.973, 471.783 188.237 C 477.222 187.304, 474.525 186.841, 468.750 187.716 M 689.125 187 C 689.105 187.275, 689.713 189.750, 690.477 192.500 C 691.318 195.528, 691.874 196.514, 691.887 195 C 691.906 192.972, 689.252 185.287, 689.125 187 M 294.744 192.395 C 290.005 195.249, 289.050 195.528, 288.753 194.145 C 288.534 193.121, 288.189 193.538, 287.839 195.250 C 287.225 198.258, 289.249 199.165, 290.718 196.540 C 291.167 195.737, 294.002 193.720, 297.017 192.058 C 300.033 190.396, 302.024 189.028, 301.441 189.018 C 300.859 189.008, 297.845 190.528, 294.744 192.395 M 340.114 192.768 C 342.652 195.058, 345.300 198.311, 345.999 199.998 C 346.698 201.684, 347.467 202.867, 347.708 202.625 C 349.019 201.315, 342.889 193.245, 338.481 190.477 C 336.574 189.280, 337.162 190.105, 340.114 192.768 M 538.689 191.934 C 542.087 195.326, 542.941 198.502, 541.871 203.755 C 541.507 205.546, 541.611 207.260, 542.104 207.564 C 542.966 208.097, 543.444 203.124, 543.015 198.069 C 542.751 194.951, 540.301 191.219, 537.608 189.834 C 536.171 189.095, 536.515 189.763, 538.689 191.934 M 553.545 194.545 C 553.163 197.096, 553.055 199.388, 553.305 199.638 C 553.555 199.888, 554.072 198.005, 554.455 195.455 C 554.837 192.904, 554.945 190.612, 554.695 190.362 C 554.445 190.112, 553.928 191.995, 553.545 194.545 M 585.500 195 C 585.112 197.820, 585.006 200.339, 585.264 200.597 C 585.522 200.856, 586.041 198.749, 586.417 195.917 C 586.792 193.084, 586.899 190.565, 586.653 190.319 C 586.407 190.073, 585.888 192.180, 585.500 195 M 395.786 196.006 C 395.543 197.659, 395.567 199.234, 395.839 199.506 C 396.111 199.778, 398.702 200, 401.597 200 C 406.261 200, 406.910 200.257, 407.294 202.250 C 407.666 204.179, 407.747 204.108, 407.864 201.750 C 407.998 199.049, 407.896 199, 402.173 199 L 396.346 199 396.787 196 C 397.029 194.350, 397.002 193, 396.727 193 C 396.452 193, 396.028 194.353, 395.786 196.006 M 621.017 197.694 C 619.875 200.276, 618.711 203.539, 618.430 204.944 C 617.975 207.219, 619.552 203.936, 622.844 195.750 C 624.705 191.125, 623.228 192.696, 621.017 197.694 M 728.500 200 C 725.750 201.015, 724.006 201.880, 724.624 201.922 C 725.243 201.965, 727.662 201.325, 730 200.500 C 732.338 199.675, 734.425 199, 734.638 199 C 734.850 199, 734.790 200.912, 734.505 203.250 C 733.931 207.943, 734.372 207.456, 735.860 201.750 C 737.023 197.294, 736.300 197.122, 728.500 200 M 763.659 199.919 C 757.398 203.111, 749.550 209.683, 739.523 220.129 C 731.703 228.277, 729.986 229.644, 729.921 227.775 C 729.850 225.716, 729.745 225.767, 728.817 228.313 C 728.253 229.859, 728.064 231.397, 728.397 231.731 C 728.730 232.064, 734.515 226.706, 741.251 219.825 C 753.704 207.104, 759.335 202.621, 766.500 199.722 C 768.700 198.831, 769.808 198.080, 768.961 198.052 C 768.115 198.023, 765.729 198.864, 763.659 199.919 M 779.107 200.931 C 780.973 203.454, 781.196 204.741, 780.717 210.181 C 780.364 214.185, 780.453 215.401, 780.961 213.500 C 782.509 207.709, 782.118 202.504, 779.961 200.189 C 777.048 197.062, 776.560 197.486, 779.107 200.931 M 839.972 199.983 C 842.432 201.148, 844.770 202.628, 845.168 203.272 C 845.566 203.915, 846.167 204.167, 846.503 203.830 C 847.411 202.923, 841.825 199.229, 838.439 198.498 C 836.265 198.029, 836.664 198.415, 839.972 199.983 M 258.636 203.636 C 258.283 206.216, 258.186 208.520, 258.422 208.755 C 258.657 208.991, 259.163 207.096, 259.545 204.545 C 259.928 201.995, 260.025 199.691, 259.760 199.427 C 259.496 199.162, 258.990 201.057, 258.636 203.636 M 439.607 200.582 C 439.273 201.452, 439.059 203.364, 439.132 204.832 C 439.241 207.056, 439.366 206.918, 439.882 204 L 440.500 200.500 449 199.936 L 457.500 199.373 448.857 199.186 C 441.783 199.034, 440.104 199.287, 439.607 200.582 M 813.500 202.276 C 804.151 207.298, 794.095 217.957, 789.176 228.058 C 786.915 232.701, 784.822 238.300, 784.524 240.500 C 784.095 243.677, 784.360 243.266, 785.811 238.500 C 790.830 222.013, 802.629 208.149, 817.327 201.467 C 820.172 200.173, 821.825 199.101, 821 199.084 C 820.175 199.067, 816.800 200.504, 813.500 202.276 M 356.111 207.611 C 355.412 211.771, 355.036 215.369, 355.275 215.608 C 355.514 215.847, 356.290 212.649, 357 208.500 C 357.710 204.351, 358.086 200.753, 357.836 200.503 C 357.586 200.253, 356.810 203.452, 356.111 207.611 M 179 202.052 C 177.380 202.604, 178.613 202.701, 182.500 202.327 C 185.800 202.009, 188.688 201.581, 188.917 201.375 C 189.726 200.647, 181.466 201.211, 179 202.052 M 300.500 201.713 C 299.400 201.978, 298.088 202.585, 297.585 203.062 C 297.082 203.539, 298.382 203.457, 300.474 202.880 C 302.566 202.302, 305.902 202.128, 307.889 202.493 C 312.081 203.263, 316.948 207.454, 317.116 210.437 C 317.206 212.036, 317.332 212.120, 317.678 210.809 C 318.327 208.349, 315.388 204.412, 311.540 202.586 C 308.278 201.038, 304.536 200.742, 300.500 201.713 M 388.019 207.398 C 387.346 210.966, 386.985 214.455, 387.217 215.150 C 387.449 215.846, 388.184 213.111, 388.851 209.073 C 390.361 199.930, 389.685 198.569, 388.019 207.398 M 473.500 202.051 C 471.527 202.587, 472.555 202.674, 476.500 202.308 C 479.800 202.001, 482.688 201.581, 482.917 201.375 C 483.661 200.706, 476.585 201.214, 473.500 202.051 M 508.750 202.220 C 511.410 203.503, 511.828 208.068, 509.466 210.028 C 508.622 210.729, 505.584 211.908, 502.716 212.649 L 497.500 213.996 501.913 213.571 C 504.341 213.338, 507.491 212.282, 508.913 211.224 C 513.169 208.062, 512.613 200.881, 508.128 201.068 C 506.962 201.116, 507.138 201.443, 508.750 202.220 M 819.756 203.569 C 817.697 204.918, 813.992 208.596, 811.522 211.743 C 807.199 217.250, 800.976 227.859, 801.023 229.640 C 801.035 230.113, 802.503 227.800, 804.285 224.500 C 810.200 213.547, 817.107 205.765, 823.489 202.866 C 825.933 201.756, 826.719 201.058, 825.500 201.081 C 824.400 201.101, 821.815 202.221, 819.756 203.569 M 831.980 202.284 C 835.613 204.123, 837.173 207.763, 836.537 212.919 C 835.522 221.144, 830.248 227.685, 820.500 232.809 C 818.300 233.965, 817.084 234.931, 817.798 234.956 C 820.050 235.032, 829.655 228.319, 832.351 224.784 C 835.762 220.312, 838 214.812, 838 210.900 C 838 206.576, 834.426 200.996, 831.668 201.015 C 829.606 201.029, 829.621 201.091, 831.980 202.284 M 716 203.500 C 713.525 204.217, 712.400 204.813, 713.500 204.825 C 714.600 204.837, 717.300 204.253, 719.500 203.528 C 724.679 201.821, 721.872 201.799, 716 203.500 M 583.019 209.398 C 582.346 212.966, 581.985 216.455, 582.217 217.150 C 582.449 217.846, 583.184 215.111, 583.851 211.073 C 585.361 201.930, 584.685 200.569, 583.019 209.398 M 348.500 213.596 C 348.500 218.833, 348.793 222.079, 349.150 220.809 C 350.015 217.738, 350.034 207.941, 349.180 205.787 C 348.806 204.845, 348.500 208.359, 348.500 213.596 M 247.500 210 C 247.112 212.820, 247.006 215.339, 247.264 215.597 C 247.522 215.856, 248.041 213.749, 248.417 210.917 C 248.792 208.084, 248.899 205.565, 248.653 205.319 C 248.407 205.073, 247.888 207.180, 247.500 210 M 51.447 211.580 C 51.063 214.649, 51.143 219.024, 51.625 221.303 C 52.354 224.755, 52.506 223.824, 52.534 215.723 C 52.552 210.375, 52.472 206, 52.356 206 C 52.239 206, 51.830 208.511, 51.447 211.580 M 550.636 210.636 C 550.283 213.216, 550.186 215.520, 550.422 215.755 C 550.657 215.991, 551.163 214.096, 551.545 211.545 C 551.928 208.995, 552.025 206.691, 551.760 206.427 C 551.496 206.162, 550.990 208.057, 550.636 210.636 M 759.441 208.470 C 757.688 209.798, 757.817 209.824, 760.771 208.743 C 763.334 207.805, 764.471 207.813, 766.021 208.781 C 767.110 209.461, 768 209.611, 768 209.115 C 768 206.802, 762.220 206.366, 759.441 208.470 M 217 208.917 C 217 209.905, 210.089 212.676, 206 213.329 C 203.806 213.679, 203.867 213.742, 206.500 213.842 C 209.941 213.973, 218 210.614, 218 209.049 C 218 208.472, 217.775 208, 217.500 208 C 217.225 208, 217 208.413, 217 208.917 M 616.128 212.405 C 615.508 214.869, 615.036 217.924, 615.079 219.193 C 615.123 220.462, 615.787 218.602, 616.556 215.059 C 618.153 207.691, 617.827 205.661, 616.128 212.405 M 716 208.900 L 720.500 209.500 720.356 214.500 C 720.256 217.965, 720.464 218.886, 721.035 217.500 C 721.489 216.400, 721.891 214.086, 721.930 212.357 C 722.010 208.771, 720.652 207.926, 715.168 208.150 C 711.622 208.295, 711.650 208.320, 716 208.900 M 540.180 215.457 C 539.531 218.689, 539.042 222.271, 539.094 223.417 C 539.146 224.563, 539.817 222.350, 540.585 218.500 C 541.354 214.650, 541.842 211.068, 541.671 210.540 C 541.500 210.013, 540.829 212.225, 540.180 215.457 M 748.256 216.870 C 739.554 224.578, 727 237.399, 727 238.578 C 727 239.003, 733.413 233.106, 741.250 225.474 C 749.087 217.842, 755.928 211.238, 756.450 210.799 C 756.972 210.359, 757.088 210, 756.706 210 C 756.325 210, 752.522 213.091, 748.256 216.870 M 404.636 215.636 C 404.283 218.216, 404.186 220.520, 404.422 220.755 C 404.657 220.991, 405.163 219.096, 405.545 216.545 C 405.928 213.995, 406.025 211.691, 405.760 211.427 C 405.496 211.162, 404.990 213.057, 404.636 215.636 M 436.455 217.455 C 436.072 220.005, 435.984 222.317, 436.259 222.592 C 436.534 222.867, 437.072 221.005, 437.455 218.455 C 437.837 215.904, 437.925 213.592, 437.650 213.317 C 437.375 213.042, 436.837 214.904, 436.455 217.455 M 691.168 216.125 C 691.076 217.569, 690.763 220.269, 690.473 222.125 C 689.991 225.216, 690.037 225.293, 691.021 223.034 C 691.612 221.678, 691.924 218.978, 691.716 217.034 C 691.441 214.481, 691.290 214.228, 691.168 216.125 M 180 216 C 176.597 216.716, 176.583 216.738, 179.500 216.781 C 181.150 216.805, 184.750 216.474, 187.500 216.046 L 192.500 215.267 188 215.265 C 185.525 215.264, 181.925 215.595, 180 216 M 474.500 216 L 470.500 216.716 474 216.784 C 475.925 216.821, 479.525 216.491, 482 216.051 L 486.500 215.250 482.500 215.267 C 480.300 215.276, 476.700 215.606, 474.500 216 M 766.208 220.742 C 764.670 228.077, 765.251 228.508, 767.207 221.481 C 768.052 218.444, 768.439 215.771, 768.066 215.541 C 767.693 215.310, 766.857 217.651, 766.208 220.742 M 92.001 216.800 C 92 218.835, 94.580 223.285, 97.155 225.688 C 100.219 228.546, 107.832 231.968, 111 231.911 C 112.602 231.881, 111.812 231.411, 108.803 230.601 C 101.975 228.762, 96.618 224.827, 94.146 219.832 C 92.966 217.449, 92.001 216.085, 92.001 216.800 M 255.545 220.545 C 255.163 223.096, 255.075 225.408, 255.350 225.683 C 255.625 225.958, 256.163 224.096, 256.545 221.545 C 256.928 218.995, 257.016 216.683, 256.741 216.408 C 256.466 216.133, 255.928 217.995, 255.545 220.545 M 317 217.840 C 317 221.057, 313.498 227.463, 310.412 229.890 C 304.396 234.622, 293.512 234.459, 289.310 229.574 C 288.039 228.097, 287 227.324, 287 227.855 C 287 229.671, 292.850 233.749, 296.414 234.418 C 301.066 235.291, 307.140 233.594, 311.004 230.343 C 315.023 226.962, 319.573 218.173, 318.078 216.678 C 317.307 215.907, 317 216.238, 317 217.840 M 847.541 218.886 C 846.504 223.508, 839.708 230.044, 831.910 233.917 C 828.384 235.668, 826.625 236.796, 828 236.422 C 832.361 235.238, 837.964 232.027, 841.942 228.433 C 845.958 224.806, 849.439 218.780, 848.718 216.705 C 848.488 216.042, 847.958 217.023, 847.541 218.886 M 245 224.500 C 244.290 228.649, 243.914 232.247, 244.164 232.497 C 244.414 232.747, 245.190 229.548, 245.889 225.389 C 246.588 221.229, 246.964 217.631, 246.725 217.392 C 246.486 217.153, 245.710 220.351, 245 224.500 M 353.583 222.083 C 353.208 224.916, 353.101 227.435, 353.347 227.681 C 353.593 227.927, 354.112 225.820, 354.500 223 C 354.888 220.180, 354.994 217.661, 354.736 217.403 C 354.478 217.144, 353.959 219.251, 353.583 222.083 M 462.286 218.451 C 442.791 224.543, 437.715 242.499, 453.200 250.589 C 457.777 252.980, 457.629 252.151, 452.946 249.171 C 447.135 245.473, 445.929 243.888, 445.288 239.108 C 444.589 233.896, 447.758 227.320, 452.526 224.093 C 454.482 222.769, 459.102 220.667, 462.791 219.422 C 469.888 217.028, 469.462 216.208, 462.286 218.451 M 778.083 221.583 C 777.438 224.146, 777.097 226.431, 777.327 226.660 C 777.556 226.889, 778.271 224.980, 778.917 222.417 C 779.562 219.854, 779.903 217.569, 779.673 217.340 C 779.444 217.111, 778.729 219.020, 778.083 221.583 M 164 220.081 C 158.885 222.396, 154.477 226.245, 152.411 230.200 C 150.020 234.777, 150.849 234.629, 153.829 229.946 C 157.408 224.322, 158.640 223.336, 165.724 220.422 C 168.901 219.116, 170.825 218.047, 170 218.046 C 169.175 218.045, 166.475 218.961, 164 220.081 M 597.166 229.450 C 597.075 234.372, 597.361 237.972, 597.801 237.450 C 598.242 236.928, 598.316 232.900, 597.967 228.500 L 597.331 220.500 597.166 229.450 M 718.154 226.154 C 717.501 228.984, 717.148 231.481, 717.370 231.704 C 717.593 231.926, 718.326 229.809, 719 227 C 719.674 224.191, 720.027 221.693, 719.783 221.450 C 719.540 221.207, 718.807 223.324, 718.154 226.154 M 209 223.078 C 207.063 223.759, 207.372 223.834, 210.374 223.410 L 214.248 222.863 213.556 226.555 C 212.624 231.520, 211.294 233.433, 207.067 235.885 C 205.105 237.023, 204.187 237.964, 205.027 237.977 C 207.141 238.009, 212.800 232.657, 214.005 229.487 C 216.496 222.935, 214.969 220.980, 209 223.078 M 384.500 227 C 384.112 229.820, 384.020 232.353, 384.295 232.628 C 384.570 232.903, 385.112 230.820, 385.500 228 C 385.888 225.180, 385.980 222.647, 385.705 222.372 C 385.430 222.097, 384.888 224.180, 384.500 227 M 503 223.078 C 500.975 223.790, 501.196 223.861, 504.157 223.450 C 506.591 223.114, 507.987 223.372, 508.328 224.222 C 508.649 225.019, 508.872 224.841, 508.921 223.750 C 509.007 221.848, 507.111 221.633, 503 223.078 M 547.636 227.636 C 547.283 230.216, 547.186 232.520, 547.422 232.755 C 547.657 232.991, 548.163 231.096, 548.545 228.545 C 548.928 225.995, 549.025 223.691, 548.760 223.427 C 548.496 223.162, 547.990 225.057, 547.636 227.636 M 614.343 230.500 C 614.346 234.900, 614.522 236.576, 614.733 234.224 C 614.945 231.872, 614.942 228.272, 614.727 226.224 C 614.512 224.176, 614.339 226.100, 614.343 230.500 M 192.500 226.051 C 191.154 226.664, 192.134 226.762, 195.500 226.352 C 198.250 226.018, 200.688 225.576, 200.917 225.372 C 201.794 224.589, 194.401 225.185, 192.500 226.051 M 485.012 226.532 C 480.863 227.824, 478 230.157, 478 232.247 C 478 232.722, 479.012 231.949, 480.250 230.529 C 481.851 228.691, 484.374 227.545, 489 226.553 C 492.680 225.764, 494.198 225.154, 492.500 225.146 C 490.850 225.139, 487.481 225.763, 485.012 226.532 M 579.706 227.875 C 579.318 229.731, 579.049 232.431, 579.110 233.875 C 579.182 235.605, 579.525 234.966, 580.117 232 C 580.611 229.525, 580.880 226.825, 580.713 226 C 580.547 225.175, 580.094 226.019, 579.706 227.875 M 53.009 226.290 C 53.004 226.724, 53.862 228.769, 54.916 230.835 C 57.194 235.300, 63.903 241.696, 70.063 245.274 C 74.730 247.984, 87.788 252.545, 88.589 251.744 C 88.847 251.487, 86.907 250.696, 84.279 249.986 C 71.966 246.663, 60.771 239.017, 55.976 230.655 C 54.349 227.820, 53.015 225.855, 53.009 226.290 M 537 233.500 C 536.290 237.649, 535.936 241.270, 536.214 241.547 C 536.491 241.824, 537.270 238.628, 537.944 234.444 C 538.619 230.261, 538.973 226.640, 538.731 226.398 C 538.489 226.155, 537.710 229.351, 537 233.500 M 401.636 231.636 C 401.283 234.216, 401.186 236.520, 401.422 236.755 C 401.657 236.991, 402.163 235.096, 402.545 232.545 C 402.928 229.995, 403.025 227.691, 402.760 227.427 C 402.496 227.162, 401.990 229.057, 401.636 231.636 M 185.655 229.829 C 184.745 230.835, 184 232.602, 184 233.757 C 184 236.028, 186.434 239, 188.294 239 C 188.927 239, 188.445 238.299, 187.223 237.443 C 184.591 235.600, 184.350 232.375, 186.655 229.829 C 187.565 228.823, 188.085 228, 187.810 228 C 187.535 228, 186.565 228.823, 185.655 229.829 M 144.340 233.751 C 144.204 237.785, 144.299 238.048, 144.971 235.500 C 146.047 231.424, 146.151 229, 145.250 229.001 C 144.838 229.001, 144.428 231.139, 144.340 233.751 M 433.545 233.545 C 433.163 236.096, 433.055 238.388, 433.305 238.638 C 433.555 238.888, 434.072 237.005, 434.455 234.455 C 434.837 231.904, 434.945 229.612, 434.695 229.362 C 434.445 229.112, 433.928 230.995, 433.545 233.545 M 133.500 231 L 128.500 231.686 133 231.725 C 135.475 231.746, 138.850 231.420, 140.500 231 C 143.133 230.330, 143.194 230.241, 141 230.275 C 139.625 230.297, 136.250 230.623, 133.500 231 M 505.184 232.077 C 504.501 233.170, 502.493 234.948, 500.722 236.028 C 498.950 237.109, 497.897 237.994, 498.382 237.996 C 500.052 238.003, 505.803 233.957, 506.424 232.337 C 507.342 229.946, 506.611 229.793, 505.184 232.077 M 685.879 237.068 C 684.438 240.858, 683.592 243.752, 683.999 243.500 C 684.931 242.925, 689.405 231.069, 688.884 230.557 C 688.673 230.349, 687.321 233.279, 685.879 237.068 M 252.614 236.867 C 252.222 239.818, 252.114 242.447, 252.375 242.708 C 253.042 243.375, 254.304 234.411, 253.768 232.813 C 253.526 232.091, 253.007 233.915, 252.614 236.867 M 342.590 234.825 C 341.787 236.379, 339.300 239.303, 337.065 241.323 C 334.829 243.342, 333 245.315, 333 245.706 C 333 246.991, 342.128 237.562, 343.606 234.750 C 344.401 233.238, 344.826 232, 344.551 232 C 344.276 232, 343.394 233.271, 342.590 234.825 M 714.650 241.150 C 713.657 245.566, 713.031 249.365, 713.259 249.592 C 713.486 249.819, 714.494 246.403, 715.500 242 C 716.506 237.597, 717.132 233.798, 716.891 233.558 C 716.651 233.318, 715.643 236.734, 714.650 241.150 M 809 236.542 C 804.248 237.635, 803.976 237.814, 807 237.858 C 808.925 237.887, 811.850 237.292, 813.500 236.536 C 817.121 234.878, 816.226 234.879, 809 236.542 M 818 238.500 C 815.525 239.217, 814.400 239.813, 815.500 239.825 C 816.600 239.837, 819.300 239.253, 821.500 238.528 C 826.679 236.821, 823.872 236.799, 818 238.500 M 195 239 L 189.500 239.674 195 239.822 C 198.025 239.903, 201.175 239.533, 202 239 C 203.721 237.888, 204.074 237.888, 195 239 M 241.494 243.033 C 240.998 245.972, 241.251 247.735, 242.430 249.533 L 244.046 252 228.023 252 L 212 252 212 248.559 C 212 244.144, 211.272 243.779, 207 246.053 C 205.075 247.078, 203.860 247.935, 204.300 247.958 C 204.739 247.981, 206.427 247.313, 208.050 246.474 L 211 244.949 211 248.974 L 211 253 228.573 253 L 246.145 253 244.038 250.321 C 242.325 248.143, 242.052 246.835, 242.579 243.321 C 243.398 237.860, 242.413 237.598, 241.494 243.033 M 381.500 244 C 381.112 246.820, 381.006 249.339, 381.264 249.597 C 381.522 249.856, 382.041 247.749, 382.417 244.917 C 382.792 242.084, 382.899 239.565, 382.653 239.319 C 382.407 239.073, 381.888 241.180, 381.500 244 M 485.768 239.725 C 487.565 239.947, 490.265 239.943, 491.768 239.715 C 493.271 239.486, 491.800 239.304, 488.500 239.310 C 485.200 239.315, 483.971 239.502, 485.768 239.725 M 700.022 243.207 C 697.372 248.320, 692.178 254.860, 686 260.859 C 682.443 264.313, 682.171 264.779, 684.701 263.081 C 690.312 259.317, 704.296 240.963, 702.740 239.407 C 702.469 239.136, 701.246 240.846, 700.022 243.207 M 349.545 244.545 C 349.163 247.096, 349.055 249.388, 349.305 249.638 C 349.555 249.888, 350.072 248.005, 350.455 245.455 C 350.837 242.904, 350.945 240.612, 350.695 240.362 C 350.445 240.112, 349.928 241.995, 349.545 244.545 M 544.545 244.545 C 544.163 247.096, 544.055 249.388, 544.305 249.638 C 544.555 249.888, 545.072 248.005, 545.455 245.455 C 545.837 242.904, 545.945 240.612, 545.695 240.362 C 545.445 240.112, 544.928 241.995, 544.545 244.545 M 615.478 242.937 C 617.063 252.896, 625.461 264.121, 634.709 268.646 C 640.536 271.497, 649.897 272.258, 654.903 270.288 C 656.591 269.624, 654.776 269.475, 648.812 269.788 C 641.861 270.153, 639.508 269.876, 635.858 268.261 C 626.910 264.303, 620.737 256.818, 616.842 245.202 C 615.634 241.598, 615.132 240.765, 615.478 242.937 M 800.500 240.892 L 796.500 241.500 796.426 248.254 L 796.352 255.008 796.718 248.654 L 797.085 242.300 804.792 241.304 C 809.129 240.745, 810.750 240.304, 808.500 240.297 C 806.300 240.290, 802.700 240.557, 800.500 240.892 M 151 241.307 C 151 244.282, 157.441 250.191, 162 251.401 C 163.726 251.858, 163.368 251.442, 160.842 250.055 C 158.830 248.950, 155.793 246.359, 154.092 244.295 C 152.391 242.232, 151 240.888, 151 241.307 M 576.503 246.982 L 575.800 252.092 559.399 251.796 C 550.378 251.633, 542.998 251.838, 542.999 252.250 C 542.999 252.662, 550.592 253, 559.871 253 L 576.742 253 577.421 247.883 C 577.794 245.069, 577.899 242.565, 577.653 242.319 C 577.407 242.073, 576.889 244.171, 576.503 246.982 M 399 245.375 C 399 246.131, 398.719 248.156, 398.375 249.875 L 397.750 253 414.296 253 L 430.841 253 431.516 249.928 C 431.887 248.239, 431.982 246.649, 431.727 246.394 C 431.472 246.139, 430.991 247.296, 430.657 248.965 L 430.050 252 414.513 252 L 398.976 252 399.616 248 C 399.968 245.800, 399.973 244, 399.628 244 C 399.283 244, 399 244.619, 399 245.375 M 502.403 244.997 C 501.855 245.545, 497.828 247.354, 493.453 249.017 C 489.079 250.679, 487.012 251.759, 488.860 251.416 C 490.708 251.073, 494.658 249.714, 497.638 248.396 C 500.619 247.078, 503.494 246, 504.029 246 C 504.563 246, 505 247.575, 505 249.500 L 505 253 522 253 C 531.350 253, 539 252.605, 539 252.122 C 539 251.640, 538.325 250.685, 537.500 250 C 536.675 249.315, 535.939 247.573, 535.864 246.128 C 535.746 243.848, 535.671 243.791, 535.301 245.698 C 535.066 246.908, 535.369 248.820, 535.972 249.948 C 537.058 251.976, 536.891 252, 521.535 252 L 506 252 506 249.582 C 506 244.865, 504.477 242.923, 502.403 244.997 M 599.025 245 C 599.012 245.825, 600.310 249.265, 601.909 252.645 C 605.015 259.211, 610.365 265.766, 615.404 269.181 C 617.107 270.335, 616.170 269.185, 613.323 266.626 C 607.528 261.417, 604.738 257.334, 601.354 249.108 C 600.086 246.024, 599.037 244.175, 599.025 245 M 141.587 248.386 C 141.200 250.453, 140.237 252.049, 139.217 252.317 C 137.900 252.663, 137.998 252.795, 139.639 252.884 C 141.336 252.976, 141.917 252.257, 142.453 249.398 C 142.825 247.417, 142.929 245.596, 142.685 245.351 C 142.440 245.107, 141.946 246.473, 141.587 248.386 M 284.498 246.953 C 286.429 249.131, 291.907 252.483, 292.455 251.824 C 292.603 251.646, 290.423 249.970, 287.612 248.101 C 283.874 245.616, 283.037 245.307, 284.498 246.953 M 680.456 248.762 C 679.380 250.788, 675.767 255.244, 672.426 258.664 C 669.086 262.083, 667.089 264.487, 667.989 264.006 C 671.709 262.015, 684.027 246.694, 682.852 245.519 C 682.610 245.277, 681.532 246.737, 680.456 248.762 M 783.300 250 C 783.300 253.025, 783.487 254.262, 783.716 252.750 C 783.945 251.238, 783.945 248.762, 783.716 247.250 C 783.487 245.738, 783.300 246.975, 783.300 250 M 281.672 249.891 C 281.302 251.738, 281.049 254.206, 281.110 255.375 C 281.170 256.544, 281.618 255.475, 282.105 253 C 282.592 250.525, 282.845 248.057, 282.667 247.516 C 282.489 246.974, 282.041 248.043, 281.672 249.891 M 195 250.567 L 191.500 251.982 195 251.376 C 198.967 250.690, 202.631 249.026, 200 249.106 C 199.175 249.132, 196.925 249.789, 195 250.567 M 249.545 254.545 C 249.163 257.096, 249.055 259.388, 249.305 259.638 C 249.555 259.888, 250.072 258.005, 250.455 255.455 C 250.837 252.904, 250.945 250.612, 250.695 250.362 C 250.445 250.112, 249.928 251.995, 249.545 254.545 M 347.998 252.250 C 347.999 252.662, 355.538 252.915, 364.750 252.811 C 381.720 252.619, 379.727 252.240, 359.248 251.762 C 353.059 251.618, 347.997 251.838, 347.998 252.250 M 92.500 252.961 C 95.555 253.778, 103.675 254.301, 102.917 253.633 C 102.688 253.430, 99.575 253.016, 96 252.712 C 91.904 252.364, 90.610 252.456, 92.500 252.961 M 171.250 253.366 C 175.067 253.857, 180.933 253.857, 184.750 253.366 C 190.825 252.584, 190.150 252.497, 178 252.497 C 165.850 252.497, 165.175 252.584, 171.250 253.366 M 296.199 253.150 C 299.123 253.977, 313.563 253.964, 317.448 253.132 C 319.069 252.784, 314.434 252.500, 307.147 252.500 C 299.860 252.500, 294.934 252.793, 296.199 253.150 M 461.604 253.192 C 463.747 253.573, 468.200 253.885, 471.500 253.885 C 474.800 253.885, 479.253 253.573, 481.396 253.192 C 483.710 252.781, 479.693 252.500, 471.500 252.500 C 463.307 252.500, 459.290 252.781, 461.604 253.192 M 834.839 256.896 C 822.594 269.603, 807.011 270.559, 799.274 259.078 C 796.885 255.533, 796.201 255.638, 798.135 259.253 C 804.746 271.605, 824.270 270.589, 835.983 257.282 C 840.677 251.949, 842.440 252.230, 838.791 257.730 C 835.393 262.849, 830.358 267.665, 825.250 270.681 C 820.246 273.635, 819.574 274.781, 824.250 272.387 C 828.862 270.025, 833.900 265.474, 838.250 259.742 C 844.837 251.061, 842.412 249.038, 834.839 256.896 M 125.776 253.733 C 128.128 253.945, 131.728 253.942, 133.776 253.727 C 135.824 253.512, 133.900 253.339, 129.500 253.343 C 125.100 253.346, 123.424 253.522, 125.776 253.733 M 107.768 254.725 C 109.565 254.947, 112.265 254.943, 113.768 254.715 C 115.271 254.486, 113.800 254.304, 110.500 254.310 C 107.200 254.315, 105.971 254.502, 107.768 254.725 M 768.449 256.345 C 768.126 257.635, 768.005 260.448, 768.180 262.595 C 768.452 265.914, 768.875 266.543, 771 266.786 C 773.752 267.101, 778.417 263.416, 781.563 258.443 C 782.586 256.824, 781.262 257.863, 778.619 260.750 C 775.250 264.431, 773.059 266, 771.287 266 C 768.816 266, 768.769 265.865, 769.194 260 C 769.653 253.649, 769.417 252.490, 768.449 256.345 M 754.545 263.549 C 753.644 269.559, 754.664 273.776, 757.331 275.063 C 759.465 276.093, 759.468 276.085, 757.500 274.507 C 755.816 273.157, 755.522 271.803, 755.639 265.952 C 755.716 262.128, 755.655 259, 755.503 259 C 755.351 259, 754.920 261.047, 754.545 263.549 M 779.500 264.631 C 775.091 270.786, 771.583 273.666, 766.115 275.620 C 763.931 276.401, 763.292 276.923, 764.500 276.940 C 768.013 276.988, 774.246 272.667, 778.839 267 C 783.561 261.175, 785 260.033, 785 262.113 C 785 264.144, 789.952 270.744, 792.853 272.580 C 794.688 273.741, 794.184 272.888, 791.209 269.798 C 788.849 267.347, 786.575 264.056, 786.155 262.486 C 785.735 260.915, 784.965 259.499, 784.445 259.338 C 783.925 259.178, 781.700 261.560, 779.500 264.631 M 278.672 266.891 C 278.302 268.738, 278.049 271.206, 278.110 272.375 C 278.170 273.544, 278.618 272.475, 279.105 270 C 279.592 267.525, 279.845 265.057, 279.667 264.516 C 279.489 263.974, 279.041 265.043, 278.672 266.891 M 672 269.679 C 667.325 272.113, 664.625 273.798, 666 273.422 C 669.528 272.458, 679.729 267.247, 680.486 266.022 C 680.834 265.460, 680.979 265.057, 680.809 265.126 C 680.639 265.196, 676.675 267.244, 672 269.679 M 247 267.875 C 247 268.906, 246.719 271.156, 246.375 272.875 L 245.750 276 262.125 275.777 L 278.500 275.555 262.773 275.252 L 247.045 274.949 247.659 270.475 C 247.996 268.014, 247.986 266, 247.636 266 C 247.286 266, 247 266.844, 247 267.875 M 623.500 273.468 C 626.250 274.846, 629.400 275.965, 630.500 275.954 C 631.600 275.944, 630.250 275.118, 627.500 274.120 C 618.828 270.973, 618.375 270.899, 623.500 273.468 M 273.547 361.602 C 273.175 363.583, 273.071 365.404, 273.315 365.649 C 273.560 365.893, 274.053 364.530, 274.412 362.619 C 274.770 360.709, 275.612 358.923, 276.282 358.652 C 277.015 358.354, 276.848 358.126, 275.861 358.079 C 274.747 358.025, 274.006 359.153, 273.547 361.602 M 566.306 363.598 L 563.500 366.195 566.385 364.098 C 569.695 361.691, 574.751 361.366, 577.510 363.384 C 580.436 365.523, 579.895 371.834, 576.537 374.722 C 575.080 375.975, 574.285 377, 574.770 377 C 576.455 377, 579.788 372.481, 580.465 369.278 C 581.024 366.635, 580.692 365.601, 578.619 363.528 C 575.173 360.082, 570.072 360.111, 566.306 363.598 M 208.500 366.845 C 202.368 369.750, 195.679 376.085, 193.955 380.617 C 192.285 385.011, 192.910 384.562, 196.253 378.968 C 199.854 372.941, 206.575 367.857, 214 365.542 C 216.475 364.771, 217.600 364.108, 216.500 364.070 C 215.400 364.033, 211.800 365.281, 208.500 366.845 M 242.500 365.852 C 245.800 366.880, 249.400 368.014, 250.500 368.373 C 251.600 368.732, 250.700 368.157, 248.500 367.095 C 246.300 366.033, 242.700 364.899, 240.500 364.574 C 237.390 364.115, 237.835 364.400, 242.500 365.852 M 563.160 370.095 C 563.043 372.721, 563.606 374.203, 565.250 375.595 C 567.482 377.485, 567.487 377.484, 565.828 375.500 C 564.909 374.400, 563.968 371.925, 563.738 370 L 563.320 366.500 563.160 370.095 M 251.314 373.607 C 251.081 378.121, 250.891 378.289, 247.500 377 C 245.972 376.419, 244.530 376.137, 244.294 376.372 C 244.059 376.608, 245.501 377.340, 247.500 378 C 249.499 378.660, 251.277 379.042, 251.453 378.850 C 252.280 377.942, 253.075 370.001, 252.338 370.004 C 251.877 370.007, 251.416 371.628, 251.314 373.607 M 270.545 376.545 C 270.163 379.096, 270.055 381.388, 270.305 381.638 C 270.555 381.888, 271.072 380.005, 271.455 377.455 C 271.837 374.904, 271.945 372.612, 271.695 372.362 C 271.445 372.112, 270.928 373.995, 270.545 376.545 M 215.387 375.750 C 209.785 378.932, 208.057 380.619, 206.439 384.492 C 204.825 388.355, 205.130 394.344, 206.999 395.499 C 207.505 395.812, 207.429 394.661, 206.830 392.941 C 204.452 386.122, 209.887 378.077, 218.728 375.327 C 220.910 374.648, 221.650 374.121, 220.484 374.077 C 219.376 374.035, 217.082 374.788, 215.387 375.750 M 281.455 384.455 C 281.072 387.005, 280.984 389.317, 281.259 389.592 C 281.534 389.867, 282.072 388.005, 282.455 385.455 C 282.837 382.904, 282.925 380.592, 282.650 380.317 C 282.375 380.042, 281.837 381.904, 281.455 384.455 M 192.320 391 C 192.320 394.575, 192.502 396.038, 192.723 394.250 C 192.945 392.462, 192.945 389.538, 192.723 387.750 C 192.502 385.962, 192.320 387.425, 192.320 391 M 295.250 389.728 C 297.313 389.944, 300.688 389.944, 302.750 389.728 C 304.813 389.513, 303.125 389.336, 299 389.336 C 294.875 389.336, 293.188 389.513, 295.250 389.728 M 363.776 389.733 C 366.128 389.945, 369.728 389.942, 371.776 389.727 C 373.824 389.512, 371.900 389.339, 367.500 389.343 C 363.100 389.346, 361.424 389.522, 363.776 389.733 M 440.250 389.728 C 442.313 389.944, 445.688 389.944, 447.750 389.728 C 449.813 389.513, 448.125 389.336, 444 389.336 C 439.875 389.336, 438.188 389.513, 440.250 389.728 M 518.699 389.939 C 525.819 390.485, 527.398 390.966, 530.699 393.598 C 532.790 395.265, 535.337 398.313, 536.360 400.371 C 537.382 402.430, 538.464 403.870, 538.762 403.571 C 539.061 403.272, 537.999 400.919, 536.403 398.342 C 532.239 391.619, 526.783 388.954, 517.593 389.155 L 510.500 389.310 518.699 389.939 M 619.250 389.728 C 621.313 389.944, 624.688 389.944, 626.750 389.728 C 628.813 389.513, 627.125 389.336, 623 389.336 C 618.875 389.336, 617.188 389.513, 619.250 389.728 M 687.750 389.732 C 690.087 389.943, 693.913 389.943, 696.250 389.732 C 698.587 389.522, 696.675 389.349, 692 389.349 C 687.325 389.349, 685.413 389.522, 687.750 389.732 M 285.195 391.607 C 283.378 392.401, 281.465 392.787, 280.945 392.466 C 280.425 392.145, 280 392.359, 280 392.941 C 280 393.523, 280.563 393.975, 281.250 393.944 C 283.117 393.861, 291.744 390.108, 290 390.137 C 289.175 390.152, 287.013 390.813, 285.195 391.607 M 352.219 391.987 C 346.484 394.590, 339.136 402.325, 335.675 409.404 C 334.121 412.582, 333.018 415.351, 333.225 415.558 C 333.431 415.764, 334.885 413.228, 336.456 409.921 C 340.009 402.438, 346.114 396.144, 353.124 392.735 C 359.342 389.712, 358.594 389.094, 352.219 391.987 M 379.500 391.953 C 385.207 394.538, 388.859 398.874, 391.017 405.628 C 393.009 411.864, 393.718 411.125, 391.928 404.679 C 390.635 400.024, 384.655 393.178, 380.282 391.347 C 375.508 389.349, 374.860 389.851, 379.500 391.953 M 453.500 391.160 C 454.600 391.765, 457.243 393.889, 459.372 395.880 C 462.168 398.493, 462.926 398.879, 462.097 397.269 C 460.911 394.963, 454.313 389.977, 452.518 390.030 C 451.958 390.047, 452.400 390.556, 453.500 391.160 M 608.141 392.022 C 602.881 394.408, 603.249 394.393, 602.689 392.250 C 602.402 391.151, 602.189 391.502, 602.116 393.195 L 602 395.890 607.250 393.591 C 610.138 392.326, 613.175 391.036, 614 390.725 C 615.333 390.221, 615.333 390.152, 614 390.101 C 613.175 390.070, 610.538 390.934, 608.141 392.022 M 633.500 391.619 C 635.150 392.465, 637.814 394.585, 639.420 396.329 C 641.685 398.788, 641.998 398.938, 640.818 397 C 639.190 394.327, 633.425 389.974, 631.602 390.040 C 630.996 390.062, 631.850 390.773, 633.500 391.619 M 312.135 392.944 C 316.464 396.320, 318.340 400.135, 319.047 407 L 319.716 413.500 319.858 408.315 C 320.072 400.509, 317.029 394.516, 311.500 391.853 C 310.298 391.274, 310.551 391.709, 312.135 392.944 M 413.667 391.667 C 412.434 392.900, 412.960 394.278, 414.254 393.204 C 414.944 392.632, 417.081 391.974, 419.004 391.742 C 422.471 391.324, 422.466 391.319, 418.417 391.160 C 416.171 391.072, 414.033 391.300, 413.667 391.667 M 486.972 393.052 C 486.368 394.181, 486.075 395.869, 486.321 396.802 C 486.659 398.087, 486.796 397.983, 486.884 396.372 C 487.038 393.556, 488.759 392.254, 493.004 391.742 C 496.368 391.336, 496.341 391.314, 492.285 391.160 C 488.959 391.034, 487.839 391.433, 486.972 393.052 M 497.116 392.691 C 496.952 395.792, 497.892 395.895, 503 393.336 C 508.125 390.770, 507.721 390.254, 502.346 392.500 C 497.938 394.342, 498.240 394.358, 497.689 392.250 C 497.336 390.899, 497.206 390.999, 497.116 392.691 M 563.037 391.886 C 561.180 392.404, 560.375 393.531, 559.765 396.469 C 559.320 398.612, 559.131 400.846, 559.346 401.433 C 559.561 402.020, 560.066 400.407, 560.467 397.849 L 561.197 393.198 566.849 392.227 C 571.049 391.506, 571.601 391.249, 569 391.228 C 567.075 391.212, 564.392 391.508, 563.037 391.886 M 592.418 391.765 C 591.822 392.169, 590.810 395.163, 590.168 398.417 C 588.477 406.983, 588.942 407.691, 590.879 399.500 L 592.534 392.500 596.517 391.892 L 600.500 391.284 597 391.157 C 595.075 391.088, 593.013 391.361, 592.418 391.765 M 674.647 393.121 C 666.998 397.156, 658.837 407.503, 656.601 416 C 656.239 417.375, 657.327 415.575, 659.018 412 C 662.363 404.930, 670.248 396.499, 676.699 393.094 C 678.790 391.991, 680.050 391.088, 679.500 391.088 C 678.950 391.088, 676.766 392.003, 674.647 393.121 M 208.937 398.367 C 210.526 400.345, 219.196 405.013, 221.217 404.978 C 221.923 404.966, 220.555 404.073, 218.177 402.994 C 215.800 401.915, 212.425 400.030, 210.677 398.805 C 208.299 397.138, 207.862 397.028, 208.937 398.367 M 193.044 398.300 C 192.874 401.379, 198.778 407.914, 204 410.427 C 205.605 411.199, 203.744 409.559, 199.407 406.378 C 197.999 405.345, 196.001 402.925, 194.967 401 C 193.934 399.075, 193.069 397.860, 193.044 398.300 M 290.500 399 C 288.167 399.594, 288.977 399.790, 294.139 399.882 C 303.122 400.042, 305.245 401.777, 306.083 409.645 L 306.706 415.500 306.853 410.385 C 307.033 404.129, 304.615 400.543, 299.205 399.040 C 295.115 397.904, 294.811 397.903, 290.500 399 M 361.942 398.917 C 358.291 400.069, 355.136 401.864, 352.991 404.009 C 350.142 406.858, 347.656 410.989, 348.365 411.698 C 348.714 412.047, 349 411.824, 349 411.201 C 349 409.460, 354.960 403.072, 358.099 401.449 C 359.640 400.652, 363.391 400, 366.435 400 C 371.133 400, 372.460 400.440, 375.226 402.911 C 378.381 405.730, 378.503 406.133, 379.077 415.661 L 379.670 425.500 379.835 417.218 C 380.028 407.507, 378.455 402.804, 374.294 400.652 C 370.481 398.680, 365.091 397.923, 361.942 398.917 M 434.199 398.986 C 432.384 399.416, 430.584 400.101, 430.199 400.508 C 429.815 400.915, 430.498 400.942, 431.717 400.567 C 435.675 399.351, 443.658 399.772, 446.725 401.358 C 448.371 402.209, 450.292 404.291, 450.994 405.985 C 451.695 407.678, 452.467 408.867, 452.708 408.625 C 454.016 407.318, 449.422 401.641, 445.684 399.943 C 441.205 397.910, 439.385 397.758, 434.199 398.986 M 506 399.489 C 499.632 401.533, 497 403.104, 497 404.860 C 497 406.150, 497.191 406.129, 498.250 404.724 C 501.387 400.561, 513.773 398.421, 519.941 400.975 C 521.896 401.785, 523.671 403.756, 525.094 406.693 C 526.991 410.612, 527.198 412.327, 526.743 420.338 C 526.457 425.377, 525.914 430.400, 525.536 431.500 L 524.849 433.500 526.128 431.500 C 526.832 430.400, 527.592 425.405, 527.817 420.399 C 528.156 412.835, 527.883 410.525, 526.200 406.720 C 523.023 399.536, 514.906 396.631, 506 399.489 M 611.013 399.606 C 604.859 401.259, 601.005 403.438, 600.989 405.273 C 600.983 405.948, 600.770 408.300, 600.517 410.500 C 600.187 413.359, 600.409 412.937, 601.295 409.022 C 602.472 403.822, 602.762 403.457, 607.017 401.826 C 609.582 400.844, 614.408 400.085, 618.295 400.054 C 624.313 400.006, 625.388 400.297, 627.683 402.592 C 630.132 405.041, 630.247 405.606, 629.767 412.842 C 629.486 417.077, 629.604 419.383, 630.030 418 C 630.454 416.625, 630.845 413.198, 630.900 410.385 C 631.022 404.128, 628.584 400.534, 623.205 399.040 C 618.575 397.754, 617.764 397.792, 611.013 399.606 M 686.420 399.411 C 681.551 400.936, 676.587 404.439, 674.324 407.950 C 673.297 409.541, 674.560 408.754, 677.682 405.857 C 684.134 399.870, 690.696 398.110, 698.960 400.151 C 703.378 401.243, 704.552 401.977, 705.110 404 L 705.801 406.500 705.900 403.789 C 705.990 401.361, 705.457 400.916, 700.818 399.539 C 694.688 397.718, 691.906 397.693, 686.420 399.411 M 410.545 404.545 C 410.163 407.096, 410.055 409.388, 410.305 409.638 C 410.555 409.888, 411.072 408.005, 411.455 405.455 C 411.837 402.904, 411.945 400.612, 411.695 400.362 C 411.445 400.112, 410.928 401.995, 410.545 404.545 M 264.545 407.545 C 264.163 410.096, 264.055 412.388, 264.305 412.638 C 264.555 412.888, 265.072 411.005, 265.455 408.455 C 265.837 405.904, 265.945 403.612, 265.695 403.362 C 265.445 403.112, 264.928 404.995, 264.545 407.545 M 223 405.494 C 223 405.738, 225.405 407.116, 228.344 408.555 C 240.233 414.376, 244.252 420.402, 244.286 432.455 C 244.303 438.769, 244.500 439.855, 245.200 437.500 C 247.326 430.351, 244.063 419.125, 238.342 413.909 C 234.010 409.960, 223 403.921, 223 405.494 M 539.489 417.564 C 539.484 424.679, 539.768 429.150, 540.121 427.500 C 540.945 423.651, 540.952 411.375, 540.132 407.564 C 539.784 405.949, 539.495 410.449, 539.489 417.564 M 587.545 411.545 C 587.163 414.096, 587.075 416.408, 587.350 416.683 C 587.625 416.958, 588.163 415.096, 588.545 412.545 C 588.928 409.995, 589.016 407.683, 588.741 407.408 C 588.466 407.133, 587.928 408.995, 587.545 411.545 M 466.360 417 C 466.360 422.225, 466.529 424.363, 466.735 421.750 C 466.941 419.137, 466.941 414.863, 466.735 412.250 C 466.529 409.637, 466.360 411.775, 466.360 417 M 556.545 412.545 C 556.163 415.096, 556.055 417.388, 556.305 417.638 C 556.555 417.888, 557.072 416.005, 557.455 413.455 C 557.837 410.904, 557.945 408.612, 557.695 408.362 C 557.445 408.112, 556.928 409.995, 556.545 412.545 M 453.349 418 C 453.349 422.675, 453.522 424.587, 453.732 422.250 C 453.943 419.913, 453.943 416.087, 453.732 413.750 C 453.522 411.413, 453.349 413.325, 453.349 418 M 215 415.624 C 220.225 418.090, 225.766 421.321, 227.314 422.803 C 228.862 424.284, 229.867 424.822, 229.548 423.998 C 228.687 421.772, 222.657 417.953, 214.184 414.269 C 203.389 409.575, 203.866 410.367, 215 415.624 M 275.500 415 C 275.116 417.274, 275.026 419.360, 275.301 419.635 C 275.576 419.910, 276.116 418.274, 276.500 416 C 276.884 413.726, 276.974 411.640, 276.699 411.365 C 276.424 411.090, 275.884 412.726, 275.500 415 M 702.545 416.545 C 702.163 419.096, 702.055 421.388, 702.305 421.638 C 702.555 421.888, 703.072 420.005, 703.455 417.455 C 703.837 414.904, 703.945 412.612, 703.695 412.362 C 703.445 412.112, 702.928 413.995, 702.545 416.545 M 317.500 418 C 317.116 420.274, 317.026 422.360, 317.301 422.635 C 317.576 422.910, 318.116 421.274, 318.500 419 C 318.884 416.726, 318.974 414.640, 318.699 414.365 C 318.424 414.090, 317.884 415.726, 317.500 418 M 407.500 420 C 407.116 422.274, 407.026 424.360, 407.301 424.635 C 407.576 424.910, 408.116 423.274, 408.500 421 C 408.884 418.726, 408.974 416.640, 408.699 416.365 C 408.424 416.090, 407.884 417.726, 407.500 420 M 567.500 420 C 567.116 422.274, 567.026 424.360, 567.301 424.635 C 567.576 424.910, 568.116 423.274, 568.500 421 C 568.884 418.726, 568.974 416.640, 568.699 416.365 C 568.424 416.090, 567.884 417.726, 567.500 420 M 304.545 421.545 C 304.163 424.096, 304.075 426.408, 304.350 426.683 C 304.625 426.958, 305.163 425.096, 305.545 422.545 C 305.928 419.995, 306.016 417.683, 305.741 417.408 C 305.466 417.133, 304.928 418.995, 304.545 421.545 M 668.116 420.098 C 667.502 421.858, 667.038 424.694, 667.084 426.399 C 667.143 428.582, 667.553 427.724, 668.469 423.500 C 669.933 416.750, 669.784 415.313, 668.116 420.098 M 640.545 422.545 C 640.163 425.096, 640.055 427.388, 640.305 427.638 C 640.555 427.888, 641.072 426.005, 641.455 423.455 C 641.837 420.904, 641.945 418.612, 641.695 418.362 C 641.445 418.112, 640.928 419.995, 640.545 422.545 M 654.672 421.891 C 654.302 423.738, 654.053 426.656, 654.117 428.375 C 654.198 430.531, 654.514 429.812, 655.136 426.058 C 656.132 420.052, 655.741 416.543, 654.672 421.891 M 418.672 425.891 C 418.302 427.738, 418.049 430.206, 418.110 431.375 C 418.170 432.544, 418.618 431.475, 419.105 429 C 419.592 426.525, 419.845 424.057, 419.667 423.516 C 419.489 422.974, 419.041 424.043, 418.672 425.891 M 584.125 429.625 C 583.455 433.263, 583.098 436.431, 583.331 436.665 C 583.565 436.899, 584.316 434.124, 585 430.500 C 585.684 426.876, 586.041 423.708, 585.794 423.460 C 585.546 423.213, 584.795 425.987, 584.125 429.625 M 342.829 434.502 C 342.648 438.629, 342.837 442.004, 343.250 442.002 C 343.663 442.001, 344 438.625, 344 434.500 C 344 430.375, 343.811 427, 343.579 427 C 343.347 427, 343.010 430.376, 342.829 434.502 M 377.808 430 C 377.457 431.925, 376.900 434.400, 376.570 435.500 C 376.241 436.600, 376.676 435.982, 377.539 434.126 C 378.401 432.271, 378.958 429.796, 378.777 428.626 C 378.542 427.113, 378.263 427.509, 377.808 430 M 390.501 430.995 C 388.453 443.115, 377.762 456.397, 367.433 459.653 C 364.458 460.590, 362.215 461.548, 362.447 461.781 C 362.680 462.013, 365.155 461.445, 367.947 460.518 C 377.780 457.252, 387.961 444.999, 391.052 432.712 C 391.715 430.078, 392.019 427.685, 391.728 427.394 C 391.437 427.103, 390.885 428.724, 390.501 430.995 M 491.545 431.545 C 491.163 434.096, 491.055 436.388, 491.305 436.638 C 491.555 436.888, 492.072 435.005, 492.455 432.455 C 492.837 429.904, 492.945 427.612, 492.695 427.362 C 492.445 427.112, 491.928 428.995, 491.545 431.545 M 231.180 432.168 C 231.081 434.736, 230.741 437.661, 230.424 438.668 C 229.885 440.386, 229.919 440.390, 230.979 438.742 C 231.600 437.774, 231.941 434.849, 231.735 432.242 L 231.360 427.500 231.180 432.168 M 464.053 432.712 C 463.390 435.345, 461.684 439.642, 460.259 442.261 C 457.842 446.707, 449.902 454.982, 445.455 457.691 C 444.380 458.346, 443.950 458.898, 444.500 458.916 C 446.984 459.001, 455.472 451.337, 459.084 445.749 C 462.755 440.069, 466.806 429.473, 465.721 428.388 C 465.466 428.132, 464.715 430.078, 464.053 432.712 M 314.545 433.545 C 314.163 436.096, 314.055 438.388, 314.305 438.638 C 314.555 438.888, 315.072 437.005, 315.455 434.455 C 315.837 431.904, 315.945 429.612, 315.695 429.362 C 315.445 429.112, 314.928 430.995, 314.545 433.545 M 449.738 435.875 C 447.710 441.586, 442.190 447.555, 436.581 450.103 C 434.336 451.122, 433.199 451.966, 434.054 451.978 C 439.103 452.049, 449.906 441.143, 451.660 434.203 C 452.737 429.942, 451.447 431.064, 449.738 435.875 M 301.636 436.636 C 301.283 439.216, 301.186 441.520, 301.422 441.755 C 301.657 441.991, 302.163 440.096, 302.545 437.545 C 302.928 434.995, 303.025 432.691, 302.760 432.427 C 302.496 432.162, 301.990 434.057, 301.636 436.636 M 536.584 436.685 C 534.415 443.136, 527.479 452.287, 522.250 455.599 C 517.729 458.462, 516.498 459.866, 520.250 457.879 C 525.088 455.318, 529.076 451.593, 532.497 446.439 C 535.944 441.246, 539.453 433.120, 538.613 432.279 C 538.388 432.054, 537.475 434.037, 536.584 436.685 M 523.282 436.621 C 521.970 440.383, 516.542 446.698, 512.500 449.163 C 510.850 450.169, 509.995 450.994, 510.600 450.996 C 514.659 451.010, 525.887 438.161, 524.763 434.790 C 524.537 434.110, 523.870 434.934, 523.282 436.621 M 477.634 438.886 C 477.249 441.295, 477.145 443.478, 477.402 443.736 C 478.074 444.407, 479.288 437.363, 478.769 435.806 C 478.530 435.090, 478.020 436.476, 477.634 438.886 M 594.455 439.455 C 594.072 442.005, 593.984 444.317, 594.259 444.592 C 594.534 444.867, 595.072 443.005, 595.455 440.455 C 595.837 437.904, 595.925 435.592, 595.650 435.317 C 595.375 435.042, 594.837 436.904, 594.455 439.455 M 710.545 439.545 C 710.163 442.096, 710.055 444.388, 710.305 444.638 C 710.555 444.888, 711.072 443.005, 711.455 440.455 C 711.837 437.904, 711.945 435.612, 711.695 435.362 C 711.445 435.112, 710.928 436.995, 710.545 439.545 M 654.480 441.253 C 655.594 452.227, 664.440 461.256, 673.718 460.890 C 675.756 460.810, 675.319 460.549, 672.086 459.915 C 666.399 458.799, 660.519 454.882, 658.331 450.754 C 657.383 448.964, 656.020 445.025, 655.302 442 L 653.997 436.500 654.480 441.253 M 667.102 438.800 C 666.878 443.840, 672.992 451.061, 677.385 450.944 C 678.886 450.903, 678.511 450.541, 676.094 449.694 C 672.135 448.306, 669.132 444.664, 668.002 439.877 C 667.421 437.417, 667.177 437.124, 667.102 438.800 M 372.500 442.855 C 368.982 448.221, 364.871 450.852, 358.271 451.962 C 354.308 452.629, 354.056 452.785, 356.782 452.882 C 363.231 453.113, 370.010 448.956, 374.176 442.214 C 377.321 437.127, 375.900 437.669, 372.500 442.855 M 581.125 444.625 C 580.455 448.263, 580.098 451.431, 580.331 451.665 C 580.565 451.899, 581.316 449.124, 582 445.500 C 582.684 441.876, 583.041 438.708, 582.794 438.460 C 582.546 438.213, 581.795 440.987, 581.125 444.625 M 550.545 443.545 C 550.163 446.096, 550.075 448.408, 550.350 448.683 C 550.625 448.958, 551.163 447.096, 551.545 444.545 C 551.928 441.995, 552.016 439.683, 551.741 439.408 C 551.466 439.133, 550.928 440.995, 550.545 443.545 M 227.688 443.353 C 226.818 444.682, 223.743 446.946, 220.856 448.384 C 215.323 451.142, 215.864 452.107, 221.456 449.454 C 225.006 447.770, 230.684 442.351, 229.813 441.479 C 229.515 441.181, 228.559 442.025, 227.688 443.353 M 242.556 442.823 C 240.564 449.099, 232.427 456.469, 224.110 459.530 C 222.125 460.261, 221.175 460.881, 222 460.908 C 224.737 460.996, 231.716 457.252, 235.959 453.418 C 239.929 449.831, 244.690 442.357, 243.661 441.328 C 243.398 441.065, 242.901 441.738, 242.556 442.823 M 623.500 446 C 623.116 448.274, 623.026 450.360, 623.301 450.635 C 623.576 450.910, 624.116 449.274, 624.500 447 C 624.884 444.726, 624.974 442.640, 624.699 442.365 C 624.424 442.090, 623.884 443.726, 623.500 446 M 488.629 446.103 C 487.903 449.735, 488.474 451.012, 490.809 450.970 C 492.379 450.941, 492.378 450.868, 490.781 449.937 C 489.515 449.199, 489.219 448.155, 489.656 445.968 C 489.983 444.336, 490.025 443, 489.750 443 C 489.475 443, 488.971 444.396, 488.629 446.103 M 331.554 446.500 C 332.729 452.658, 341.189 461.058, 346.136 460.978 C 346.886 460.966, 345.645 460.114, 343.377 459.084 C 338.891 457.047, 334.250 451.907, 332.250 446.761 L 330.982 443.500 331.554 446.500 M 311.500 449 C 311.116 451.274, 311.026 453.360, 311.301 453.635 C 311.576 453.910, 312.116 452.274, 312.500 450 C 312.884 447.726, 312.974 445.640, 312.699 445.365 C 312.424 445.090, 311.884 446.726, 311.500 449 M 345.910 447.832 C 347.102 450.058, 351.772 452.562, 352.805 451.528 C 353.096 451.238, 352.843 451, 352.243 451 C 351.644 451, 349.701 449.778, 347.926 448.284 C 344.946 445.776, 344.791 445.742, 345.910 447.832 M 192.500 449.536 C 194.150 450.292, 196.625 450.900, 198 450.887 C 199.514 450.874, 198.528 450.318, 195.500 449.477 C 189.315 447.759, 188.648 447.772, 192.500 449.536 M 298.545 452.545 C 298.163 455.096, 298.075 457.408, 298.350 457.683 C 298.625 457.958, 299.163 456.096, 299.545 453.545 C 299.928 450.995, 300.016 448.683, 299.741 448.408 C 299.466 448.133, 298.928 449.995, 298.545 452.545 M 635.001 449.500 C 634.873 450.050, 634.665 450.950, 634.537 451.500 C 634.409 452.050, 634.236 453.962, 634.152 455.750 L 634 459 628.083 459 C 624.286 459, 621.986 458.552, 621.662 457.750 C 621.368 457.020, 621.125 457.247, 621.079 458.296 C 621.009 459.880, 621.788 460.057, 627.709 459.796 L 634.417 459.500 635.239 455.528 C 635.927 452.202, 635.701 446.474, 635.001 449.500 M 255.642 453.750 C 254.612 459.982, 254.795 460.748, 257.250 460.491 C 258.488 460.361, 261.413 460.198, 263.750 460.128 C 267.116 460.027, 267.984 459.636, 267.921 458.250 C 267.874 457.205, 267.639 457.003, 267.338 457.750 C 267.020 458.536, 264.802 459, 261.355 459 L 255.877 459 256.552 454.500 C 256.923 452.025, 257.010 450, 256.744 450 C 256.479 450, 255.983 451.688, 255.642 453.750 M 474.545 454.545 C 474.163 457.096, 474.075 459.408, 474.350 459.683 C 474.625 459.958, 475.163 458.096, 475.545 455.545 C 475.928 452.995, 476.016 450.683, 475.741 450.408 C 475.466 450.133, 474.928 451.995, 474.545 454.545 M 204.750 451.723 C 206.537 451.945, 209.463 451.945, 211.250 451.723 C 213.037 451.502, 211.575 451.320, 208 451.320 C 204.425 451.320, 202.963 451.502, 204.750 451.723 M 501 452 L 495.500 452.674 500.500 452.767 C 503.250 452.818, 506.400 452.473, 507.500 452 C 509.755 451.031, 508.906 451.031, 501 452 M 591.511 454.933 L 590.824 459 585.479 459 C 580.396 459, 580.116 458.865, 579.793 456.250 C 579.459 453.556, 579.441 453.566, 578.899 456.750 L 578.346 460 585.045 460 L 591.744 460 592.405 455.866 C 592.769 453.593, 592.871 451.538, 592.632 451.299 C 592.394 451.060, 591.889 452.696, 591.511 454.933 M 548.136 457.250 L 548 460 554.750 459.807 L 561.500 459.615 555.314 459.261 C 549.870 458.950, 549.076 458.643, 548.700 456.704 C 548.344 454.870, 548.249 454.962, 548.136 457.250 M 310 457.500 C 310 458.684, 308.589 459, 303.300 459 C 299.615 459, 297.028 459.360, 297.550 459.801 C 298.072 460.242, 301.313 460.427, 304.750 460.212 C 310.101 459.878, 311 459.547, 311 457.911 C 311 456.860, 310.775 456, 310.500 456 C 310.225 456, 310 456.675, 310 457.500 M 690.500 457.243 C 689.400 457.893, 686.025 459.005, 683 459.714 C 677.626 460.973, 677.604 460.992, 682.041 460.549 C 686.451 460.109, 697.009 456.182, 694 456.101 C 693.175 456.079, 691.600 456.593, 690.500 457.243 M 412.116 461.250 C 412.209 463.054, 412.325 463.139, 412.703 461.677 C 412.967 460.657, 413.766 460.080, 414.516 460.368 C 415.254 460.651, 417.577 461.140, 419.679 461.454 C 423.476 462.022, 423.472 462.016, 419 460.528 C 412.942 458.512, 411.980 458.613, 412.116 461.250 M 485.425 462.547 C 485.059 464.497, 485.039 466.372, 485.380 466.713 C 485.721 467.054, 486.007 466.246, 486.015 464.917 C 486.041 460.797, 487.189 459.907, 491.045 461.013 C 492.938 461.556, 495.165 461.960, 495.993 461.911 C 497.334 461.831, 488.542 459.067, 486.795 459.019 C 486.408 459.009, 485.791 460.596, 485.425 462.547 M 409.545 473.545 C 409.163 476.096, 409.055 478.388, 409.305 478.638 C 409.555 478.888, 410.072 477.005, 410.455 474.455 C 410.837 471.904, 410.945 469.612, 410.695 469.362 C 410.445 469.112, 409.928 470.995, 409.545 473.545 M 699.202 479.516 C 697.451 482, 693.901 485.375, 691.313 487.016 C 688.726 488.657, 687.046 490, 687.582 490 C 690.198 490, 699.406 481.960, 701.611 477.750 C 703.720 473.724, 702.819 474.384, 699.202 479.516 M 650.185 481.750 L 650.370 487.500 650.737 482.256 L 651.104 477.012 655.012 479.006 C 657.162 480.103, 659.726 480.989, 660.710 480.976 C 662.035 480.959, 651.667 476.031, 650.250 476.005 C 650.112 476.002, 650.083 478.587, 650.185 481.750 M 395.654 480.750 C 395.324 482.813, 394.760 485.962, 394.402 487.750 C 393.766 490.923, 393.830 490.996, 397.125 490.850 C 400.282 490.710, 400.317 490.673, 397.660 490.275 C 395.322 489.925, 394.916 489.466, 395.363 487.675 C 396.404 483.494, 397.251 477, 396.756 477 C 396.481 477, 395.985 478.688, 395.654 480.750 M 468.989 482.250 C 468.983 482.938, 468.699 485.188, 468.358 487.250 C 467.741 490.986, 467.751 490.999, 471.119 490.850 C 474.102 490.718, 474.180 490.652, 471.778 490.286 C 469.174 489.890, 469.082 489.681, 469.664 485.436 C 469.998 482.996, 469.986 481, 469.636 481 C 469.286 481, 468.995 481.563, 468.989 482.250 M 661 491 C 662.375 491.440, 664.625 491.801, 666 491.801 L 668.500 491.801 666 491 C 664.625 490.560, 662.375 490.199, 661 490.199 L 658.500 490.199 661 491" stroke="none" fill="#09405f" fill-rule="evenodd"/></svg>