<?xml version="1.0" encoding="UTF-8" standalone="no" ?>
<!DOCTYPE svg PUBLIC "-//W3C//DTD SVG 1.1//EN" "http://www.w3.org/Graphics/SVG/1.1/DTD/svg11.dtd">
<svg xmlns="http://www.w3.org/2000/svg" xmlns:xlink="http://www.w3.org/1999/xlink" version="1.1" width="1200" height="400" viewBox="0 0 1200 400" xml:space="preserve">
<desc>Created with Fabric.js 5.2.4</desc>
<defs>
</defs>
<g transform="matrix(1 0 0 1 600 200)" id="fee1d431-3632-4a00-b33d-a2f3481911a9"  >
<rect style="stroke: none; stroke-width: 1; stroke-dasharray: none; stroke-linecap: butt; stroke-dashoffset: 0; stroke-linejoin: miter; stroke-miterlimit: 4; fill: rgb(255,255,255); fill-rule: nonzero; opacity: 1; visibility: hidden;" vector-effect="non-scaling-stroke"  x="-600" y="-200" rx="0" ry="0" width="1200" height="400" />
</g>
<g transform="matrix(Infinity NaN NaN Infinity 0 0)" id="92d4f6d3-2652-4314-8b7a-8e9360923f2d"  >
</g>
<g transform="matrix(1.27 0 0 1.27 600 200)"  >
<g style="" vector-effect="non-scaling-stroke"   >
		<g transform="matrix(1 0 0 1 0 0)"  >
<path style="stroke: none; stroke-width: 1; stroke-dasharray: none; stroke-linecap: butt; stroke-dashoffset: 0; stroke-linejoin: miter; stroke-miterlimit: 4; fill: rgb(0,121,194); fill-rule: evenodd; opacity: 1;" vector-effect="non-scaling-stroke"  transform=" translate(-421.73, -430.08)" d="M 734.708 353.625 C 734.319 354.015 734 364.158 734 376.167 L 734 398 L 786 398 C 814.6 398 838 397.766 838 397.479 C 838 396.688 823.782 383 822.96 383 C 822.048 383 806 366.99 806 366.081 C 806 365.708 803.448 362.725 800.328 359.452 L 794.656 353.5 L 765.036 353.209 C 748.745 353.049 735.097 353.236 734.708 353.625 M 728.25 354.662 C 727.563 354.94 727 355.804 727 356.583 C 727 357.363 726.325 358 725.5 358 C 724.675 358 724 358.482 724 359.071 C 724 360.456 721.456 363 720.071 363 C 719.482 363 719 363.482 719 364.071 C 719 365.456 716.456 368 715.071 368 C 714.482 368 714 368.482 714 369.071 C 714 370.456 711.456 373 710.071 373 C 709.482 373 709 373.372 709 373.828 C 709 374.283 703.6 380.1 697 386.754 L 685 398.853 L 685 428.426 C 685 454.047 685.2 458 686.5 458 C 687.325 458 688 458.45 688 459 C 688 459.633 695.33 460 707.989 460 C 725.457 460 728.231 459.783 729.989 458.278 C 731.955 456.594 732 455.415 732 405.278 C 732 352.363 732.057 353.126 728.25 354.662 M 231.75 367.893 C 230.787 368.869 230 370 230 370.405 C 230 370.811 230.707 370.436 231.571 369.571 C 232.436 368.707 233.786 368 234.571 368 C 235.357 368 236 367.55 236 367 C 236 365.445 233.685 365.931 231.75 367.893 M 440 367 C 440 367.55 441.35 368 443 368 C 444.65 368 446 367.55 446 367 C 446 366.45 444.65 366 443 366 C 441.35 366 440 366.45 440 367 M 531 367 C 531 367.55 531.675 368 532.5 368 C 533.325 368 534 368.75 534 369.667 C 534 370.583 534.266 371.067 534.591 370.742 C 535.619 369.714 533.928 366 532.433 366 C 531.645 366 531 366.45 531 367 M 662.589 375.5 C 662.244 376.875 661.52 378 660.981 378 C 660.441 378 660 378.558 660 379.24 C 660 379.922 661.125 379.266 662.5 377.783 C 665.038 375.046 665.726 373 664.108 373 C 663.618 373 662.934 374.125 662.589 375.5 M 521.629 387.524 C 521.308 388.362 520.022 389.459 518.772 389.961 C 517.304 390.55 517.065 390.896 518.097 390.937 C 519.68 390.999 524 387.85 524 386.633 C 524 385.364 522.198 386.042 521.629 387.524 M 653.977 388.031 C 653.197 389.114 651.908 390 651.113 390 C 650.317 390 649.933 390.266 650.258 390.591 C 651.246 391.579 654.775 390.029 655.431 388.319 C 656.345 385.938 655.593 385.789 653.977 388.031 M 453 392 C 453 392.645 464 393 484 393 C 504 393 515 392.645 515 392 C 515 391.355 504 391 484 391 C 464 391 453 391.355 453 392 M 5.455 431.5 C 5.455 452.95 5.587 461.583 5.749 450.684 C 5.911 439.785 5.91 422.235 5.748 411.684 C 5.587 401.133 5.454 410.05 5.455 431.5 M 40.5 394 C 39.677 395.331 85.94 395.331 88 394 C 88.991 393.359 81.297 393.025 65.309 393.015 C 50.243 393.006 40.885 393.377 40.5 394 M 796 402 C 796 402.55 795.277 403 794.393 403 C 793.338 403 792.995 403.544 793.393 404.582 C 793.727 405.452 794 428.402 794 455.582 C 794 485.326 794.37 505 794.929 505 C 795.439 505 796.532 504.325 797.357 503.5 C 798.182 502.675 799.339 502 799.929 502 C 800.518 502 801 501.534 801 500.964 C 801 499.679 802.879 497.612 815.745 484.745 C 828.612 471.879 830.679 470 831.964 470 C 832.534 470 833 469.518 833 468.929 C 833 467.544 835.544 465 836.929 465 C 837.668 465 838 455.089 838 433 L 838 401 L 817 401 C 803.667 401 796 401.365 796 402 M 371 404 C 371 404.55 371.401 405 371.892 405 C 372.382 405 373.066 406.125 373.411 407.5 C 374.014 409.905 376 411.056 376 409 C 376 408.45 375.599 408 375.108 408 C 374.618 408 373.934 406.875 373.589 405.5 C 372.986 403.095 371 401.944 371 404 M 33 430.5 C 33 444.833 33.363 453 34 453 C 34.637 453 35 444.833 35 430.5 C 35 416.167 34.637 408 34 408 C 33.363 408 33 416.167 33 430.5 M 376 414 C 376 414.55 376.401 415 376.892 415 C 377.382 415 378.066 416.125 378.411 417.5 C 379.014 419.905 381 421.056 381 419 C 381 418.45 380.599 418 380.108 418 C 379.618 418 378.934 416.875 378.589 415.5 C 377.986 413.095 376 411.944 376 414 M 455 414 C 455 414.643 465.167 415 483.5 415 C 501.833 415 512 414.643 512 414 C 512 413.357 501.833 413 483.5 413 C 465.167 413 455 413.357 455 414 M 650.015 427.191 C 650.026 434.862 650.342 438.017 651 437 C 652.283 435.015 652.283 417.293 651 416.5 C 650.356 416.102 650.005 419.903 650.015 427.191 M 294.411 430.5 C 294.066 431.875 293.382 433 292.892 433 C 292.401 433 292 433.45 292 434 C 292 436.056 293.986 434.905 294.589 432.5 C 294.934 431.125 295.618 430 296.108 430 C 296.599 430 297 429.55 297 429 C 297 426.944 295.014 428.095 294.411 430.5 M 534 434 C 534 434.55 534.45 435 535 435 C 535.631 435 536 441.833 536 453.5 C 536 465.167 535.631 472 535 472 C 534.45 472 534 472.761 534 473.691 C 534 475.166 534.188 475.134 535.468 473.441 C 536.627 471.909 536.943 467.781 536.968 453.832 C 536.986 444.114 536.727 435.452 536.393 434.582 C 535.724 432.837 534 432.418 534 434 M 171.18 440.513 C 172.007 441.341 228.001 441.574 228 440.75 C 228 440.337 215.1 440 199.333 440 C 183.567 440 170.897 440.231 171.18 440.513 M 687.667 462.667 C 686.516 463.817 686.938 465 688.5 465 C 689.325 465 690 465.472 690 466.049 C 690 467.418 709.582 487 710.951 487 C 711.528 487 712 487.482 712 488.071 C 712 488.661 712.643 489.786 713.429 490.571 C 714.214 491.357 715.339 492 715.929 492 C 716.518 492 717 492.482 717 493.071 C 717 493.661 717.643 494.786 718.429 495.571 C 719.214 496.357 720.339 497 720.929 497 C 721.518 497 722 497.482 722 498.071 C 722 499.456 724.544 502 725.929 502 C 726.518 502 727 502.482 727 503.071 C 727 503.661 727.643 504.786 728.429 505.571 C 729.604 506.747 735.267 507 760.429 507 L 791 507 L 791 485.107 C 791 466.066 790.794 463.135 789.418 462.607 C 787.252 461.776 688.5 461.834 687.667 462.667 M 78.95 467.743 C 102.5 467.957 110.62 468.339 111.276 469.265 C 111.916 470.167 112.042 470.095 111.743 469 C 111.39 467.707 106.927 467.497 79.417 467.478 L 47.5 467.456 L 78.95 467.743 M 432 468.5 C 431.14 469.536 431.102 470 431.878 470 C 432.495 470 433 469.556 433 469.013 C 433 468.388 445.741 467.925 467.75 467.75 L 502.5 467.473 L 467.872 467.237 C 438.114 467.033 433.07 467.211 432 468.5 M 604.75 467.748 C 612.587 467.917 625.413 467.917 633.25 467.748 C 641.087 467.579 634.675 467.441 619 467.441 C 603.325 467.441 596.913 467.579 604.75 467.748 M 304 480.333 C 304 481.25 303.55 482 303 482 C 302.45 482 302 482.675 302 483.5 C 302 484.325 302.401 485 302.892 485 C 303.932 485 305.358 480.024 304.549 479.215 C 304.247 478.914 304 479.417 304 480.333 M 268.607 486.582 C 267.607 489.188 267.878 489.983 270.646 492.548 C 273.098 494.82 274.034 494.998 283.396 494.968 C 290.692 494.945 294.039 494.528 295.441 493.468 C 297.134 492.188 297.166 492 295.691 492 C 294.761 492 294 492.45 294 493 C 294 493.603 289.833 494 283.5 494 C 277.167 494 273 493.603 273 493 C 273 492.45 272.325 492 271.5 492 C 270.046 492 269.527 490.367 269.83 486.75 C 270.012 484.571 269.41 484.488 268.607 486.582 M 378.094 488 C 378.01 489.992 378.952 491.198 382.215 493.273 C 385.933 495.639 407.077 495.818 409 493.5 C 409.86 492.464 409.898 492 409.122 492 C 408.505 492 408 492.45 408 493 C 408 493.611 403.333 494 396 494 C 388.667 494 384 493.611 384 493 C 384 492.45 383.518 492 382.929 492 C 381.622 492 379.528 489.992 378.74 487.982 C 378.23 486.684 378.15 486.686 378.094 488 M 667.136 488.821 C 666.825 494.133 668.247 494 611.655 494 C 570.569 494 559.07 493.728 558.72 492.75 C 558.475 492.063 557.888 491.862 557.416 492.304 C 554.988 494.581 562.941 494.97 612.095 494.985 C 662.677 494.999 664.756 494.927 666.425 493.082 C 667.431 491.972 667.974 490.184 667.717 488.832 L 667.272 486.5 L 667.136 488.821 M 166 490.5 C 166 491.325 165.325 492 164.5 492 C 163.675 492 163 492.45 163 493 C 163 493.596 159.167 494 153.5 494 C 147.833 494 144 493.596 144 493 C 144 492.45 143.325 492 142.5 492 C 141.675 492 141 491.55 141 491 C 141 490.45 140.55 490 140 490 C 138.098 490 139.011 491.576 141.904 493.284 C 146.018 495.714 160.621 495.692 164.913 493.25 C 167.848 491.579 169.115 489 167 489 C 166.45 489 166 489.675 166 490.5 M 32.5 493.444 C 36.973 495.63 119.554 495.652 122.441 493.468 C 124.134 492.188 124.166 492 122.691 492 C 121.761 492 121 492.459 121 493.021 C 121 494.203 36.077 493.909 32 492.712 C 30.07 492.145 30.184 492.312 32.5 493.444 M 234.751 493.538 C 236.44 494.721 239.085 495 246.223 494.745 L 255.5 494.415 L 245.809 494.208 C 240.479 494.093 235.84 493.55 235.5 493 C 235.16 492.45 234.358 492 233.718 492 C 233.079 492 233.543 492.692 234.751 493.538 M 445.318 494.749 C 457.868 494.908 478.118 494.908 490.318 494.749 C 502.518 494.59 492.25 494.46 467.5 494.46 C 442.75 494.46 432.768 494.59 445.318 494.749" stroke-linecap="round" />
</g>
		<g transform="matrix(1 0 0 1 -85.24 -0.08)"  >
<path style="stroke: none; stroke-width: 1; stroke-dasharray: none; stroke-linecap: butt; stroke-dashoffset: 0; stroke-linejoin: miter; stroke-miterlimit: 4; fill: rgb(12,41,59); fill-rule: evenodd; opacity: 1;" vector-effect="non-scaling-stroke"  transform=" translate(-336.49, -430)" d="M 36 367 C 36 367.55 34.682 368 33.071 368 C 31.461 368 29.468 368.675 28.643 369.5 C 27.818 370.325 26.211 371 25.071 371 C 23.932 371 23 371.45 23 372 C 23 372.55 21.875 373 20.5 373 C 18.944 373 18 373.567 18 374.5 C 18 375.325 17.518 376 16.929 376 C 15.78 376 13 378.456 13 379.471 C 13 380.058 11.966 381.435 9.25 384.463 C 8.563 385.23 8 387.014 8 388.429 C 8 389.843 7.55 391 7 391 C 6.35 391 6 405.167 6 431.5 C 6 457.833 6.35 472 7 472 C 7.55 472 8 472.88 8 473.955 C 8 476.008 18.039 487 19.913 487 C 20.511 487 21 487.441 21 487.981 C 21 488.52 22.125 489.244 23.5 489.589 C 24.875 489.934 26 490.571 26 491.003 C 26 492.746 36.412 493.278 77.75 493.651 C 106.756 493.913 121 493.705 121 493.021 C 121 492.459 121.675 492 122.5 492 C 123.548 492 124 490.944 124 488.5 C 124 486.575 123.599 485 123.108 485 C 122.618 485 121.934 483.875 121.589 482.5 C 121.244 481.125 120.52 480 119.981 480 C 119.441 480 119 479.518 119 478.929 C 119 478.339 118.437 477.23 117.75 476.463 C 114.782 473.154 114 472.023 114 471.042 C 114 470.469 113.325 470 112.5 470 C 111.675 470 111 469.578 111 469.061 C 111 468.501 97.427 467.997 77.333 467.811 C 51.512 467.573 43.568 467.209 43.249 466.25 C 43.02 465.563 42.386 465 41.84 465 C 39.53 465 35 459.09 35 456.077 C 35 454.385 34.55 453 34 453 C 33.363 453 33 444.833 33 430.5 C 33 416.167 33.363 408 34 408 C 34.55 408 35 405.75 35 403 C 35 399.64 35.414 398 36.263 398 C 36.957 398 38.37 396.875 39.403 395.5 L 41.28 393 L 75.64 393 C 108.667 393 110.078 392.922 112 391 C 113.1 389.9 114 388.529 114 387.952 C 114 387.376 115.125 385.862 116.5 384.588 C 117.875 383.313 119 381.598 119 380.775 C 119 379.953 120.125 378.435 121.5 377.403 C 123.391 375.983 124 374.609 124 371.763 C 124 369.085 123.568 368 122.5 368 C 121.675 368 121 367.55 121 367 C 121 366.349 106.167 366 78.5 366 C 50.833 366 36 366.349 36 367 M 144 367 C 144 367.55 143.325 368 142.5 368 C 141.675 368 141 368.675 141 369.5 C 141 370.325 140.55 371 140 371 C 139.345 371 139 391.357 139 430.071 C 139 491.391 139.039 492 142.929 492 C 143.518 492 144 492.45 144 493 C 144 493.596 147.833 494 153.5 494 C 159.167 494 163 493.596 163 493 C 163 492.45 163.675 492 164.5 492 C 165.325 492 166 491.325 166 490.5 C 166 489.675 166.45 489 167 489 C 167.637 489 168 480.741 168 466.222 C 168 444.639 168.105 443.354 170.011 441.722 C 171.811 440.182 174.973 440 200.011 440 C 224.223 440 228 440.202 228 441.5 C 228 442.325 228.45 443 229 443 C 229.638 443 230 451.306 230 465.918 C 230 478.523 230.273 489.548 230.607 490.418 C 230.941 491.288 232.039 492 233.048 492 C 234.057 492 235.16 492.45 235.5 493 C 235.84 493.55 240.157 494 245.093 494 C 253.769 494 254.166 493.899 257.034 490.966 L 260 487.931 L 260 429.889 L 260 371.846 L 257.077 368.923 C 254.276 366.122 253.776 366 245.077 366 C 239.692 366 236 366.407 236 367 C 236 367.55 235.357 368 234.571 368 C 233.786 368 232.436 368.707 231.571 369.571 C 230.243 370.9 230 374.379 230 392.071 L 230 413 L 199 413 L 168 413 L 168 392 C 168 378.667 167.635 371 167 371 C 166.45 371 166 370.325 166 369.5 C 166 368.675 165.325 368 164.5 368 C 163.675 368 163 367.55 163 367 C 163 366.404 159.167 366 153.5 366 C 147.833 366 144 366.404 144 367 M 329 367 C 329 367.55 328.2 368 327.222 368 C 325.132 368 322 371.349 322 373.583 C 322 374.441 321.325 375.818 320.5 376.643 C 319.675 377.468 319 379.198 319 380.488 C 319 381.778 318.663 382.983 318.25 383.167 C 317.163 383.65 314 389.912 314 391.581 C 314 392.361 313.55 393 313 393 C 312.45 393 312 394.125 312 395.5 C 312 396.875 311.559 398 311.019 398 C 310.48 398 309.756 399.125 309.411 400.5 C 309.066 401.875 308.382 403 307.892 403 C 307.401 403 307 404.125 307 405.5 C 307 406.875 306.599 408 306.108 408 C 305.618 408 304.934 409.125 304.589 410.5 C 304.244 411.875 303.52 413 302.981 413 C 302.441 413 302 414.125 302 415.5 C 302 416.875 301.55 418 301 418 C 300.45 418 300 419.093 300 420.429 C 300 421.764 299.325 423.532 298.5 424.357 C 297.675 425.182 297 426.789 297 427.929 C 297 429.068 296.599 430 296.108 430 C 295.618 430 294.934 431.125 294.589 432.5 C 294.244 433.875 293.52 435 292.981 435 C 292.441 435 292 436.125 292 437.5 C 292 438.875 291.599 440 291.108 440 C 290.618 440 289.934 441.125 289.589 442.5 C 289.244 443.875 288.52 445 287.981 445 C 287.441 445 287 446.125 287 447.5 C 287 448.875 286.55 450 286 450 C 285.45 450 285 451.125 285 452.5 C 285 453.875 284.559 455 284.019 455 C 283.48 455 282.756 456.125 282.411 457.5 C 282.066 458.875 281.382 460 280.892 460 C 280.401 460 280 461.093 280 462.429 C 280 463.764 279.325 465.532 278.5 466.357 C 277.675 467.182 277 468.789 277 469.929 C 277 471.068 276.599 472 276.108 472 C 275.618 472 274.934 473.125 274.589 474.5 C 274.244 475.875 273.52 477 272.981 477 C 272.441 477 272 478.125 272 479.5 C 272 480.875 271.601 482 271.113 482 C 270.041 482 269.104 487.68 269.761 490.195 C 270.021 491.188 270.856 492 271.617 492 C 272.377 492 273 492.45 273 493 C 273 493.603 277.167 494 283.5 494 C 289.833 494 294 493.603 294 493 C 294 492.45 295.012 491.997 296.25 491.994 C 298.679 491.987 302 487.323 302 483.919 C 302 482.864 302.401 482 302.892 482 C 303.382 482 304.066 480.875 304.411 479.5 C 304.756 478.125 305.48 477 306.019 477 C 306.559 477 307 475.875 307 474.5 C 307 473.125 307.45 472 308 472 C 308.55 472 309 471.341 309 470.535 C 309 467.438 312.871 467 340.212 467 C 366.37 467 367.63 467.087 369.278 469.011 C 370.225 470.118 371 471.918 371 473.011 C 371 474.105 371.441 475 371.981 475 C 372.52 475 373.244 476.125 373.589 477.5 C 373.934 478.875 374.618 480 375.108 480 C 375.599 480 376 481.093 376 482.429 C 376 483.764 376.675 485.532 377.5 486.357 C 378.325 487.182 379 488.146 379 488.5 C 379 489.538 381.763 492 382.929 492 C 383.518 492 384 492.45 384 493 C 384 493.611 388.667 494 396 494 C 403.333 494 408 493.611 408 493 C 408 492.45 408.737 492 409.638 492 C 411.043 492 411.18 491.183 410.603 486.25 C 410.233 483.087 409.496 480.35 408.965 480.167 C 408.434 479.983 408 478.746 408 477.417 C 408 476.087 407.559 475 407.019 475 C 406.48 475 405.756 473.875 405.411 472.5 C 405.066 471.125 404.382 470 403.892 470 C 403.401 470 403 468.875 403 467.5 C 403 466.125 402.599 465 402.108 465 C 401.618 465 400.934 463.875 400.589 462.5 C 400.244 461.125 399.52 460 398.981 460 C 398.441 460 398 458.875 398 457.5 C 398 456.125 397.55 455 397 455 C 396.45 455 396 453.875 396 452.5 C 396 450.944 395.433 450 394.5 450 C 393.567 450 393 449.056 393 447.5 C 393 446.125 392.55 445 392 445 C 391.45 445 391 443.875 391 442.5 C 391 441.125 390.559 440 390.019 440 C 389.48 440 388.756 438.875 388.411 437.5 C 388.066 436.125 387.382 435 386.892 435 C 386.401 435 386 433.875 386 432.5 C 386 431.125 385.559 430 385.019 430 C 384.48 430 383.756 428.875 383.411 427.5 C 383.066 426.125 382.382 425 381.892 425 C 381.401 425 381 423.875 381 422.5 C 381 421.125 380.559 420 380.019 420 C 379.48 420 378.756 418.875 378.411 417.5 C 378.066 416.125 377.382 415 376.892 415 C 376.401 415 376 413.875 376 412.5 C 376 411.125 375.559 410 375.019 410 C 374.48 410 373.756 408.875 373.411 407.5 C 373.066 406.125 372.382 405 371.892 405 C 371.401 405 371 403.425 371 401.5 C 371 399.575 370.663 397.997 370.25 397.994 C 369.104 397.984 366 392.087 366 389.919 C 366 388.864 365.663 387.997 365.25 387.994 C 364.104 387.984 361 382.087 361 379.919 C 361 378.864 360.599 378 360.108 378 C 359.618 378 358.934 376.875 358.589 375.5 C 358.244 374.125 357.52 373 356.981 373 C 356.441 373 356 372.109 356 371.019 C 356 369.74 355.114 368.816 353.5 368.411 C 352.125 368.066 351 367.382 351 366.892 C 351 366.401 346.05 366 340 366 C 333.333 366 329 366.394 329 367 M 527 367 C 527 367.652 511.024 368 481.071 368 C 441.579 368 434.933 368.21 433.643 369.5 C 432.818 370.325 431.854 371 431.5 371 C 430.462 371 428 373.763 428 374.929 C 428 375.518 427.518 376 426.929 376 C 425.19 376 423 378.701 423 380.845 C 423 381.939 422.438 383.021 421.75 383.251 C 420.805 383.567 420.5 388.624 420.5 404.001 C 420.5 419.379 420.805 424.435 421.75 424.75 C 422.438 424.979 423 426.254 423 427.583 C 423 428.928 423.59 430 424.331 430 C 425.063 430 426.264 431.125 427 432.5 C 427.736 433.875 428.937 435 429.669 435 C 430.401 435 431 435.441 431 435.981 C 431 436.52 432.125 437.244 433.5 437.589 C 434.875 437.934 436 438.618 436 439.108 C 436 439.613 450.786 440 470.071 440 C 498.267 440 504.389 440.246 505.571 441.429 C 507.795 443.652 507.592 463.551 505.323 465.821 C 503.827 467.318 499.817 467.531 468.323 467.786 C 446.53 467.963 433 468.442 433 469.036 C 433 469.566 432.325 470 431.5 470 C 430.675 470 430 470.675 430 471.5 C 430 472.325 429.55 473 429 473 C 428.45 473 428 473.736 428 474.635 C 428 475.535 426.875 477.313 425.5 478.588 C 424.125 479.862 423 481.788 423 482.869 C 423 483.949 422.494 485.002 421.875 485.208 C 420.218 485.761 420.507 490.65 422.304 492.446 C 423.661 493.804 429.412 494 467.929 494 C 496.643 494 512 493.652 512 493 C 512 492.45 513.575 492 515.5 492 C 517.425 492 519 491.599 519 491.108 C 519 490.618 520.125 489.934 521.5 489.589 C 522.875 489.244 524 488.52 524 487.981 C 524 487.441 524.482 487 525.071 487 C 526.237 487 529 484.538 529 483.5 C 529 483.146 529.563 482.23 530.25 481.463 C 533.494 477.846 534 476.912 534 474.542 C 534 473.144 534.45 472 535 472 C 535.631 472 536 465.167 536 453.5 C 536 441.833 535.631 435 535 435 C 534.45 435 534 433.425 534 431.5 C 534 429.575 533.55 428 533 428 C 532.45 428 532 427.364 532 426.586 C 532 424.78 525.46 418 523.718 418 C 522.993 418 521.838 417.438 521.151 416.75 C 520.217 415.814 511.743 415.424 487.451 415.199 C 467.866 415.017 455 414.521 455 413.949 C 455 413.427 453.875 413 452.5 413 L 450 413 L 450 403 C 450 394.778 450.267 393 451.5 393 C 452.325 393 453 392.567 453 392.039 C 453 391.449 465.753 390.966 485.992 390.789 L 518.983 390.5 L 521.492 387.794 C 522.871 386.305 524 384.618 524 384.044 C 524 383.47 524.675 383 525.5 383 C 526.325 383 527 382.325 527 381.5 C 527 380.675 527.45 380 528 380 C 528.55 380 529 379.304 529 378.452 C 529 377.601 530.125 375.862 531.5 374.588 C 534.264 372.026 534.875 368 532.5 368 C 531.675 368 531 367.55 531 367 C 531 366.45 530.1 366 529 366 C 527.9 366 527 366.45 527 367 M 559 366.892 C 559 367.382 557.875 368.066 556.5 368.411 L 554 369.038 L 554 429.09 C 554 491.444 554.035 492 557.929 492 C 558.518 492 559 492.45 559 493 C 559 493.654 577.19 494 611.571 494 C 655.8 494 664.37 493.773 665.571 492.571 C 667.19 490.953 667.527 485 666 485 C 665.45 485 665 484.531 665 483.958 C 665 482.977 664.218 481.846 661.25 478.537 C 660.563 477.77 660 476.661 660 476.071 C 660 475.482 659.55 475 659 475 C 658.45 475 658 474.394 658 473.653 C 658 472.912 657.128 471.3 656.061 470.07 C 654.135 467.849 653.915 467.834 621.74 467.667 C 592.9 467.518 589.175 467.316 587.679 465.821 C 586.292 464.435 586 462.041 586 452.071 L 586 440 L 618 440 L 650 440 L 650 427.929 C 650 418.8 649.652 415.509 648.571 414.429 C 647.399 413.256 641.924 413 618 413 C 594.076 413 588.601 412.744 587.429 411.571 C 586.39 410.533 586 407.539 586 400.61 L 586 391.078 L 618.796 390.789 L 651.592 390.5 L 655.796 386.21 C 658.108 383.85 660 381.037 660 379.96 C 660 378.882 660.441 378 660.981 378 C 661.52 378 662.244 376.875 662.589 375.5 C 662.934 374.125 663.618 373 664.108 373 C 664.599 373 665 372.109 665 371.019 C 665 369.74 664.114 368.816 662.5 368.411 C 661.125 368.066 660 367.382 660 366.892 C 660 366.381 638.406 366 609.5 366 C 580.594 366 559 366.381 559 366.892 M 336.589 405.5 C 336.244 406.875 335.52 408 334.981 408 C 334.441 408 334 409.527 334 411.393 C 334 413.487 333.426 415.006 332.5 415.362 C 331.675 415.678 331 416.851 331 417.969 C 331 419.086 330.55 420 330 420 C 329.45 420 329 421.125 329 422.5 C 329 423.875 328.599 425 328.108 425 C 327.618 425 326.934 426.125 326.589 427.5 C 326.244 428.875 325.52 430 324.981 430 C 324.441 430 324 432.25 324 435 L 324 440 L 339 440 L 354 440 L 354 435.429 C 354 432.698 353.396 430.253 352.5 429.357 C 351.675 428.532 351 426.764 351 425.429 C 351 424.093 350.55 423 350 423 C 349.45 423 349 421.875 349 420.5 C 349 419.125 348.559 418 348.019 418 C 347.48 418 346.756 416.875 346.411 415.5 C 346.066 414.125 345.382 413 344.892 413 C 344.401 413 344 412.136 344 411.081 C 344 408.173 340.715 403.013 338.858 403.006 C 337.938 403.003 336.941 404.099 336.589 405.5" stroke-linecap="round" />
</g>
</g>
</g>
</svg>