<svg xmlns="http://www.w3.org/2000/svg" width="877" height="877" viewBox="0 0 877 877" version="1.1"><path d="M 493.372 103.019 C 466.473 105.130, 432.141 114.763, 406.151 127.491 C 368.123 146.114, 339.803 169.102, 314.362 202 L 307.016 211.500 336.607 211.765 L 366.198 212.030 374.849 203.832 C 411.241 169.345, 457.832 149.774, 507.143 148.261 C 528.627 147.601, 543.500 149.152, 562.833 154.067 C 598.507 163.137, 624.743 177.668, 655.276 205.265 L 662.760 212.031 691.961 211.765 L 721.161 211.500 715.951 204.500 C 684.175 161.808, 638.890 129.636, 587.896 113.527 C 559.590 104.585, 523.925 100.620, 493.372 103.019 M 557.763 649.967 C 544.688 652.351, 533.101 658.167, 523.461 667.185 C 519.907 670.510, 517 673.628, 517 674.115 C 517 674.602, 520.050 675, 523.777 675 C 530.156 675, 530.874 674.759, 536.005 670.904 C 546.612 662.934, 555.364 660, 568.529 660 C 580.670 660, 592.430 664.123, 601.668 671.618 C 605.544 674.762, 606.343 675, 613.046 675 L 620.256 675 617.778 671.750 C 611.572 663.610, 597.175 654.622, 585.239 651.438 C 578.188 649.556, 564.138 648.804, 557.763 649.967 M 233.688 679.502 C 225.482 681.757, 217.826 686.250, 211.537 692.500 L 205.500 698.500 211.179 698.798 C 216.400 699.072, 217.246 698.798, 221.679 695.410 C 230.264 688.846, 234.203 687.570, 246 687.533 C 255.261 687.504, 257.154 687.807, 262.046 690.101 C 265.096 691.532, 269.232 694.142, 271.236 695.903 C 274.572 698.832, 275.375 699.078, 280.691 698.802 L 286.500 698.500 280.476 692.434 C 268.391 680.265, 249.703 675.099, 233.688 679.502" stroke="none" fill="#ee3f43" fill-rule="evenodd"/><path d="M 755.500 173.871 C 753.300 174.876, 749.610 177.756, 747.300 180.272 C 734.086 194.664, 740.402 218.236, 758.925 223.656 C 776.016 228.657, 792.876 216.846, 793.280 199.589 C 793.547 188.192, 788.063 178.801, 778.556 174.374 C 772.108 171.371, 761.480 171.139, 755.500 173.871 M 759.838 176.124 C 754.897 177.518, 748.138 183.486, 745.886 188.444 C 742.063 196.862, 744.039 208.079, 750.480 214.520 C 759.041 223.081, 774.204 223.199, 783.153 214.773 C 794.094 204.472, 791.202 184.735, 777.747 177.871 C 773.022 175.461, 764.973 174.676, 759.838 176.124 M 506.500 189.023 L 482.500 201.920 482.233 227.460 L 481.966 253 460.483 253 L 439 253 439 276.500 L 439 300 460.439 300 L 481.878 300 482.237 377.750 C 482.588 453.959, 482.638 455.655, 484.769 463.300 C 491.279 486.649, 506.739 502.063, 528.260 506.658 C 542.637 509.727, 562.532 507.060, 577.821 500.013 C 584.228 497.060, 585.105 496.314, 585.951 493.101 C 586.472 491.121, 588.965 481.175, 591.492 471 C 594.019 460.825, 596.321 451.715, 596.608 450.756 C 597.013 449.406, 595.478 449.900, 589.815 452.943 C 577.817 459.389, 567.947 462.267, 557.500 462.364 C 547.349 462.459, 542.381 460.618, 537.664 455.013 C 532.544 448.927, 532.581 449.501, 532.248 372.250 L 531.937 300 558.469 300 L 585 300 585 276.500 L 585 253 558.500 253 L 532 253 532 214.500 C 532 193.325, 531.663 176.028, 531.250 176.063 C 530.837 176.097, 519.700 181.929, 506.500 189.023 M 757 197.375 C 757 211.333, 757.091 212, 759 212 C 760.758 212, 761 211.333, 761 206.500 L 761 201 764.250 201.003 C 767.162 201.007, 767.809 201.579, 770.465 206.503 C 772.727 210.697, 773.972 212, 775.715 212 C 778.545 212, 778.545 212.009, 775.515 206.029 L 773.029 201.124 776.015 198.139 C 779.714 194.440, 779.944 190.209, 776.654 186.385 C 774.511 183.893, 773.563 183.619, 765.654 183.203 L 757 182.749 757 197.375 M 761.667 187.667 C 761.300 188.033, 761 190.283, 761 192.667 L 761 197 765.566 197 C 771.700 197, 774 195.636, 774 192 C 774 190.127, 773.302 188.697, 772.066 188.035 C 769.913 186.883, 762.705 186.628, 761.667 187.667 M 208 249.596 C 182.779 252.585, 162.167 259.716, 144.202 271.670 C 115.471 290.786, 97.595 319.982, 92.058 356.832 C 90.465 367.432, 90.661 392.231, 92.425 403.189 C 100.011 450.333, 130.065 486.334, 174.171 501.111 C 199.866 509.719, 228.697 511.105, 252.803 504.889 C 269.856 500.492, 288.899 488.854, 303.876 473.674 C 310.623 466.837, 311.135 466.034, 309.876 464.268 C 309.119 463.207, 302.683 455.300, 295.574 446.697 L 282.647 431.056 278.074 435.319 C 270.048 442.801, 262.662 447.813, 252.739 452.514 C 239.681 458.700, 231.606 460.302, 216.500 459.704 C 202.546 459.153, 195.560 457.482, 184.500 452.053 C 169.120 444.503, 157.502 432.553, 149.934 416.500 C 143.598 403.060, 142.536 397.692, 142.517 379 C 142.502 364.719, 142.809 361.432, 144.800 354.557 C 152.400 328.307, 171.016 309.020, 196.500 300.992 C 205.334 298.209, 224.983 297.150, 234.229 298.958 C 248.682 301.784, 263.914 309.836, 276.596 321.353 L 282.691 326.888 295.596 311.254 C 302.693 302.655, 309.119 294.761, 309.876 293.711 C 311.132 291.969, 310.606 291.142, 303.876 284.283 C 286.733 266.808, 267.916 256.181, 245.639 251.391 C 238.681 249.895, 215.007 248.766, 208 249.596 M 342 378.500 L 342 504 367 504 L 392 504 392 378.500 L 392 253 367 253 L 342 253 342 378.500 M 638 378.500 L 638 504 663.500 504 L 689 504 689 378.500 L 689 253 663.500 253 L 638 253 638 378.500 M 127 717.500 L 127 808 228.500 808 L 330 808 330 717.500 L 330 627 228.500 627 L 127 627 127 717.500 M 233.688 679.502 C 225.482 681.757, 217.826 686.250, 211.537 692.500 L 205.500 698.500 211.179 698.798 C 216.400 699.072, 217.246 698.798, 221.679 695.410 C 230.264 688.846, 234.203 687.570, 246 687.533 C 255.261 687.504, 257.154 687.807, 262.046 690.101 C 265.096 691.532, 269.232 694.142, 271.236 695.903 C 274.572 698.832, 275.375 699.078, 280.691 698.802 L 286.500 698.500 280.476 692.434 C 268.391 680.265, 249.703 675.099, 233.688 679.502 M 243.750 694.692 C 239.103 697.279, 239 697.442, 239 702.168 L 239 707 235 707 L 231 707 231 712 L 231 717 235 717 L 239 717 239.006 731.250 C 239.009 739.087, 239.458 747.108, 240.004 749.074 C 241.468 754.345, 245.035 757.212, 250.717 757.686 C 257.493 758.251, 260.099 756.568, 261.607 750.654 C 262.820 745.894, 262.803 745.820, 260.671 746.498 C 250.501 749.727, 250 749.018, 250 731.378 L 250 717 255 717 L 260 717 260 712 L 260 707 255 707 L 250 707 250 699.500 C 250 695.375, 249.662 692.011, 249.250 692.024 C 248.838 692.038, 246.363 693.238, 243.750 694.692 M 292 696.500 C 291.007 697.697, 291.007 698.303, 292 699.500 C 292.685 700.325, 293.810 701, 294.500 701 C 295.190 701, 296.315 700.325, 297 699.500 C 297.993 698.303, 297.993 697.697, 297 696.500 C 296.315 695.675, 295.190 695, 294.500 695 C 293.810 695, 292.685 695.675, 292 696.500 M 181.718 707.092 C 176.119 708.410, 172.763 710.413, 168.796 714.805 C 164.225 719.864, 162.541 724.879, 162.646 733.118 C 162.835 747.811, 173.426 758, 188.512 758 C 192.309 758, 195.234 757.235, 199.029 755.250 C 206.381 751.404, 207.024 750.032, 203.588 745.526 C 201.048 742.197, 200.650 742.007, 199.113 743.397 C 193.212 748.738, 184.251 748.916, 178.433 743.807 C 172.887 738.937, 171.826 731.225, 175.669 723.706 C 179.119 716.956, 189.541 714.842, 196.405 719.500 C 198.431 720.875, 200.315 722, 200.592 722 C 201.520 722, 205.936 716.515, 205.968 715.323 C 206.023 713.281, 198.938 708.222, 194.436 707.088 C 189.482 705.841, 187.027 705.841, 181.718 707.092 M 212 732 L 212 757 217.500 757 L 223 757 223 732 L 223 707 217.500 707 L 212 707 212 732 M 270 732 L 270 757 275.500 757 L 281 757 281 732 L 281 707 275.500 707 L 270 707 270 732 M 398 784.500 L 398 793 545.500 793 L 693 793 693 784.500 L 693 776 545.500 776 L 398 776 398 784.500" stroke="none" fill="#135189" fill-rule="evenodd"/><path d="M 764.264 171.718 C 765.784 171.947, 768.034 171.941, 769.264 171.704 C 770.494 171.467, 769.250 171.279, 766.500 171.286 C 763.750 171.294, 762.744 171.488, 764.264 171.718 M 761.667 187.667 C 761.300 188.033, 761 190.283, 761 192.667 L 761 197 766.250 196.820 L 771.500 196.640 766.750 196.265 L 762 195.890 762 192 L 762 188.110 766.750 187.735 L 771.500 187.360 766.917 187.180 C 764.396 187.081, 762.033 187.300, 761.667 187.667 M 532.400 203.500 C 532.401 211.750, 532.556 214.992, 532.744 210.704 C 532.932 206.417, 532.931 199.667, 532.742 195.704 C 532.552 191.742, 532.399 195.250, 532.400 203.500 M 761.310 206.500 C 761.315 209.800, 761.502 211.029, 761.725 209.232 C 761.947 207.435, 761.943 204.735, 761.715 203.232 C 761.486 201.729, 761.304 203.200, 761.310 206.500 M 532.300 248 C 532.300 251.025, 532.487 252.262, 532.716 250.750 C 532.945 249.238, 532.945 246.762, 532.716 245.250 C 532.487 243.738, 532.300 244.975, 532.300 248 M 341.494 378.736 C 341.499 489.784, 341.675 504.486, 343 504.583 C 343.854 504.645, 343.964 504.512, 343.254 504.274 C 342.270 503.943, 341.953 477.485, 341.748 378.427 L 341.488 253 341.494 378.736 M 392.485 378.500 C 392.485 447.800, 392.604 476.003, 392.750 441.172 C 392.896 406.342, 392.896 349.642, 392.750 315.172 C 392.604 280.703, 392.485 309.200, 392.485 378.500 M 438.472 276.749 L 438.500 300.500 443.500 300.578 L 448.500 300.656 443.768 300.276 L 439.036 299.897 438.740 276.448 L 438.445 252.999 438.472 276.749 M 637.485 378.500 C 637.485 447.800, 637.604 476.003, 637.750 441.172 C 637.896 406.342, 637.896 349.642, 637.750 315.172 C 637.604 280.703, 637.485 309.200, 637.485 378.500 M 301.500 282 C 304.766 285.300, 307.662 288, 307.937 288 C 308.212 288, 305.766 285.300, 302.500 282 C 299.234 278.700, 296.338 276, 296.063 276 C 295.788 276, 298.234 278.700, 301.500 282 M 125 286.500 C 122.571 288.975, 120.809 291, 121.084 291 C 121.359 291, 123.571 288.975, 126 286.500 C 128.429 284.025, 130.191 282, 129.916 282 C 129.641 282, 127.429 284.025, 125 286.500 M 474.250 300.716 C 475.762 300.945, 478.238 300.945, 479.750 300.716 C 481.262 300.487, 480.025 300.300, 477 300.300 C 473.975 300.300, 472.738 300.487, 474.250 300.716 M 532.392 313 C 532.392 320.425, 532.549 323.462, 532.742 319.750 C 532.934 316.038, 532.934 309.962, 532.742 306.250 C 532.549 302.538, 532.392 305.575, 532.392 313 M 559.750 300.737 C 562.638 300.939, 567.362 300.939, 570.250 300.737 C 573.138 300.535, 570.775 300.370, 565 300.370 C 559.225 300.370, 556.862 300.535, 559.750 300.737 M 164.462 320.250 L 159.500 325.500 164.750 320.538 C 169.628 315.926, 170.459 315, 169.712 315 C 169.554 315, 167.192 317.363, 164.462 320.250 M 532.400 365.500 C 532.401 373.750, 532.556 376.992, 532.744 372.704 C 532.932 368.417, 532.931 361.667, 532.742 357.704 C 532.552 353.742, 532.399 357.250, 532.400 365.500 M 90.320 374 C 90.320 377.575, 90.502 379.038, 90.723 377.250 C 90.945 375.462, 90.945 372.538, 90.723 370.750 C 90.502 368.962, 90.320 370.425, 90.320 374 M 90.310 386.500 C 90.315 389.800, 90.502 391.029, 90.725 389.232 C 90.947 387.435, 90.943 384.735, 90.715 383.232 C 90.486 381.729, 90.304 383.200, 90.310 386.500 M 532.415 423 C 532.415 433.175, 532.564 437.337, 532.745 432.250 C 532.927 427.162, 532.927 418.837, 532.745 413.750 C 532.564 408.662, 532.415 412.825, 532.415 423 M 163.958 437.250 C 166.410 439.863, 168.548 442, 168.708 442 C 169.459 442, 168.665 441.102, 164.250 436.958 L 159.500 432.500 163.958 437.250 M 554.264 462.718 C 555.784 462.947, 558.034 462.941, 559.264 462.704 C 560.494 462.467, 559.250 462.279, 556.500 462.286 C 553.750 462.294, 552.744 462.488, 554.264 462.718 M 302.469 475.250 L 296.500 481.500 302.750 475.531 C 308.556 469.987, 309.458 469, 308.719 469 C 308.564 469, 305.751 471.813, 302.469 475.250 M 372.784 504.738 C 375.689 504.941, 380.189 504.939, 382.784 504.734 C 385.378 504.528, 383 504.363, 377.500 504.365 C 372 504.368, 369.878 504.536, 372.784 504.738 M 664.784 504.738 C 667.689 504.941, 672.189 504.939, 674.784 504.734 C 677.378 504.528, 675 504.363, 669.500 504.365 C 664 504.368, 661.878 504.536, 664.784 504.738 M 398 700.500 L 398 776 545.500 776 L 693 776 693 784.497 L 693 792.993 545.250 793.250 L 397.500 793.507 545.783 793.753 L 694.066 794 693.920 709.500 L 693.773 625 545.887 625 L 398 625 398 700.500 M 330.245 717.245 L 330 807.991 228.250 808.250 L 126.500 808.510 228.281 808.755 C 308.967 808.949, 330.162 808.741, 330.539 807.750 C 330.802 807.063, 330.898 766, 330.753 716.500 L 330.489 626.500 330.245 717.245 M 553.223 650.868 C 542.091 653.705, 531.825 659.257, 523.918 666.716 C 520.113 670.306, 517 673.638, 517 674.121 C 517 674.605, 520.191 675, 524.091 675 C 530.763 675, 531.426 674.791, 535.311 671.466 C 543.599 664.371, 556.253 660, 568.500 660 C 580.484 660, 591.317 663.779, 601.402 671.477 C 605.947 674.946, 606.405 675.074, 613.314 674.793 L 620.500 674.500 616 669.587 C 609.632 662.633, 598.237 655.483, 588.631 652.413 C 577.608 648.890, 563.414 648.271, 553.223 650.868 M 629.223 666.557 C 624.460 669.892, 627.491 678, 633.500 678 C 637.193 678, 640 675.193, 640 671.500 C 640 667.807, 637.193 665, 633.500 665 C 632.370 665, 630.445 665.701, 629.223 666.557 M 566.250 669.345 L 560 672.427 560 678.214 L 560 684 554.500 684 L 549 684 549 690 L 549 696 554.500 696 L 560 696 560.002 714.250 C 560.003 734.774, 560.712 737.598, 566.898 741.730 C 570.681 744.257, 577.517 744.762, 582.840 742.906 C 585.441 741.999, 586.237 740.941, 587.489 736.724 C 589.512 729.914, 589.456 729.713, 586.050 731.474 C 581.741 733.703, 575.330 733.484, 574.035 731.066 C 573.441 729.956, 573 722.073, 573 712.566 L 573 696 579.500 696 L 586 696 586 690 L 586 684 579.538 684 L 573.075 684 572.788 675.132 L 572.500 666.264 566.250 669.345 M 630.165 667.597 C 626.991 669.820, 627.576 674.044, 631.303 675.823 C 633.714 676.973, 634.449 676.936, 636.553 675.557 C 639.653 673.526, 639.762 669.647, 636.777 667.557 C 633.985 665.601, 633.006 665.607, 630.165 667.597 M 631 671.691 C 631 675.020, 631.131 675.203, 632.339 673.551 C 633.634 671.780, 633.704 671.782, 634.462 673.610 C 635.150 675.268, 635.349 675.142, 636.081 672.586 C 637.116 668.969, 636.558 668, 633.441 668 C 631.294 668, 631 668.444, 631 671.691 M 485.197 684.559 C 470.901 688.407, 463.113 697.554, 462.215 711.554 C 461.376 724.626, 467.104 734.929, 478.460 740.773 C 485.778 744.539, 499.452 745.152, 506.689 742.038 C 509.481 740.837, 512.993 738.573, 514.493 737.007 L 517.222 734.159 513.944 730.079 C 512.141 727.836, 510.360 726, 509.988 726 C 509.615 726, 508.520 726.873, 507.554 727.940 C 505.678 730.013, 497.997 733.004, 494.572 732.994 C 479.527 732.954, 469.970 715.547, 478.258 703.283 C 481.101 699.077, 489.104 694.993, 494.446 695.022 C 498.355 695.043, 504.335 697.340, 508.500 700.420 C 510.356 701.793, 510.740 701.612, 513.841 697.908 C 515.679 695.713, 516.967 693.358, 516.705 692.674 C 515.824 690.378, 508 685.707, 502.758 684.347 C 496.310 682.675, 492.005 682.726, 485.197 684.559 M 525 713.500 L 525 743 531.500 743 L 538 743 538 713.500 L 538 684 531.500 684 L 525 684 525 713.500 M 599 713.500 L 599 743 605.500 743 L 612 743 612 713.500 L 612 684 605.500 684 L 599 684 599 713.500 M 292 697.500 C 290.832 698.907, 291.216 699.239, 293.638 698.915 C 293.989 698.868, 294.657 699.430, 295.123 700.165 C 295.704 701.082, 295.974 700.639, 295.985 698.750 C 296.002 695.700, 294.012 695.076, 292 697.500 M 239.300 702 C 239.300 705.025, 239.487 706.263, 239.716 704.750 C 239.945 703.237, 239.945 700.763, 239.716 699.250 C 239.487 697.737, 239.300 698.975, 239.300 702 M 222.435 732 C 222.435 746.025, 222.575 751.763, 222.747 744.750 C 222.919 737.737, 222.919 726.263, 222.747 719.250 C 222.575 712.237, 222.435 717.975, 222.435 732 M 280.435 732 C 280.435 746.025, 280.575 751.763, 280.747 744.750 C 280.919 737.737, 280.919 726.263, 280.747 719.250 C 280.575 712.237, 280.435 717.975, 280.435 732 M 239.402 732 C 239.402 740.525, 239.556 744.013, 239.743 739.750 C 239.931 735.487, 239.931 728.513, 239.743 724.250 C 239.556 719.987, 239.402 723.475, 239.402 732" stroke="none" fill="#0c5f9c" fill-rule="evenodd"/></svg>