<?xml version="1.0" encoding="UTF-8" standalone="no" ?>
<!DOCTYPE svg PUBLIC "-//W3C//DTD SVG 1.1//EN" "http://www.w3.org/Graphics/SVG/1.1/DTD/svg11.dtd">
<svg xmlns="http://www.w3.org/2000/svg" xmlns:xlink="http://www.w3.org/1999/xlink" version="1.1" width="1075" height="300" viewBox="0 0 1075 300" xml:space="preserve">
<desc>Created with Fabric.js 5.2.4</desc>
<defs>
</defs>
<g transform="matrix(1 0 0 1 537.5 150)" id="a32d7cec-80c0-44ce-a1e9-8595ed365cae"  >
<rect style="stroke: none; stroke-width: 1; stroke-dasharray: none; stroke-linecap: butt; stroke-dashoffset: 0; stroke-linejoin: miter; stroke-miterlimit: 4; fill: rgb(255,255,255); fill-rule: nonzero; opacity: 1; visibility: hidden;" vector-effect="non-scaling-stroke"  x="-537.5" y="-150" rx="0" ry="0" width="1075" height="300" />
</g>
<g transform="matrix(Infinity NaN NaN Infinity 0 0)" id="cfe7f612-44eb-4c0e-bc7d-f0c8fec4faab"  >
</g>
<g transform="matrix(1.23 0 0 1.23 563 213)"  >
<g style="" vector-effect="non-scaling-stroke"   >
		<g transform="matrix(1 0 0 1 33.23 9.53)"  >
<path style="stroke: none; stroke-width: 1; stroke-dasharray: none; stroke-linecap: butt; stroke-dashoffset: 0; stroke-linejoin: miter; stroke-miterlimit: 4; fill: rgb(137,140,144); fill-rule: evenodd; opacity: 1;" vector-effect="non-scaling-stroke"  transform=" translate(-493.2, -182.78)" d="M 222.306 19.75 C 222.539 20.163 227.364 29.247 233.029 39.937 L 243.329 59.374 L 241.296 62.937 C 234.736 74.434 222 98.143 222 98.858 C 222 99.322 224.293 101.127 227.096 102.869 L 232.193 106.037 L 231.545 101.269 L 230.898 96.5 L 240.767 82.5 C 246.195 74.8 252.105 66.433 253.901 63.906 L 257.165 59.312 L 244.025 40.187 C 232.174 22.94 230.522 20.961 227.192 20.037 C 222.78 18.811 221.741 18.75 222.306 19.75 M 123.385 36 C 123.385 42.875 123.545 45.688 123.74 42.25 C 123.936 38.813 123.936 33.188 123.74 29.75 C 123.545 26.313 123.385 29.125 123.385 36 M 67.75 44.737 C 70.638 44.939 75.362 44.939 78.25 44.737 C 81.138 44.535 78.775 44.37 73 44.37 C 67.225 44.37 64.862 44.535 67.75 44.737 M 94.25 44.735 C 96.862 44.941 101.138 44.941 103.75 44.735 C 106.362 44.529 104.225 44.36 99 44.36 C 93.775 44.36 91.638 44.529 94.25 44.735 M 123.217 67.628 C 123.027 79.102 123.22 80.928 124.75 82.128 C 126.291 83.336 126.355 83.313 125.281 81.935 C 124.509 80.944 123.947 75.63 123.749 67.435 L 123.435 54.5 L 123.217 67.628 M 198.776 127.733 C 201.128 127.945 204.728 127.942 206.776 127.727 C 208.824 127.512 206.9 127.339 202.5 127.343 C 198.1 127.346 196.424 127.522 198.776 127.733 M 228.776 127.733 C 231.128 127.945 234.728 127.942 236.776 127.727 C 238.824 127.512 236.9 127.339 232.5 127.343 C 228.1 127.346 226.424 127.522 228.776 127.733 M 258.776 127.733 C 261.128 127.945 264.728 127.942 266.776 127.727 C 268.824 127.512 266.9 127.339 262.5 127.343 C 258.1 127.346 256.424 127.522 258.776 127.733 M 288.776 127.733 C 291.128 127.945 294.728 127.942 296.776 127.727 C 298.824 127.512 296.9 127.339 292.5 127.343 C 288.1 127.346 286.424 127.522 288.776 127.733 M 318.776 127.733 C 321.128 127.945 324.728 127.942 326.776 127.727 C 328.824 127.512 326.9 127.339 322.5 127.343 C 318.1 127.346 316.424 127.522 318.776 127.733 M 348.776 127.733 C 351.128 127.945 354.728 127.942 356.776 127.727 C 358.824 127.512 356.9 127.339 352.5 127.343 C 348.1 127.346 346.424 127.522 348.776 127.733 M 378.776 127.733 C 381.128 127.945 384.728 127.942 386.776 127.727 C 388.824 127.512 386.9 127.339 382.5 127.343 C 378.1 127.346 376.424 127.522 378.776 127.733 M 408.776 127.733 C 411.128 127.945 414.728 127.942 416.776 127.727 C 418.824 127.512 416.9 127.339 412.5 127.343 C 408.1 127.346 406.424 127.522 408.776 127.733 M 438.776 127.733 C 441.128 127.945 444.728 127.942 446.776 127.727 C 448.824 127.512 446.9 127.339 442.5 127.343 C 438.1 127.346 436.424 127.522 438.776 127.733 M 468.776 127.733 C 471.128 127.945 474.728 127.942 476.776 127.727 C 478.824 127.512 476.9 127.339 472.5 127.343 C 468.1 127.346 466.424 127.522 468.776 127.733 M 498.776 127.733 C 501.128 127.945 504.728 127.942 506.776 127.727 C 508.824 127.512 506.9 127.339 502.5 127.343 C 498.1 127.346 496.424 127.522 498.776 127.733 M 528.776 127.733 C 531.128 127.945 534.728 127.942 536.776 127.727 C 538.824 127.512 536.9 127.339 532.5 127.343 C 528.1 127.346 526.424 127.522 528.776 127.733 M 558.776 127.733 C 561.128 127.945 564.728 127.942 566.776 127.727 C 568.824 127.512 566.9 127.339 562.5 127.343 C 558.1 127.346 556.424 127.522 558.776 127.733 M 588.776 127.733 C 591.128 127.945 594.728 127.942 596.776 127.727 C 598.824 127.512 596.9 127.339 592.5 127.343 C 588.1 127.346 586.424 127.522 588.776 127.733 M 618.776 127.733 C 621.128 127.945 624.728 127.942 626.776 127.727 C 628.824 127.512 626.9 127.339 622.5 127.343 C 618.1 127.346 616.424 127.522 618.776 127.733 M 648.776 127.733 C 651.128 127.945 654.728 127.942 656.776 127.727 C 658.824 127.512 656.9 127.339 652.5 127.343 C 648.1 127.346 646.424 127.522 648.776 127.733 M 678.776 127.733 C 681.128 127.945 684.728 127.942 686.776 127.727 C 688.824 127.512 686.9 127.339 682.5 127.343 C 678.1 127.346 676.424 127.522 678.776 127.733 M 708.776 127.733 C 711.128 127.945 714.728 127.942 716.776 127.727 C 718.824 127.512 716.9 127.339 712.5 127.343 C 708.1 127.346 706.424 127.522 708.776 127.733 M 738.776 127.733 C 741.128 127.945 744.728 127.942 746.776 127.727 C 748.824 127.512 746.9 127.339 742.5 127.343 C 738.1 127.346 736.424 127.522 738.776 127.733 M 768.776 127.733 C 771.128 127.945 774.728 127.942 776.776 127.727 C 778.824 127.512 776.9 127.339 772.5 127.343 C 768.1 127.346 766.424 127.522 768.776 127.733 M 798.776 127.733 C 801.128 127.945 804.728 127.942 806.776 127.727 C 808.824 127.512 806.9 127.339 802.5 127.343 C 798.1 127.346 796.424 127.522 798.776 127.733 M 828.776 127.733 C 831.128 127.945 834.728 127.942 836.776 127.727 C 838.824 127.512 836.9 127.339 832.5 127.343 C 828.1 127.346 826.424 127.522 828.776 127.733 M 858.776 127.733 C 861.128 127.945 864.728 127.942 866.776 127.727 C 868.824 127.512 866.9 127.339 862.5 127.343 C 858.1 127.346 856.424 127.522 858.776 127.733 M 887.768 127.725 C 889.565 127.947 892.265 127.943 893.768 127.715 C 895.271 127.486 893.8 127.304 890.5 127.31 C 887.2 127.315 885.971 127.502 887.768 127.725 M 294.209 180.191 C 294.094 195.421 294.337 208.091 294.75 208.347 C 295.163 208.603 295.385 200.417 295.244 190.156 C 294.772 155.697 294.42 152.307 294.209 180.191 M 583.44 180.5 C 583.44 195.9 583.579 202.06 583.748 194.189 C 583.917 186.319 583.917 173.719 583.747 166.189 C 583.578 158.66 583.439 165.1 583.44 180.5 M 282.731 159.721 C 283.631 160.36 284.042 166.906 284.26 184.047 L 284.557 207.5 L 284.529 183.583 C 284.504 163.188 284.279 159.605 283 159.257 C 281.909 158.959 281.836 159.086 282.731 159.721 M 571.731 159.721 C 572.633 160.361 573.042 167.005 573.26 184.548 L 573.556 208.5 L 573.528 184.083 C 573.504 163.243 573.28 159.606 572 159.257 C 570.909 158.959 570.836 159.086 571.731 159.721 M 828.734 159.723 C 829.648 160.371 830.043 167.702 830.258 188.049 L 830.55 215.5 L 830.525 187.583 C 830.504 163.63 830.287 159.608 829 159.257 C 827.907 158.959 827.834 159.085 828.734 159.723 M 702.214 171.75 L 702.5 181.5 L 707 181.61 L 711.5 181.72 L 707.25 181.302 L 703 180.885 L 703 171.997 L 703 163.11 L 707.75 162.735 L 712.5 162.36 L 707.214 162.18 L 701.928 162 L 702.214 171.75 M 413.415 197 C 413.415 207.175 413.564 211.338 413.745 206.25 C 413.927 201.162 413.927 192.837 413.745 187.75 C 413.564 182.662 413.415 186.825 413.415 197 M 446.402 194 C 446.402 202.525 446.556 206.012 446.743 201.75 C 446.931 197.488 446.931 190.512 446.743 186.25 C 446.556 181.988 446.402 185.475 446.402 194 M 423.442 182.29 C 423.17 183 423.073 190.762 423.227 199.54 L 423.507 215.5 L 424.003 198.249 C 424.277 188.761 424.373 180.998 424.219 180.999 C 424.064 180.999 423.714 181.581 423.442 182.29 M 538.395 194.5 C 538.396 202.2 538.553 205.218 538.743 201.206 C 538.934 197.195 538.932 190.895 538.741 187.206 C 538.549 183.518 538.393 186.8 538.395 194.5 M 793.442 182.29 C 793.17 183 793.073 190.762 793.227 199.54 L 793.507 215.5 L 794.003 198.249 C 794.277 188.761 794.373 180.998 794.219 180.999 C 794.064 180.999 793.714 181.581 793.442 182.29 M 338.32 193 C 338.32 196.575 338.502 198.037 338.723 196.25 C 338.945 194.463 338.945 191.537 338.723 189.75 C 338.502 187.963 338.32 189.425 338.32 193 M 702.43 188.321 C 702.151 189.048 702.071 194.11 702.252 199.571 L 702.581 209.5 L 702.791 198.805 L 703 188.11 L 707.75 187.735 L 712.5 187.36 L 707.719 187.18 C 704.541 187.06 702.767 187.443 702.43 188.321 M 594.31 193.5 C 594.315 196.8 594.502 198.029 594.725 196.232 C 594.947 194.435 594.943 191.735 594.715 190.232 C 594.486 188.729 594.304 190.2 594.31 193.5 M 608.25 189.728 C 610.313 189.944 613.688 189.944 615.75 189.728 C 617.813 189.513 616.125 189.336 612 189.336 C 607.875 189.336 606.188 189.513 608.25 189.728 M 757.702 194.649 C 759.562 195.052 759.962 195.931 760.277 200.313 L 760.649 205.5 L 760.575 200 C 760.505 194.866 760.334 194.489 758 194.336 C 755.891 194.198 755.845 194.247 757.702 194.649 M 610.75 195.74 C 614.188 195.936 619.813 195.936 623.25 195.74 C 626.688 195.545 623.875 195.385 617 195.385 C 610.125 195.385 607.313 195.545 610.75 195.74 M 218.415 200.362 C 218.127 201.111 218.035 204.374 218.211 207.612 L 218.53 213.5 L 219.015 206.248 C 219.502 198.971 219.385 197.832 218.415 200.362 M 364.331 245.75 C 462.138 245.891 621.888 245.891 719.331 245.75 C 816.774 245.609 736.75 245.494 541.5 245.494 C 346.25 245.494 266.524 245.609 364.331 245.75 M 282.75 274.723 L 286 275.127 L 286 302.563 L 286 330 L 283.042 330 L 280.084 330 L 279.72 322.25 L 279.356 314.5 L 279.428 322.5 L 279.5 330.5 L 283 330.5 L 286.5 330.5 L 286.785 319.607 C 287.049 309.551 287.191 308.86 288.641 310.607 C 290.001 312.247 289.996 312.137 288.605 309.785 C 287.306 307.587 287 303.922 287 290.535 L 287 274 L 283.25 274.16 C 279.558 274.318 279.55 274.326 282.75 274.723 M 514.233 301.75 L 514.466 329.5 L 514.749 302.25 L 515.032 275 L 517.516 275 L 520 275 L 519.791 285.25 L 519.581 295.5 L 519.254 285.75 C 518.995 278.006 518.626 276 517.464 276 C 516.216 276 516 279.902 516 302.5 C 516 325.389 516.204 329 517.5 329 C 518.76 329 519.002 326.799 519.015 315.25 C 519.024 307.688 519.361 300.994 519.765 300.376 C 521.106 298.324 527.461 295.008 530.059 295.004 C 535.668 294.996 536.13 296.256 536.481 312.545 C 536.868 330.528 536.685 329 538.454 329 C 539.659 329 539.96 326.041 540.204 311.75 C 540.423 298.979 540.176 294.174 539.254 293.246 C 538.568 292.557 538.456 292.534 539.004 293.196 C 540.932 295.525 539.97 296.039 537.25 294.132 C 535.737 293.071 532.7 291.945 530.5 291.63 C 528.3 291.315 527.03 291.388 527.679 291.793 C 528.435 292.266 527.461 293.295 524.963 294.663 C 522.82 295.837 521.106 296.505 521.152 296.148 C 521.199 295.792 521.184 290.663 521.118 284.75 L 521 274 L 517.5 274 L 514 274 L 514.233 301.75 M 281 302.5 C 281 328.333 281.05 329 283 329 C 284.95 329 285 328.333 285 302.5 C 285 276.667 284.95 276 283 276 C 281.05 276 281 276.667 281 302.5 M 197 277.757 C 197 278.174 194.975 278.353 192.5 278.157 L 188 277.799 L 188 303.399 C 188 328.097 188.069 329 189.946 329 C 191.811 329 191.892 328.152 191.876 308.75 C 191.863 293.208 192.188 287.866 193.275 285.771 L 194.691 283.042 L 195.969 288.771 C 196.672 291.922 198.984 299.353 201.106 305.284 C 203.228 311.215 204.86 317.065 204.732 318.284 C 204.534 320.173 205.052 320.546 208.25 320.81 C 210.313 320.981 212 320.734 212 320.261 C 212 319.788 210.425 319.585 208.5 319.81 C 206.575 320.035 205 319.798 205 319.283 C 205 318.768 206.241 318.529 207.758 318.751 C 210.496 319.153 210.553 319.041 216.008 302.691 C 219.028 293.636 221.725 286.437 222 286.694 C 222.275 286.951 222.725 296.913 223 308.831 L 223.5 330.5 L 227 330.5 L 230.5 330.5 L 230.525 303.5 L 230.551 276.5 L 230.259 303.25 L 229.967 330 L 226.984 330 L 224 330 L 224.23 306.75 L 224.461 283.5 L 224.749 306.25 C 225.027 328.164 225.11 329 227.019 329 C 228.942 329 229 328.253 229 303.5 L 229 278 L 225.057 278 L 221.115 278 L 216.057 293.422 C 213.276 301.904 210.947 309.891 210.882 311.172 C 210.781 313.145 210.647 313.043 210 310.5 L 209.237 307.5 L 209.019 310.5 C 208.803 313.469 208.792 313.474 208 311 C 207.56 309.625 207.113 309.175 207.008 310 C 206.903 310.825 205.968 308.8 204.929 305.5 C 203.89 302.2 203.305 298.656 203.627 297.625 C 203.985 296.481 203.815 295.996 203.192 296.382 C 201.796 297.244 196.668 281.622 197.493 279.023 C 197.846 277.91 197.879 277 197.567 277 C 197.255 277 197 277.341 197 277.757 M 480.25 280.689 C 481.645 281.054 482 282.246 482 286.573 L 482 292 L 485.934 292 C 489.457 292 489.911 292.287 490.284 294.75 C 490.671 297.31 490.711 297.275 490.85 294.25 C 490.995 291.1 490.877 291 487 291 L 483 291 L 483 285.5 C 483 280.429 482.825 280.009 480.75 280.116 C 479.057 280.203 478.933 280.345 480.25 280.689 M 477 281.663 C 477.275 281.848 477.34 284.303 477.145 287.12 C 476.868 291.131 476.379 292.35 474.895 292.738 C 472.425 293.384 472.476 294.63 475 295.29 C 476.885 295.783 477 296.654 477 310.452 C 477 324.661 477.072 325.163 479.455 327.545 C 480.805 328.895 483.018 330 484.373 330 C 485.728 330 487.436 330.151 488.168 330.336 C 488.901 330.521 489.188 330.492 488.806 330.271 C 488.425 330.051 488.39 329.147 488.73 328.262 C 489.196 327.047 488.924 326.815 487.622 327.315 C 486.457 327.762 486.129 327.601 486.612 326.819 C 487.1 326.028 486.759 325.879 485.537 326.347 C 481.663 327.834 481 325.511 481 310.437 C 481 302.561 481.337 295.908 481.75 295.652 C 482.163 295.396 482.364 301.736 482.197 309.74 C 482.03 317.745 482.255 324.657 482.697 325.1 C 483.139 325.543 483.364 319.402 483.199 311.453 L 482.897 297 L 486.199 296.882 L 489.5 296.763 L 486.5 296 L 483.5 295.237 L 486.25 295.118 C 490.344 294.942 489.575 293.168 485.25 292.81 L 481.5 292.5 L 481.198 287.25 C 481.031 284.363 480.506 282 480.03 282 C 479.553 282 478.564 281.849 477.832 281.664 C 477.099 281.479 476.725 281.479 477 281.663 M 215.612 288.624 C 214.726 291.227 214.033 293.839 214.073 294.428 C 214.113 295.018 215.012 293.061 216.07 290.08 C 217.128 287.099 217.821 284.487 217.609 284.276 C 217.398 284.065 216.499 286.021 215.612 288.624 M 186.343 292.5 C 186.346 296.9 186.522 298.576 186.733 296.224 C 186.945 293.872 186.942 290.272 186.727 288.224 C 186.512 286.176 186.339 288.1 186.343 292.5 M 279.343 292.5 C 279.346 296.9 279.522 298.576 279.733 296.224 C 279.945 293.872 279.942 290.272 279.727 288.224 C 279.512 286.176 279.339 288.1 279.343 292.5 M 250.5 291.953 C 252.158 292.705 252.209 292.871 250.797 292.93 C 248.247 293.035 244.177 295.095 243.613 296.567 C 243.065 297.994 244.756 297.852 249.315 296.089 C 257.415 292.956 263.327 296.118 262.805 303.305 L 262.5 307.5 L 255.083 307.428 C 250.816 307.387 248.48 307.676 249.583 308.108 C 251.366 308.807 251.372 308.864 249.673 308.93 C 248.668 308.968 246.531 310.315 244.923 311.923 C 242.53 314.316 242 315.69 242 319.5 C 242 323.31 242.53 324.684 244.923 327.077 C 248.167 330.32 247.755 330.873 243.973 328.352 C 241.612 326.778 241.575 326.784 243.165 328.481 C 244.369 329.766 246.486 330.291 250.819 330.379 C 254.114 330.446 256.365 330.225 255.821 329.889 C 255.273 329.551 255.575 328.993 256.498 328.639 C 258.793 327.758 259.22 327.835 258.5 329 C 257.494 330.628 258.642 330.14 260.128 328.308 C 261.296 326.867 261.292 326.742 260.095 327.463 C 259.142 328.037 258.92 327.938 259.405 327.155 C 260.451 325.461 260.941 325.715 262 328.5 C 262.724 330.403 263.613 330.964 265.725 330.85 L 268.5 330.7 L 265.75 330.284 C 263.959 330.012 263.028 329.28 263.079 328.184 C 263.128 327.143 263.351 326.977 263.662 327.75 C 263.94 328.438 264.698 329 265.348 329 C 266.202 329 266.526 325.088 266.515 314.905 C 266.507 307.152 266.837 300.6 267.25 300.346 C 267.663 300.091 267.968 299.121 267.93 298.191 C 267.872 296.795 267.695 296.849 266.916 298.5 C 266.103 300.223 266.024 300.123 266.342 297.78 C 266.545 296.284 266.377 295.267 265.969 295.519 C 265.561 295.772 264.68 295.32 264.013 294.515 C 262.872 293.14 260.342 292.5 252 291.477 C 249.328 291.149 248.973 291.261 250.5 291.953 M 298.405 293.172 C 297.357 294.366 297.121 294.979 297.88 294.533 C 298.833 293.973 299.103 294.151 298.755 295.111 C 298.477 295.875 297.787 296.402 297.221 296.282 C 296.655 296.162 295.586 296.811 294.846 297.724 C 293.712 299.122 293.717 299.253 294.88 298.553 C 295.834 297.978 296.117 298.15 295.796 299.111 C 295.542 299.875 294.831 300.5 294.217 300.5 C 293.603 300.5 292.515 301.129 291.8 301.897 C 290.842 302.926 290.829 303.108 291.75 302.588 C 293.611 301.537 293.262 303.543 291.308 305.128 C 289.849 306.311 289.738 306.294 290.5 305 C 291.262 303.706 291.151 303.689 289.692 304.872 C 287.766 306.434 287.406 307.485 289.17 306.395 C 289.942 305.918 290.135 306.205 289.739 307.239 C 289.408 308.101 289.767 309.637 290.537 310.653 C 292.289 312.965 292.396 314.346 290.75 313.399 C 290.024 312.981 289.849 313.061 290.333 313.59 C 290.792 314.09 291.654 314.5 292.25 314.5 C 292.846 314.5 293.542 315.125 293.796 315.889 C 294.113 316.839 293.823 317.026 292.88 316.479 C 292.065 316.007 291.841 316.052 292.333 316.59 C 292.792 317.09 293.654 317.5 294.25 317.5 C 294.846 317.5 295.542 318.125 295.796 318.889 C 296.113 319.839 295.823 320.026 294.88 319.479 C 294.065 319.007 293.841 319.052 294.333 319.59 C 294.792 320.09 295.654 320.5 296.25 320.5 C 296.846 320.5 297.542 321.125 297.796 321.889 C 298.105 322.815 297.831 323.014 296.975 322.485 C 296.127 321.96 295.937 322.088 296.415 322.862 C 296.813 323.506 297.535 323.788 298.019 323.488 C 299.04 322.857 301.326 326.664 300.615 327.813 C 300.353 328.238 301.457 328.686 303.069 328.808 C 304.681 328.931 306 328.548 306 327.957 C 306 327.366 306.52 327.203 307.155 327.595 C 307.876 328.041 308.037 327.869 307.585 327.138 C 307.187 326.494 306.366 326.274 305.761 326.648 C 305.057 327.083 304.886 326.74 305.286 325.696 C 305.631 324.798 305.413 323.755 304.802 323.378 C 304.074 322.928 303.967 323.175 304.492 324.095 C 305.05 325.074 304.966 325.197 304.214 324.5 C 302.354 322.777 292.875 307.805 294.139 308.586 C 294.936 309.079 295.145 308.82 294.76 307.817 C 294.437 306.974 295.277 305.024 296.663 303.403 C 298.028 301.806 298.819 301.175 298.42 302 C 298.022 302.825 297.019 304.288 296.193 305.25 C 295.366 306.212 294.947 307 295.261 307 C 295.575 307 297.324 305.087 299.147 302.75 C 300.97 300.413 301.683 299.118 300.731 299.872 C 299.779 300.627 299 300.795 299 300.245 C 299 298.977 301.513 296.846 302.2 297.533 C 302.483 297.816 303.342 297.276 304.107 296.332 C 305.302 294.86 305.298 294.738 304.08 295.472 C 302.996 296.126 302.822 295.907 303.344 294.545 C 303.911 293.067 303.603 292.843 301.545 293.236 C 300.178 293.497 299.298 293.326 299.589 292.856 C 299.88 292.385 301.468 292 303.118 292 C 305.131 292 305.883 292.38 305.405 293.155 C 304.962 293.87 305.13 294.038 305.845 293.595 C 308.037 292.241 306.99 291 303.655 291 C 301.473 291 299.648 291.755 298.405 293.172 M 334 292.577 L 336.5 294.083 L 334 293.297 C 330.708 292.262 324.101 292.295 321.125 293.363 C 319.256 294.033 318.917 293.925 319.536 292.857 C 319.969 292.111 319.125 292.591 317.661 293.924 C 314.901 296.439 314.169 297.632 316.13 296.42 C 316.822 295.992 317.064 296.26 316.755 297.111 C 316.477 297.875 315.856 298.426 315.375 298.335 C 314.894 298.244 314.351 302.558 314.169 307.922 C 313.923 315.16 314.245 318.651 315.419 321.46 C 317.325 326.022 317.348 326.297 315.75 325.474 C 315.063 325.12 315.97 326.218 317.766 327.915 C 319.562 329.612 321.812 330.982 322.766 330.961 C 323.777 330.938 323.194 330.354 321.37 329.56 C 319.649 328.81 317.973 327.765 317.647 327.237 C 317.32 326.709 318.729 327.073 320.777 328.047 C 324.52 329.825 336.375 331.487 333.835 329.877 C 332.962 329.323 332.904 329.025 333.668 329.015 C 334.311 329.007 335.661 328.733 336.668 328.406 C 338.225 327.9 338.275 327.987 337 328.982 C 335.667 330.022 335.667 330.107 337 329.743 C 337.825 329.518 338.556 328.808 338.625 328.167 C 338.89 325.692 339.061 325.547 340 327 C 340.533 327.825 340.976 327.987 340.985 327.361 C 340.993 326.734 340.212 325.258 339.25 324.081 L 337.5 321.94 L 333.539 323.97 C 331.36 325.087 330.247 326 331.066 326 C 331.885 326 333.556 325.299 334.779 324.442 C 336.003 323.585 337.453 323.162 338.002 323.501 C 339.678 324.537 339.12 325.492 336.75 325.646 C 335.512 325.726 332.925 326.21 331 326.722 C 323.149 328.809 317.486 323.726 318.191 315.225 L 318.5 311.5 L 329.25 311.216 C 338.598 310.969 340.009 310.708 340.07 309.216 C 340.129 307.787 340.284 307.835 341 309.5 C 341.645 311.001 341.852 310.377 341.83 307 C 341.805 303.158 341.671 302.865 340.917 305 C 340.224 306.96 340.113 306.527 340.405 303 C 340.609 300.525 340.552 299.1 340.277 299.832 C 339.953 300.7 339.119 300.081 337.889 298.058 C 335.539 294.193 335.503 293.401 337.75 295.002 C 338.712 295.688 338.237 295.068 336.694 293.625 C 335.151 292.181 333.351 291.016 332.694 291.035 C 332.037 291.055 332.625 291.749 334 292.577 M 379.832 291.702 C 380.709 292.044 380.103 292.867 378.058 294.111 C 374.19 296.463 373.37 296.502 375.097 294.25 C 375.835 293.288 375.258 293.551 373.814 294.836 C 371.196 297.165 371.187 297.166 370.527 295.086 C 368.758 289.512 368 294.322 368 311.117 C 368 328.741 368.054 329.219 370 328.71 C 371.1 328.423 372 328.567 372 329.03 C 372 329.494 370.538 330.055 368.75 330.277 C 365.587 330.669 365.601 330.684 369.294 330.84 L 373.088 331 L 372.949 315.467 C 372.812 300.243 373.389 297 376.233 297 C 376.777 297 376.159 297.927 374.861 299.059 L 372.5 301.119 L 375.241 299.45 C 376.749 298.532 377.764 297.428 377.497 296.995 C 376.24 294.961 383.723 294.326 386.277 296.25 C 387.677 297.304 387.981 299.963 388.218 313.25 C 388.477 327.692 388.651 328.999 390.314 329 C 392.01 329 392.108 327.856 391.814 311.591 C 391.642 302.016 391.831 294.703 392.235 295.341 C 392.762 296.173 392.974 296.181 392.985 295.372 C 392.993 294.752 392.239 293.627 391.308 292.872 C 390.158 291.94 389.857 291.901 390.367 292.75 C 391.246 294.213 390.534 294.34 388.184 293.139 C 387.258 292.666 384.7 292.032 382.5 291.731 C 380.3 291.43 379.1 291.417 379.832 291.702 M 417.023 292.043 C 414.01 292.48 411.085 292.576 410.523 292.258 C 409.96 291.94 409.842 292.056 410.259 292.515 C 411.265 293.624 406.998 298.117 405.7 297.315 C 405.144 296.971 404.997 297.186 405.373 297.794 C 405.748 298.401 405.619 300.833 405.086 303.199 C 403.951 308.24 402.883 322.679 403.918 319 C 404.597 316.584 404.643 316.613 405.306 319.853 C 405.683 321.697 405.696 323.722 405.335 324.353 C 404.974 324.984 405.056 325.158 405.515 324.741 C 406.404 323.934 411.193 327.869 410.573 328.895 C 410.371 329.228 412.837 329.628 416.052 329.785 C 423.387 330.142 429.305 327.978 428.303 325.305 C 427.706 323.714 427.827 323.664 429.325 324.883 C 430.725 326.021 430.802 326.551 429.762 327.883 C 428.645 329.314 428.698 329.345 430.222 328.151 C 431.851 326.874 431.851 326.674 430.222 324.435 C 428.641 322.262 426.416 321.474 427.175 323.356 C 427.761 324.81 422.586 326.928 418.361 326.965 C 415.863 326.986 413.365 326.306 412.061 325.25 C 409.851 323.459 407.467 316 409.105 316 C 409.597 316 410 315.325 410 314.5 C 410 313.258 411.882 313 420.941 313 C 426.959 313 432.092 312.663 432.349 312.25 C 432.605 311.837 427.273 311.725 420.5 312 C 413.727 312.275 408.395 312.163 408.651 311.75 C 408.908 311.337 414.041 311 420.059 311 L 431 311 L 431.014 308.25 C 431.021 306.738 431.255 304.375 431.534 303 C 431.976 300.821 431.919 300.757 431.091 302.5 L 430.141 304.5 L 429.914 302.5 C 429.789 301.4 429.599 299.239 429.492 297.698 C 429.385 296.157 428.725 294.357 428.026 293.698 C 427.003 292.733 426.977 292.931 427.894 294.715 L 429.033 296.93 L 425.657 294.715 C 423.532 293.321 422.692 292.228 423.39 291.765 C 424.634 290.942 424.615 290.943 417.023 292.043 M 458.247 292.25 C 456.839 294.015 453.991 299.744 454.047 300.7 C 454.072 301.14 455.229 299.317 456.617 296.649 C 458.99 292.087 459.346 291.822 462.571 292.198 C 464.457 292.418 466 292.239 466 291.799 C 466 290.501 459.334 290.888 458.247 292.25 M 560.5 291.974 C 562.153 292.706 562.205 292.872 560.797 292.93 C 559.86 292.968 557.966 293.514 556.588 294.142 C 554.548 295.072 554.266 295.629 555.076 297.142 C 555.789 298.474 555.73 299 554.869 299 C 554.207 299 553.933 299.266 554.258 299.592 C 554.584 299.917 555.671 299.706 556.675 299.122 C 558.093 298.297 558.166 298.036 557 297.949 C 553.829 297.713 561.718 295.088 565.727 295.045 C 570.954 294.989 573.295 297.84 572.815 303.674 L 572.5 307.5 L 565.083 307.428 C 560.816 307.387 558.48 307.676 559.583 308.108 C 560.637 308.521 560.974 308.891 560.332 308.93 C 559.689 308.968 558.378 309.301 557.418 309.67 C 556.164 310.151 555.893 309.982 556.457 309.07 C 557.076 308.068 556.794 308.04 555.121 308.935 C 552.559 310.307 552.314 311.194 554.75 310.281 C 556.27 309.712 556.323 309.843 555.154 311.281 C 554.414 312.191 553.345 312.838 552.779 312.718 C 552.213 312.598 551.547 313.175 551.299 314 C 551 314.994 551.127 315.112 551.674 314.35 C 552.143 313.696 552.508 315.934 552.518 319.534 C 552.529 323.241 552.186 325.377 551.692 324.684 C 551.107 323.864 550.973 323.961 551.257 325 C 551.482 325.825 552.154 326.5 552.75 326.5 C 554.14 326.5 555.5 327.86 555.5 329.25 C 555.5 329.846 556.175 330.518 557 330.743 C 558.183 331.066 558.221 330.956 557.176 330.221 C 556.287 329.596 557.436 329.318 560.676 329.373 C 563.329 329.419 566.361 329.052 567.414 328.558 C 568.792 327.912 569.126 327.988 568.605 328.83 C 567.515 330.594 568.566 330.234 570.128 328.308 C 571.296 326.867 571.292 326.742 570.095 327.463 C 569.083 328.073 568.916 327.945 569.498 327.003 C 570.135 325.972 570.568 326.057 571.552 327.402 C 572.496 328.693 572.924 328.791 573.32 327.803 C 573.715 326.818 573.861 326.805 573.921 327.75 C 573.964 328.438 574.675 329 575.5 329 C 576.766 329 577 326.676 577 314.082 C 577 305.877 577.267 298.339 577.594 297.332 C 578.031 295.985 577.936 295.853 577.233 296.834 C 576.462 297.911 576.155 297.848 575.639 296.502 C 574.758 294.207 574.835 293.78 576 294.5 C 577.628 295.506 577.14 294.358 575.308 292.872 C 573.864 291.701 573.741 291.708 574.472 292.92 C 575.123 294 574.908 294.179 573.571 293.666 C 569.618 292.149 557.292 290.553 560.5 291.974 M 592.25 291.716 C 594.005 291.982 594.994 292.742 594.985 293.816 C 594.971 295.271 594.835 295.296 593.985 294 C 591.913 290.844 591.477 295.405 591.489 320.159 C 591.499 343.467 591.639 345.499 593.25 345.81 C 594.818 346.112 595 345.155 595 336.632 C 595 327.171 595.918 324.508 598.337 326.946 C 599.224 327.84 599.084 327.96 597.75 327.452 C 596.149 326.843 596.016 327.626 596.191 336.643 L 596.383 346.5 L 596.941 337.5 C 597.421 329.77 597.761 328.455 599.35 328.183 C 600.368 328.009 600.957 328.261 600.658 328.744 C 599.732 330.243 611.546 329.622 613.412 328.073 C 616.623 325.408 618.235 320.706 618.573 313.022 C 618.757 308.833 619.209 304.62 619.577 303.659 C 619.946 302.699 619.966 301.633 619.624 301.29 C 619.281 300.947 618.98 301.529 618.956 302.583 C 618.932 303.637 618.275 302.7 617.497 300.5 C 616.719 298.3 614.913 295.488 613.485 294.25 C 610.462 291.63 611.432 291.251 615.027 293.648 C 617.388 295.222 617.425 295.216 615.835 293.519 C 614.631 292.234 612.514 291.709 608.181 291.621 C 604.886 291.554 602.635 291.775 603.179 292.111 C 603.727 292.449 603.425 293.007 602.502 293.361 C 600.125 294.273 599.787 294.165 600.601 292.75 C 601.019 292.024 600.939 291.849 600.41 292.333 C 599.91 292.792 599.493 293.467 599.485 293.833 C 599.45 295.358 597.773 297 596.25 297 C 594.871 297 594.919 296.756 596.559 295.426 C 597.626 294.56 597.989 294.105 597.364 294.415 C 596.739 294.724 595.993 294.083 595.707 292.989 C 595.329 291.54 594.415 291.041 592.344 291.15 L 589.5 291.3 L 592.25 291.716 M 632.25 291.716 C 634.041 291.988 634.972 292.72 634.921 293.816 C 634.872 294.857 634.649 295.023 634.338 294.25 C 634.06 293.563 633.196 293 632.417 293 C 631.23 293 631 297.304 631 319.5 C 631 345.333 631.05 346 633 346 C 634.842 346 635.015 345.27 635.191 336.75 L 635.383 327.5 L 636 337 L 636.617 346.5 L 636.927 337 C 637.097 331.775 637.203 327.221 637.162 326.88 C 637.12 326.539 638.755 327.13 640.793 328.193 C 645.336 330.562 651.223 330.079 654.422 327.073 C 655.647 325.923 656.84 325.169 657.074 325.398 C 657.683 325.994 658.369 318.636 658.44 310.75 C 658.473 307.038 658.837 304 659.25 304 C 659.663 304 659.968 302.988 659.93 301.75 C 659.864 299.654 659.807 299.635 659.092 301.464 C 658.4 303.233 658.255 303.154 657.631 300.668 C 657.25 299.15 657.25 297.366 657.63 296.704 C 658.01 296.042 657.944 295.842 657.485 296.259 C 657.025 296.677 655.689 296.117 654.516 295.015 C 652.581 293.197 643.09 290.577 642.084 291.583 C 641.855 291.812 642.304 292.007 643.083 292.015 C 644.25 292.028 644.235 292.202 643 293 C 640.951 294.324 639.73 294.246 640.595 292.845 C 641.041 292.124 640.869 291.963 640.138 292.415 C 639.494 292.813 639.212 293.535 639.512 294.019 C 639.811 294.503 639.089 295.417 637.907 296.05 C 636.726 296.682 635.985 296.817 636.262 296.35 C 636.539 295.882 636.383 294.488 635.915 293.25 C 635.29 291.596 634.327 291.04 632.282 291.15 L 629.5 291.3 L 632.25 291.716 M 672.4 294.4 C 670.53 296.27 669.002 298.408 669.004 299.15 C 669.006 299.892 669.883 299.064 670.954 297.308 C 672.024 295.553 674.16 293.433 675.7 292.598 C 677.24 291.763 677.893 291.062 677.15 291.04 C 676.407 291.018 674.27 292.53 672.4 294.4 M 706.445 292.282 C 706.175 292.987 706.076 301.875 706.227 312.032 L 706.5 330.5 L 709.5 330.593 C 712.33 330.681 712.345 330.663 709.75 330.28 L 707 329.873 L 707 311.003 L 707 292.133 L 709.75 291.716 L 712.5 291.3 L 709.719 291.15 C 708.189 291.067 706.716 291.577 706.445 292.282 M 717.373 292.518 C 716.343 293.298 715.893 293.951 716.372 293.968 C 717.537 294.011 715.018 297 713.819 297 C 713.303 297 713.16 296.55 713.5 296 C 713.84 295.45 713.641 295 713.059 295 C 712.477 295 711.971 295.563 711.937 296.25 C 711.902 296.938 711.466 296.488 710.969 295.25 C 708.718 289.65 708 293.459 708 311 C 708 328.333 708.074 329 710 329 C 711.908 329 712 328.333 712 314.559 C 712 304.722 712.368 299.891 713.155 299.405 C 713.918 298.932 714.035 299.134 713.5 300 C 712.961 300.873 713.081 301.068 713.862 300.585 C 714.506 300.187 714.786 299.462 714.484 298.973 C 713.69 297.689 719.382 295 722.894 295 C 728.203 295 729 297.509 729 314.223 C 729 327.923 729.135 329 730.846 329 C 732.563 329 732.683 327.979 732.553 314.431 C 732.477 306.418 732.771 299.642 733.207 299.372 C 733.643 299.103 733.968 298.121 733.93 297.191 C 733.872 295.812 733.701 295.87 733 297.5 C 732.527 298.6 732.109 298.974 732.07 298.332 C 732.032 297.689 731.699 296.378 731.33 295.418 C 730.823 294.097 731.006 293.875 732.08 294.508 C 732.861 294.968 732.643 294.366 731.595 293.172 C 730.547 291.977 729.224 291 728.654 291 C 728.084 291 728.491 291.669 729.559 292.486 C 731.362 293.867 731.287 293.908 728.5 293.072 C 722.432 291.25 719.256 291.092 717.373 292.518 M 760.445 292.282 C 760.175 292.987 760.076 301.875 760.227 312.032 L 760.5 330.5 L 763.372 330.828 C 764.951 331.009 766.638 330.762 767.121 330.279 C 767.624 329.776 766.505 329.576 764.499 329.81 L 761 330.219 L 761 311.176 L 761 292.133 L 763.75 291.716 L 766.5 291.3 L 763.719 291.15 C 762.189 291.067 760.716 291.577 760.445 292.282 M 771.441 292.419 C 770.374 293.2 769.5 294.4 769.5 295.086 C 769.5 295.772 768.938 296.521 768.25 296.75 C 767.556 296.981 766.993 296.351 766.985 295.333 C 766.972 293.784 766.819 293.732 766 295 C 765.172 296.282 765.028 296.246 765.015 294.75 C 765.007 293.788 764.325 293 763.5 293 C 762.222 293 762 295.667 762 311 C 762 327.689 762.132 329 763.806 329 C 765.451 329 765.634 327.735 765.857 314.791 C 766.102 300.594 766.867 297.351 769.712 298.443 C 770.478 298.737 770.843 298.555 770.524 298.039 C 769.708 296.718 773.3 295 776.878 295 C 782.205 295 783 297.496 783 314.223 C 783 328.029 783.124 329 784.883 329 C 786.664 329 786.754 328.06 786.535 311.756 C 786.4 301.765 786.656 295.351 787.143 296.506 C 787.98 298.494 787.982 298.494 787.728 296.5 C 787.587 295.4 787.029 294.488 786.486 294.474 C 785.944 294.46 784.6 293.876 783.5 293.176 C 781.622 291.982 781.653 291.941 784 292.5 C 785.834 292.937 786.098 292.839 784.99 292.132 C 783.329 291.073 775.307 292.23 771.986 294.008 C 770.894 294.592 770 294.844 770 294.567 C 770 294.29 771.237 293.393 772.75 292.572 C 774.263 291.751 775.024 291.062 774.441 291.04 C 773.859 291.018 772.509 291.639 771.441 292.419 M 802.766 294.085 C 800.97 295.782 800.063 296.88 800.75 296.526 C 802.369 295.692 802.284 296.879 800.5 300 C 798.548 303.414 798.548 316.983 800.5 321.654 C 802.321 326.012 802.341 326.318 800.75 325.387 C 800.063 324.985 800.357 325.634 801.405 326.828 C 803.44 329.149 804.571 329.734 803.42 327.87 C 802.996 327.185 803.268 326.923 804.111 327.204 C 804.875 327.458 805.5 328.291 805.5 329.053 C 805.5 330.093 807.163 330.447 812.154 330.47 C 815.938 330.487 818.31 330.142 817.654 329.669 C 816.992 329.193 817.636 329.085 819.163 329.416 C 821.294 329.879 822.344 329.38 824.413 326.921 C 825.836 325.23 827 323.365 827 322.775 C 827 322.186 825.987 323.199 824.75 325.025 C 823.513 326.851 821.825 328.556 821 328.813 C 820.175 329.07 820.701 328.148 822.169 326.763 C 824.792 324.289 826.869 318.928 827.113 314 C 827.228 311.681 827.292 311.717 828 314.5 C 828.564 316.717 828.763 315.673 828.763 310.5 C 828.763 305.327 828.564 304.283 828 306.5 L 827.237 309.5 L 827.118 306.718 C 827.053 305.188 826.328 302.327 825.507 300.362 C 824.685 298.396 824.24 296.421 824.516 295.974 C 824.793 295.526 823.86 294.249 822.444 293.135 C 820.343 291.482 818.917 291.21 814.685 291.657 C 811.833 291.957 807.813 293.001 805.75 293.976 C 801.137 296.157 800.882 295.652 805.25 292.989 C 807.038 291.899 807.945 291.006 807.266 291.004 C 806.587 291.002 804.562 292.388 802.766 294.085 M 854.345 292.543 C 854.019 293.392 854.034 294.367 854.376 294.71 C 854.719 295.053 855 294.61 855 293.727 C 855 292.607 856.136 292.002 858.75 291.728 L 862.5 291.336 L 858.719 291.168 C 856.119 291.053 854.752 291.482 854.345 292.543 M 905.425 292.335 C 905.114 293.146 905.044 295.315 905.27 297.155 C 905.64 300.172 905.696 300.083 905.84 296.25 C 905.97 292.784 906.354 292 907.917 292 C 908.971 292 910.062 292.461 910.342 293.025 C 910.621 293.589 910.736 293.476 910.597 292.775 C 910.23 290.929 906.099 290.578 905.425 292.335 M 915.62 291.805 C 915.347 292.248 915.534 294.386 916.038 296.555 C 916.541 298.725 916.963 302.188 916.976 304.25 C 916.995 307.176 917.384 307.983 918.75 307.921 C 919.795 307.874 919.997 307.639 919.25 307.338 C 918.427 307.006 918.056 304.896 918.163 301.167 L 918.326 295.5 L 919 301 L 919.674 306.5 L 919.837 299.633 C 919.989 293.222 919.867 292.801 918 293.29 C 915.833 293.856 915.203 292.488 917.25 291.662 C 918.151 291.299 918.168 291.136 917.309 291.079 C 916.654 291.036 915.894 291.362 915.62 291.805 M 676.315 293.409 C 673.129 294.849 670.062 299.312 669.93 302.7 C 669.867 304.295 669.763 304.272 669.01 302.5 C 668.18 300.548 668.259 302.878 669.468 316.126 C 669.725 318.946 670.661 322.36 671.548 323.713 C 672.434 325.066 672.934 326.399 672.658 326.675 C 672.382 326.951 671.464 325.9 670.618 324.338 C 669.772 322.777 669.062 322.037 669.04 322.694 C 669.018 323.351 670.161 325.151 671.581 326.694 C 673 328.237 673.837 328.879 673.441 328.12 C 672.959 327.195 673.179 326.907 674.111 327.245 C 674.875 327.523 675.403 328.21 675.284 328.772 C 675.165 329.335 676.065 329.577 677.284 329.311 C 678.873 328.964 679.122 329.095 678.165 329.775 C 676.193 331.175 686.795 330.041 690.75 328.428 C 692.538 327.699 694 326.603 694 325.992 C 694 325.381 694.562 325.21 695.25 325.613 C 695.938 326.015 695.656 325.381 694.624 324.204 C 693.16 322.534 692.337 322.285 690.874 323.067 C 689.843 323.619 689 324.295 689 324.57 C 689 324.845 689.9 324.589 691 324 C 692.1 323.411 693 323.159 693 323.439 C 693 324.618 686.462 327.2 683.477 327.2 C 677.688 327.2 675.024 324.851 673.608 318.5 C 673.119 316.308 673.213 315.904 673.954 317 C 674.761 318.192 674.973 317.942 674.985 315.783 L 675 313.066 L 686.25 312.747 L 697.5 312.428 L 685.823 312.214 C 677.216 312.056 674.036 312.329 673.727 313.25 C 673.485 313.97 673.353 313.864 673.416 313 C 673.504 311.78 675.624 311.447 684.762 311.217 C 694.91 310.962 696 310.756 696 309.092 C 696 308.079 696.219 305.731 696.486 303.875 C 696.902 300.99 696.844 300.863 696.086 303 L 695.199 305.5 L 694.929 302.5 C 694.78 300.85 694.614 298.6 694.56 297.5 C 694.506 296.4 693.796 295.5 692.981 295.5 C 692.166 295.5 691.5 294.975 691.5 294.333 C 691.5 293.692 691.09 292.792 690.59 292.333 C 690.05 291.839 690.015 292.078 690.504 292.92 C 691.145 294.024 690.902 294.166 689.414 293.559 C 685.715 292.051 679.477 291.98 676.315 293.409 M 366.415 311 C 366.415 321.175 366.564 325.337 366.745 320.25 C 366.927 315.162 366.927 306.837 366.745 301.75 C 366.564 296.662 366.415 300.825 366.415 311 M 441 294.059 C 441 294.641 440.48 294.797 439.845 294.405 C 439.124 293.959 438.963 294.131 439.415 294.862 C 439.813 295.506 440.535 295.788 441.019 295.488 C 441.503 295.189 442.372 295.827 442.95 296.906 C 444.315 299.457 444.28 300.291 442.845 299.405 C 442.124 298.959 441.963 299.131 442.415 299.862 C 442.813 300.506 443.514 300.8 443.974 300.516 C 444.434 300.232 446.004 302.037 447.463 304.527 L 450.116 309.054 L 446.979 314.537 C 445.162 317.712 443.389 319.74 442.766 319.356 C 442.138 318.967 441.98 319.159 442.386 319.816 C 443.284 321.268 440.215 327.251 438.969 326.481 C 438.449 326.159 438.292 326.598 438.621 327.456 C 439.56 329.901 444.631 329.129 444.558 326.552 C 444.526 325.423 445.046 324.607 445.714 324.738 C 446.382 324.869 446.701 324.384 446.424 323.661 C 446.146 322.938 447.057 320.356 448.447 317.923 C 449.838 315.49 450.981 314.063 450.988 314.75 C 450.995 315.438 451.498 316 452.107 316 C 452.716 316 452.955 315.325 452.638 314.5 C 452.322 313.675 452.269 313 452.52 313 C 452.772 313 454.788 316.6 457 321 C 460.002 326.97 461.527 329 463.011 329 C 464.105 329 465 328.523 465 327.941 C 465 327.359 465.52 327.203 466.155 327.595 C 466.876 328.041 467.037 327.869 466.585 327.138 C 466.187 326.494 465.481 326.203 465.016 326.49 C 464.016 327.108 455 310.947 455 308.537 C 455 307.627 455.445 307.157 455.989 307.493 C 456.576 307.856 456.71 307.407 456.319 306.388 C 455.891 305.273 456.046 304.91 456.761 305.352 C 457.366 305.726 458.187 305.506 458.585 304.862 C 459.037 304.131 458.876 303.959 458.155 304.405 C 456.72 305.291 456.685 304.457 458.05 301.906 C 458.628 300.827 459.497 300.189 459.981 300.488 C 460.465 300.788 461.187 300.506 461.585 299.862 C 462.037 299.131 461.876 298.959 461.155 299.405 C 459.564 300.387 459.762 298.899 461.532 296.559 C 463.49 293.97 463.382 293 461.137 293 C 459.825 293 458.476 294.777 456.58 299 C 455.1 302.3 453.697 305 453.464 305 C 453.231 305 452.122 303.2 451 301 C 449.878 298.8 448.732 297 448.454 297 C 448.176 297 448.668 298.392 449.548 300.093 C 452.369 305.547 450.565 304.082 447.512 298.439 C 445.643 294.984 443.919 293 442.785 293 C 441.803 293 441 293.477 441 294.059 M 835.572 295.568 C 835.204 297.035 835.15 298.483 835.451 298.785 C 835.753 299.086 836.035 298.471 836.077 297.417 C 836.139 295.876 841.17 313.393 844.34 326.184 C 844.82 328.12 845.77 328.984 847.752 329.284 C 850.365 329.68 850.344 329.708 847.323 329.85 C 845.076 329.956 843.996 329.488 843.631 328.25 C 843.23 326.89 843.161 326.946 843.321 328.5 C 843.484 330.078 844.263 330.5 847.014 330.5 C 849.904 330.5 850.464 330.158 850.287 328.5 C 850.169 327.4 851.595 320.425 853.455 313 C 855.315 305.575 856.889 300.4 856.954 301.5 C 857.064 303.382 857.145 303.366 858.327 301.239 C 859.464 299.19 859.852 300.083 862.446 310.739 C 867.022 329.535 866.741 328.825 869.779 329.287 C 872.333 329.675 872.305 329.71 869.323 329.85 C 867.553 329.934 865.961 329.446 865.727 328.75 C 865.486 328.031 865.354 328.138 865.417 329 C 865.493 330.025 866.63 330.5 869.014 330.5 C 871.843 330.5 872.441 330.154 872.186 328.664 C 871.653 325.542 880.312 294.567 881.134 296.656 C 881.533 297.67 881.891 297.974 881.93 297.332 C 882.073 294.955 880.734 293 878.964 293 C 877.555 293 876.876 294.279 875.97 298.645 C 875.112 302.778 874.539 303.917 873.833 302.895 C 873.137 301.887 873.042 302.115 873.491 303.715 C 873.833 304.933 873.326 309.59 872.365 314.064 C 870.89 320.929 870.427 321.936 869.396 320.527 C 868.265 318.981 868.134 318.992 867.628 320.678 C 867.328 321.68 867.218 320.475 867.383 318 C 867.548 315.525 867.478 314.4 867.228 315.5 C 866.977 316.605 865.57 312.566 864.083 306.473 C 861.022 293.924 860.603 293 857.98 293 C 856.622 293 855.796 294.075 855.096 296.75 C 851.764 309.48 849.985 317.127 849.882 319.167 C 849.784 321.1 849.648 320.986 849.089 318.5 L 848.415 315.5 L 847.591 319 L 846.766 322.5 L 845.941 319.5 C 843.595 310.975 842.322 304 843.112 304 C 843.6 304 844 303.475 844 302.833 C 844 302.192 843.673 301.994 843.272 302.394 C 842.872 302.794 841.86 300.961 841.022 298.32 C 839.264 292.773 836.61 291.433 835.572 295.568 M 907.76 299.601 C 908.162 304.606 907.953 306.416 906.895 307.086 C 905.753 307.809 905.792 307.972 907.111 307.985 C 908.359 307.997 908.847 306.619 909.278 301.866 C 909.837 295.701 909.45 293 908.008 293 C 907.58 293 907.469 295.971 907.76 299.601 M 323.315 295.192 C 320.869 296.374 317.551 302.312 319.045 302.833 C 319.57 303.017 320 304.01 320 305.041 C 320 306.683 320.961 306.958 327.75 307.257 L 335.5 307.598 L 327.32 307.799 C 319.57 307.989 319.114 307.882 318.656 305.75 C 318.23 303.767 318.192 303.797 318.336 306 C 318.497 308.458 318.644 308.5 327 308.5 L 335.5 308.5 L 335.808 304.231 C 336.07 300.609 335.665 299.511 333.135 296.981 C 330.04 293.887 327.117 293.354 323.315 295.192 M 412.462 296.279 C 410.818 297.693 409.528 300.111 409.065 302.647 L 408.317 306.735 L 416.658 306.919 C 424.72 307.097 425.004 307.025 425.118 304.801 C 425.217 302.881 425.363 302.997 426 305.5 L 426.763 308.5 L 426.882 305.718 C 427.277 296.411 418.777 290.847 412.462 296.279 M 677.784 295.955 C 676.291 297.13 674.606 299.758 674.04 301.795 C 672.755 306.421 672.741 307.948 674 306 C 674.646 305 674.974 304.917 674.985 305.75 C 674.996 306.636 677.161 307 682.43 307 C 689.341 307 689.891 306.843 690.294 304.75 C 690.666 302.821 690.747 302.892 690.864 305.25 L 691 308 L 682.25 308.204 L 673.5 308.407 L 681.907 308.747 C 686.531 308.933 690.74 308.66 691.261 308.139 C 692.572 306.828 691.185 299.445 689.163 296.972 C 686.613 293.854 681.084 293.36 677.784 295.955 M 808.838 295.096 C 804.818 296.624 803 301.526 803 310.836 C 803 318.734 804.258 324.577 805.759 323.649 C 806.179 323.39 807.391 323.812 808.452 324.589 C 809.514 325.365 809.936 326 809.391 326 C 808.846 326 807.86 325.46 807.2 324.8 C 806.473 324.073 806 324.009 806 324.639 C 806 325.211 807.125 326.192 808.5 326.818 C 810.021 327.511 811 327.574 811 326.979 C 811 326.44 812.013 326.032 813.25 326.07 C 815.413 326.138 815.422 326.177 813.5 327.086 C 811.927 327.829 812.139 327.904 814.494 327.435 C 816.141 327.107 818.124 326.313 818.899 325.67 C 824.481 321.042 824.419 300.908 818.81 296.256 C 816.655 294.469 811.931 293.92 808.838 295.096 M 598.967 297.241 L 595.5 299.575 L 595.219 311.187 L 594.938 322.799 L 598.337 324.899 C 603.049 327.811 608.434 327.657 611.571 324.52 C 613.873 322.218 614.021 321.485 613.64 314.27 C 613.353 308.845 613.462 307.707 613.999 310.5 C 614.568 313.461 614.664 312.682 614.369 307.5 C 613.863 298.623 611.91 295.622 606.367 295.203 C 603.547 294.99 601.454 295.567 598.967 297.241 M 638.967 297.24 L 635.5 299.574 L 635.208 309.537 C 634.873 320.945 635.301 323.518 637.685 324.433 C 639.269 325.04 639.267 324.953 637.659 323.175 C 636.196 321.559 635.979 319.591 636.252 310.382 L 636.575 299.5 L 636.788 310.693 C 636.971 320.338 637.258 322.067 638.866 323.193 C 639.892 323.912 640.792 324.95 640.866 325.5 C 640.94 326.05 643.089 326.5 645.642 326.5 C 649.571 326.5 650.608 326.066 652.392 323.677 C 654.202 321.252 654.5 319.462 654.5 311 C 654.5 302.553 654.2 300.744 652.4 298.323 C 649.52 294.451 643.797 293.989 638.967 297.24 M 393.223 313.187 L 393 329.873 L 389.75 330.277 L 386.5 330.68 L 389.781 330.84 C 391.668 330.932 393.273 330.452 393.558 329.71 C 393.83 329 393.916 321.238 393.749 312.46 L 393.445 296.5 L 393.223 313.187 M 522.635 299.073 L 520 301.145 L 520.219 315.323 L 520.439 329.5 L 520.725 315.5 C 521.01 301.596 521.031 301.485 523.756 299.255 C 527.207 296.431 526.201 296.267 522.635 299.073 M 541.223 313.187 L 541 329.873 L 537.75 330.277 L 534.5 330.68 L 537.781 330.84 C 539.668 330.932 541.273 330.452 541.558 329.71 C 541.83 329 541.916 321.238 541.749 312.46 L 541.445 296.5 L 541.223 313.187 M 261 302.443 C 261 305.766 260.853 305.898 256.75 306.268 L 252.5 306.651 L 257.25 306.825 L 262 307 L 262 303 C 262 300.8 261.775 299 261.5 299 C 261.225 299 261 300.549 261 302.443 M 596.667 299.667 C 596.3 300.033 596 305.271 596 311.306 C 596 320.584 596.27 322.485 597.75 323.608 C 598.712 324.339 599.938 324.951 600.473 324.968 C 601.007 324.986 600.418 324.281 599.164 323.402 C 596.981 321.873 596.896 321.311 597.191 310.4 C 597.361 304.128 597.462 298.997 597.417 298.998 C 597.371 298.999 597.033 299.3 596.667 299.667 M 727.461 314.749 L 727.5 330.5 L 731 330.631 C 734.451 330.759 734.455 330.755 731.275 330.319 L 728.05 329.877 L 727.736 314.437 L 727.421 298.998 L 727.461 314.749 M 781.461 314.749 L 781.5 330.5 L 785 330.631 C 788.451 330.759 788.455 330.755 785.275 330.319 L 782.05 329.877 L 781.736 314.437 L 781.421 298.998 L 781.461 314.749 M 911.78 302.044 C 911.324 305.153 912.507 306.914 914.01 305.363 C 914.985 304.357 914.132 299 912.997 299 C 912.573 299 912.026 300.37 911.78 302.044 M 767.343 307.5 C 767.346 311.9 767.522 313.576 767.733 311.224 C 767.945 308.872 767.942 305.272 767.727 303.224 C 767.512 301.176 767.339 303.1 767.343 307.5 M 371.328 308.5 C 371.333 312.35 371.513 313.802 371.73 311.728 C 371.946 309.653 371.943 306.503 371.722 304.728 C 371.501 302.952 371.324 304.65 371.328 308.5 M 797.343 310.5 C 797.346 314.9 797.522 316.576 797.733 314.224 C 797.945 311.872 797.942 308.272 797.727 306.224 C 797.512 304.176 797.339 306.1 797.343 310.5 M 312.336 311 C 312.336 315.125 312.513 316.813 312.728 314.75 C 312.944 312.688 312.944 309.313 312.728 307.25 C 312.513 305.188 312.336 306.875 312.336 311 M 653.32 311 C 653.32 314.575 653.502 316.038 653.723 314.25 C 653.945 312.462 653.945 309.538 653.723 307.75 C 653.502 305.962 653.32 307.425 653.32 311 M 412.75 308.732 C 415.087 308.943 418.913 308.943 421.25 308.732 C 423.587 308.522 421.675 308.349 417 308.349 C 412.325 308.349 410.413 308.522 412.75 308.732 M 296.524 311.566 C 297.453 313.252 299.103 315.727 300.19 317.066 L 302.167 319.5 L 300.476 316.434 C 299.547 314.748 297.897 312.273 296.81 310.934 L 294.833 308.5 L 296.524 311.566 M 250.315 310.984 C 247.609 312.103 245.996 314.99 246.014 318.684 C 246.032 322.569 247.046 326 248.176 326 C 248.694 326 248.797 325.48 248.405 324.845 C 247.959 324.124 248.131 323.963 248.862 324.415 C 249.506 324.813 249.793 325.526 249.5 326 C 249.207 326.474 249.425 327.144 249.984 327.49 C 250.543 327.835 251 327.641 251 327.059 C 251 326.477 252.012 326.032 253.25 326.07 C 255.413 326.138 255.422 326.177 253.5 327.086 C 251.89 327.846 252.062 327.92 254.381 327.464 C 258.188 326.714 261.861 324.001 262.564 321.42 C 262.876 320.276 262.989 317.351 262.816 314.92 L 262.5 310.5 L 257.5 310.29 C 254.75 310.175 251.517 310.487 250.315 310.984 M 560.364 311.17 C 557.772 312.424 556 316.049 556 320.093 C 556 323.302 559.796 328 562.389 328 C 564.951 328 569.145 326.043 568.571 325.115 C 568.269 324.626 568.692 323.671 569.511 322.991 C 570.33 322.311 571.072 320.123 571.16 318.128 L 571.32 314.5 L 571.73 317.844 C 572.003 320.068 571.563 321.825 570.415 323.094 C 569.466 324.142 569.12 325 569.645 325 C 571.929 325 573 322.222 573 316.3 L 573 310 L 567.75 310.068 C 564.862 310.105 561.539 310.601 560.364 311.17 M 261.185 315.921 C 261.069 319.334 260.365 322.113 259.287 323.421 L 257.574 325.5 L 259.845 323.414 C 261.785 321.633 262.061 320.538 261.743 315.914 L 261.37 310.5 L 261.185 315.921 M 324.789 312.741 C 328.248 312.937 333.648 312.936 336.789 312.738 C 339.93 312.54 337.1 312.38 330.5 312.382 C 323.9 312.384 321.33 312.546 324.789 312.741 M 186.432 322.747 L 186.5 330.5 L 190 330.5 L 193.5 330.5 L 193.568 322.747 L 193.635 314.993 L 193.275 322.497 L 192.916 330 L 190 330 L 187.084 330 L 186.725 322.497 L 186.365 314.993 L 186.432 322.747 M 578.196 322.184 C 578.003 329.74 577.955 329.874 575.25 330.284 L 572.5 330.7 L 575.281 330.85 C 578.779 331.039 579.182 329.938 578.745 321.401 L 578.392 314.5 L 578.196 322.184 M 453.059 316.275 C 453.027 316.701 454.581 320.189 456.513 324.025 C 459.977 330.905 460.08 331 464.013 331 C 466.206 331 468 330.651 468 330.224 C 468 329.797 466.313 329.607 464.25 329.802 C 460.502 330.156 460.498 330.153 456.809 322.828 C 454.78 318.798 453.092 315.849 453.059 316.275 M 885.96 322.548 C 885.348 323.286 885.045 324.927 885.287 326.195 C 885.686 328.282 885.741 328.245 885.864 325.809 C 885.939 324.329 886.385 322.88 886.856 322.589 C 887.326 322.298 887.485 323.242 887.209 324.687 C 886.606 327.843 889.357 330.414 891.888 329.06 C 892.775 328.585 893.95 328.265 894.5 328.349 C 895.05 328.432 895.591 327.375 895.702 326 L 895.903 323.5 L 895.051 326 C 894.28 328.263 894.19 328.298 894.1 326.372 C 893.929 322.732 888.086 319.987 885.96 322.548 M 436.667 328.667 C 435.077 330.256 436.289 330.989 440.25 330.832 L 444.5 330.664 L 440.729 330.27 C 438.655 330.054 437.219 329.454 437.538 328.938 C 438.207 327.857 437.65 327.683 436.667 328.667" stroke-linecap="round" />
</g>
		<g transform="matrix(1 0 0 1 0 0)"  >
<path style="stroke: none; stroke-width: 1; stroke-dasharray: none; stroke-linecap: butt; stroke-dashoffset: 0; stroke-linejoin: miter; stroke-miterlimit: 4; fill: rgb(13,107,146); fill-rule: evenodd; opacity: 1;" vector-effect="non-scaling-stroke"  transform=" translate(-459.97, -173.25)" d="M 0 59 L 0 118 L 88.5 118 L 177 118 L 177 59 L 177 0 L 88.5 0 L 0 0 L 0 59 M 187 59 L 187 118 L 246 118 L 305 118 L 305 59 L 305 0 L 246 0 L 187 0 L 187 59 M 227.232 15.052 C 224.354 16.696 222 18.307 222 18.634 C 222 18.96 226.798 28.262 232.662 39.305 L 243.324 59.383 L 241.294 62.942 C 234.735 74.437 222 98.144 222 98.858 C 222 99.322 224.248 101.098 226.995 102.806 L 231.991 105.912 L 244.282 91.206 C 251.042 83.118 259.796 72.617 263.734 67.872 L 270.895 59.244 L 252.331 36.372 C 242.121 23.792 233.474 13.177 233.115 12.782 C 232.757 12.387 230.11 13.409 227.232 15.052 M 107.187 27.25 C 107.448 29.958 107.959 30.553 110.25 30.816 L 113 31.133 L 113 61.066 L 113 91 L 117.094 91 C 120.29 91 121.297 90.579 121.69 89.079 C 122.173 87.232 122.367 87.251 126.745 89.579 C 135.073 94.007 143.879 92.119 147.849 85.054 C 150.673 80.03 152.169 68.269 151.019 60.133 C 149.28 47.829 144.101 42.493 134.686 43.304 C 131.86 43.547 128.659 44.615 126.936 45.889 L 124 48.06 L 124 36.03 L 124 24 L 115.437 24 L 106.873 24 L 107.187 27.25 M 36.5 44.412 C 34.85 45.145 32.375 46.964 31 48.453 C 28.912 50.714 28.5 52.15 28.5 57.157 C 28.5 62.769 28.732 63.366 32.115 66.467 C 34.236 68.41 38.034 70.449 41.304 71.4 C 47.92 73.323 50 75.141 50 79 C 50 83.103 47.617 85 42.464 85 C 37.809 85 36 83.339 36 79.066 C 36 77.322 35.376 77 32 77 L 28 77 L 28 82.839 C 28 88.221 28.213 88.776 30.714 89.916 C 34.752 91.755 46.103 92.451 50.172 91.108 C 57.988 88.529 61.834 80.087 59.044 71.634 C 57.522 67.023 54.1 64.369 47.092 62.366 C 40.299 60.423 38 58.553 38 54.967 C 38 51.236 40.087 49.821 45.051 50.189 C 48.837 50.469 49.359 50.835 50.374 53.913 C 51.338 56.833 51.969 57.338 54.75 57.413 L 58 57.5 L 58 51.408 L 58 45.317 L 54.134 44.158 C 49.016 42.625 40.236 42.751 36.5 44.412 M 63 47.263 C 63 49.64 63.589 50.794 65.168 51.513 C 66.88 52.292 68.699 56.559 73.797 71.75 L 80.258 91 L 85.379 90.991 L 90.5 90.982 L 97.079 71.741 C 102.248 56.626 104.124 52.288 105.829 51.513 C 107.412 50.793 108 49.641 108 47.263 L 108 44 L 99 44 L 90 44 L 90 47.5 C 90 50.608 90.293 51 92.617 51 C 94.63 51 95.119 51.403 94.74 52.75 C 91.588 63.924 86.838 79.495 86.469 79.864 C 86.211 80.122 86 79.416 86 78.296 C 86 77.175 84.426 71.137 82.503 64.879 C 78.422 51.6 78.357 51 81 51 C 82.619 51 83 50.333 83 47.5 L 83 44 L 73 44 L 63 44 L 63 47.263 M 127.25 52.491 L 124 53.903 L 124 67.395 C 124 80.203 124.113 80.965 126.223 82.443 C 127.445 83.299 130.135 84 132.199 84 C 137.354 84 139.171 81.009 139.78 71.524 C 140.9 54.08 137.049 48.232 127.25 52.491 M 187 186.5 L 187 245 L 541.5 245 L 896 245 L 896 186.5 L 896 128 L 541.5 128 L 187 128 L 187 186.5 M 279 155.892 C 279 158.142 279.554 158.922 281.5 159.411 L 284 160.038 L 284.006 182.769 C 284.011 206.763 284.712 211.985 288.261 214.471 C 290.608 216.114 297.647 216.51 299.837 215.122 C 302.042 213.724 300.822 209.657 298 208.996 L 295.5 208.411 L 295.234 180.705 L 294.968 153 L 286.984 153 L 279 153 L 279 155.892 M 545 155.921 C 545 158.353 545.502 158.951 548 159.5 L 551 160.159 L 551 185.625 L 551 211.091 L 553.455 213.545 C 555.385 215.475 556.934 215.997 560.705 215.985 C 567.007 215.965 568.141 215.173 567.153 211.481 C 566.559 209.26 565.774 208.537 563.934 208.521 L 561.5 208.5 L 561.234 180.75 L 560.968 153 L 552.984 153 L 545 153 L 545 155.921 M 568 155.892 C 568 158.122 568.557 158.923 570.438 159.395 L 572.875 160.007 L 573.188 185.425 C 573.499 210.752 573.509 210.852 575.924 213.421 C 577.851 215.471 579.288 215.997 582.924 215.985 C 588.879 215.965 590.452 214.936 589.616 211.607 C 589.131 209.674 588.321 209 586.481 209 L 584 209 L 584 181 L 584 153 L 576 153 L 568 153 L 568 155.892 M 825 155.892 C 825 158.142 825.554 158.922 827.5 159.411 L 830 160.038 L 830 187.571 L 830 215.105 L 835.25 214.802 L 840.5 214.5 L 840.409 203.635 C 840.304 191.056 839.834 190.923 849.101 206.097 L 854.5 214.937 L 860.816 214.968 C 867.102 215 867.131 214.987 866.816 212.29 C 866.607 210.492 865.77 209.397 864.332 209.04 C 862.995 208.707 859.862 204.989 856.163 199.345 L 850.162 190.191 L 854.694 184.845 C 857.187 181.905 860.525 179.097 862.113 178.605 C 864.413 177.893 865 177.13 865 174.855 L 865 172 L 856.217 172 L 847.434 172 L 847.55 174.75 C 847.634 176.761 848.249 177.586 849.835 177.82 C 851.802 178.11 851.473 178.785 846.302 185.07 C 843.167 188.881 840.55 192 840.488 192 C 840.425 192 840.42 183.225 840.476 172.5 L 840.579 153 L 832.789 153 L 825 153 L 825 155.892 M 227.02 156.752 C 221.531 159.509 219 164.164 219 171.5 C 219 181.426 221.906 184.507 237.651 191.273 C 242.532 193.371 244.558 197.212 243.568 202.491 C 242.658 207.338 239.528 209.188 232.884 208.805 L 227.587 208.5 L 226.494 204 C 225.46 199.742 225.216 199.501 221.951 199.515 L 218.5 199.529 L 218.207 206.126 L 217.915 212.722 L 221.207 214.111 C 223.253 214.974 228.166 215.5 234.177 215.5 C 242.429 215.5 244.269 215.192 246.677 213.408 C 251.92 209.523 254 205.315 253.996 198.602 C 253.99 189.013 249.262 183.232 238.278 179.381 C 231.132 176.876 229.049 175.074 228.355 170.799 C 227.859 167.744 228.192 166.717 230.39 164.519 C 232.603 162.306 233.754 161.939 237.674 162.196 C 242.171 162.49 242.368 162.637 243.447 166.5 C 244.476 170.183 244.839 170.5 248.032 170.5 L 251.5 170.5 L 251.486 164.084 C 251.472 157.669 251.472 157.669 247.986 156.411 C 242.653 154.485 231.159 154.672 227.02 156.752 M 456.184 158.71 C 456.405 160.603 457.215 161.588 458.87 161.975 C 460.973 162.466 461.794 164.388 466.155 179.014 C 468.858 188.081 472.43 199.91 474.093 205.3 L 477.117 215.1 L 482.27 214.8 L 487.423 214.5 L 495.096 188.513 C 502.057 164.937 502.988 162.475 505.134 161.974 C 506.785 161.588 507.596 160.602 507.816 158.71 L 508.133 156 L 498 156 L 487.867 156 L 488.184 158.75 C 488.432 160.91 489.09 161.568 491.25 161.816 C 492.762 161.99 493.985 162.44 493.966 162.816 C 493.874 164.684 483.119 203.282 483.064 201.942 C 483.029 201.085 480.75 191.975 478 181.697 C 475.25 171.42 473 162.813 473 162.572 C 473 162.33 474.238 161.99 475.75 161.816 C 477.91 161.568 478.568 160.91 478.816 158.75 L 479.133 156 L 467.5 156 L 455.867 156 L 456.184 158.71 M 686 158.875 C 686 161.269 686.501 161.85 689 162.35 L 692 162.95 L 692 185.975 L 692 209 L 689 209 C 686.333 209 686 209.333 686 212 L 686 215 L 702.288 215 C 717.191 215 718.956 214.809 723.038 212.75 C 729.095 209.696 731.218 205.451 730.76 197.307 C 730.389 190.687 728.981 188.243 723.649 184.956 C 720.918 183.273 720.887 183.171 722.91 182.529 C 727.835 180.965 729.978 169.726 726.598 163.189 C 723.531 157.259 719.143 156 701.54 156 L 686 156 L 686 158.875 M 703 172 L 703 181 L 708.345 181 C 715.356 181 717 179.258 717 171.826 C 717 164.723 715.277 163 708.171 163 L 703 163 L 703 172 M 337.218 172.663 C 330.497 175.976 327.559 183.38 328.191 195.416 C 328.704 205.187 331.559 211.271 336.984 214.151 C 343.187 217.443 356.144 216.151 359.68 211.887 C 360.603 210.774 360.485 209.969 359.138 208.183 C 357.505 206.018 357.267 205.98 354.459 207.445 C 351.094 209.199 345.745 209.469 343.039 208.021 C 340.325 206.569 339 201.64 339 193 C 339 181.076 341.14 177 347.399 177 C 350.116 177 352 179.455 352 182.995 C 352 184.84 352.495 185.08 355.75 184.81 C 359.462 184.503 359.503 184.452 359.804 179.768 C 360.088 175.351 359.888 174.902 356.804 173.022 C 352.618 170.47 342.061 170.276 337.218 172.663 M 374.984 172.849 C 364.313 178.513 362.745 203.301 372.515 211.879 C 376.835 215.672 379.375 216.358 387.05 215.803 C 394.344 215.275 397.645 213.1 400.85 206.711 C 402.767 202.89 403.2 200.453 403.2 193.5 C 403.2 183.393 400.601 176.895 395.102 173.251 C 390.644 170.298 380.186 170.089 374.984 172.849 M 430 171.722 C 429.175 172.032 427.295 173.128 425.823 174.159 C 423.189 176.002 423.135 176 422.505 174.016 C 421.945 172.25 421.006 172 414.933 172 L 408 172 L 408 174.981 C 408 177.327 408.533 178.096 410.5 178.589 L 413 179.217 L 413 197.108 L 413 215 L 418.5 215 L 424 215 L 424 198.526 L 424 182.051 L 426.95 180.526 C 431.52 178.163 434.877 178.547 436.025 181.565 C 436.561 182.976 437 191.076 437 199.565 L 437 215 L 444.5 215 L 452 215 L 452 212 C 452 209.495 451.602 209 449.586 209 L 447.172 209 L 446.836 192.412 L 446.5 175.824 L 443.694 173.412 C 441.547 171.566 439.787 171.019 436.194 171.079 C 433.612 171.122 430.825 171.412 430 171.722 M 511.882 173.212 L 507.265 175.5 L 508.619 178.71 L 509.973 181.921 L 514.112 180.46 C 519.186 178.67 525.397 178.567 526.788 180.25 C 527.356 180.938 528.125 183.124 528.495 185.11 L 529.17 188.719 L 522.327 189.209 C 509.993 190.091 505.385 194.566 506.236 204.832 C 506.619 209.453 507.201 210.79 509.862 213.168 C 512.49 215.516 513.926 215.999 518.266 215.993 C 521.706 215.989 524.48 215.341 526.359 214.102 C 529.16 212.255 529.255 212.255 531.109 214.109 C 533.108 216.108 540.301 216.729 542.837 215.122 C 544.978 213.765 543.852 209.55 541.25 209.18 C 539.047 208.868 539 208.586 538.994 195.68 C 538.985 174.11 537.553 171.668 524.646 171.212 C 517.801 170.971 515.763 171.29 511.882 173.212 M 602.984 172.868 C 596.109 176.554 592.484 189.38 594.954 201.281 C 596.239 207.47 599.458 212.151 604.069 214.536 C 608.114 216.627 618.555 216.385 623.627 214.082 C 628.829 211.72 629.418 210.738 627.243 208.052 C 625.573 205.989 625.334 205.963 621.78 207.447 C 613.148 211.054 606.358 208.087 605.306 200.248 L 604.737 196 L 616.868 196 L 629 196 L 628.978 189.75 C 628.95 181.909 626.321 175.776 621.808 173.024 C 617.4 170.337 607.854 170.257 602.984 172.868 M 744.037 173.069 C 741.582 174.182 739.411 175.255 739.213 175.454 C 739.015 175.652 739.547 177.158 740.396 178.8 C 741.919 181.744 741.992 181.766 745.72 180.436 C 750.464 178.744 757.222 178.622 758.8 180.2 C 759.46 180.86 760 183.11 760 185.2 L 760 189 L 755.75 189.006 C 749.436 189.014 744.01 190.837 740.829 194.017 C 738.334 196.512 738 197.576 738 203.023 C 738 208.714 738.267 209.467 741.4 212.6 C 744.437 215.637 745.383 216 750.265 216 C 754.324 216 756.426 215.453 758.433 213.874 L 761.135 211.748 L 762.624 213.874 C 763.787 215.533 765.144 215.997 768.807 215.985 C 771.388 215.976 774.089 215.596 774.808 215.14 C 776.777 213.891 775.25 209 772.892 209 C 771.851 209 770.959 208.662 770.908 208.25 C 770.857 207.838 770.729 201.414 770.623 193.976 C 770.408 178.873 769.307 174.727 764.909 172.453 C 760.687 170.27 749.478 170.6 744.037 173.069 M 797.338 173.404 C 793.366 175.675 793.154 175.697 792.682 173.892 C 792.255 172.26 791.211 172 785.094 172 L 778 172 L 778 175.025 C 778 177.586 778.46 178.142 781 178.65 L 784 179.25 L 784 197.125 L 784 215 L 789 215 L 794 215 L 794 198.526 L 794 182.051 L 796.95 180.526 C 801.012 178.425 804.712 178.593 805.965 180.934 C 806.555 182.037 807 189.772 807 198.934 L 807 215 L 814.5 215 L 822 215 L 822 212 C 822 209.489 821.604 209 819.567 209 L 817.135 209 L 816.817 192.578 C 816.512 176.785 816.407 176.056 814.076 173.578 C 810.775 170.068 803.308 169.99 797.338 173.404 M 259 174.981 C 259 177.327 259.533 178.096 261.5 178.589 L 264 179.217 L 264 197.108 L 264 215 L 269 215 L 274 215 L 274 193.5 L 274 172 L 266.5 172 L 259 172 L 259 174.981 M 304 174.981 C 304 177.327 304.533 178.096 306.5 178.589 L 309 179.217 L 309 197.108 L 309 215 L 314 215 L 319 215 L 319 193.5 L 319 172 L 311.5 172 L 304 172 L 304 174.981 M 633 174.933 C 633 176.983 633.599 178.055 634.992 178.498 C 636.563 178.996 638.191 182.925 642.685 197.065 C 646.242 208.255 648.878 215 649.693 215 C 651.5 215 651.291 217.084 649.228 219.642 C 647.267 222.072 641.921 225 639.443 225 C 638.338 225 637.99 225.531 638.397 226.593 C 638.733 227.469 639.28 229.266 639.611 230.585 C 640.114 232.592 640.646 232.881 642.856 232.352 C 648.962 230.891 654.29 226.505 657.251 220.5 C 658.065 218.85 661.495 208.867 664.874 198.315 C 669.73 183.148 671.433 178.997 673.008 178.497 C 674.401 178.055 675 176.983 675 174.933 L 675 172 L 666.5 172 L 658 172 L 658 175 C 658 177.242 658.463 178 659.833 178 C 660.842 178 661.909 178.243 662.206 178.539 C 662.738 179.071 655.439 204.894 654.489 205.844 C 654.22 206.113 653.978 205.246 653.952 203.917 C 653.926 202.587 652.427 196.436 650.623 190.246 C 648.818 184.057 647.564 178.769 647.837 178.496 C 648.11 178.223 649.158 178 650.167 178 C 651.537 178 652 177.242 652 175 L 652 172 L 642.5 172 L 633 172 L 633 174.933 M 380.789 178.058 C 378.423 179.437 377.011 185.209 377.011 193.5 C 377.011 202.832 378.359 207.387 381.55 208.841 C 385.006 210.415 386.405 210.303 388.933 208.25 C 393.539 204.508 393.86 183.769 389.381 179.29 C 386.965 176.874 383.639 176.397 380.789 178.058 M 607.477 179.394 C 606.615 180.711 605.645 183.411 605.323 185.394 L 604.738 189 L 611.869 189 C 618.758 189 619 188.917 619 186.565 C 619 183.462 617.228 178.765 615.687 177.786 C 613.166 176.182 609.054 176.988 607.477 179.394 M 703 198.273 L 703 208.545 L 709.486 208.001 C 718.055 207.282 719.5 205.821 719.5 197.876 C 719.5 189.938 717.418 188 708.889 188 L 703 188 L 703 198.273 M 518.441 196.419 C 515.986 198.214 515.669 206.548 518 208.021 C 520.265 209.453 524.286 209.188 526.777 207.443 C 528.611 206.159 529 204.935 529 200.443 L 529 195 L 524.691 195 C 522.321 195 519.509 195.639 518.441 196.419 M 750 197 C 745.947 201.053 748 209 753.101 209 C 758.789 209 760 207.589 760 200.965 L 760 195 L 756 195 C 753.333 195 751.333 195.667 750 197 M 280 302.5 L 280 330 L 283 330 L 286 330 L 286 302.5 L 286 275 L 283 275 L 280 275 L 280 302.5 M 514.781 302.501 L 514.5 330.001 L 517.5 330.001 L 520.5 330.002 L 520.5 315.292 L 520.5 300.583 L 523.898 298.292 C 527.608 295.789 531.915 295.315 533.8 297.2 C 534.632 298.032 535 303.244 535 314.2 L 535 330 L 538 330 L 541 330 L 541 312.955 C 541 296.19 540.96 295.869 538.545 293.455 C 534.802 289.712 525.945 290.742 522.109 295.367 C 521.173 296.496 522.153 296.224 525.109 294.534 C 530.464 291.473 533.896 291.344 537.365 294.073 L 540 296.145 L 540 312.573 C 540 326.508 539.772 329 538.5 329 C 536.678 329 536.868 330.55 536.481 312.545 C 536.13 296.256 535.668 294.996 530.059 295.004 C 527.461 295.008 521.106 298.324 519.765 300.376 C 519.361 300.994 519.024 307.688 519.015 315.25 C 519.002 326.799 518.76 329 517.5 329 C 516.204 329 516 325.389 516 302.5 C 516 279.902 516.216 276 517.464 276 C 518.626 276 518.995 278.006 519.254 285.75 L 519.581 295.5 L 519.791 285.25 L 520 275 L 517.531 275 L 515.062 275 L 514.781 302.501 M 281 302.5 C 281 328.333 281.05 329 283 329 C 284.95 329 285 328.333 285 302.5 C 285 276.667 284.95 276 283 276 C 281.05 276 281 276.667 281 302.5 M 187 303.5 L 187 330 L 190 330 L 193 330 L 193 308.333 C 193 296.417 192.743 286.924 192.429 287.238 C 192.115 287.552 191.865 297.077 191.875 308.404 C 191.892 328.149 191.812 329 189.946 329 C 188.069 329 188 328.098 188 303.443 L 188 277.885 L 192.09 278.193 L 196.181 278.5 L 199.166 287.841 C 200.808 292.978 202.324 297.009 202.535 296.798 C 202.746 296.587 201.566 292.046 199.913 286.707 L 196.907 277 L 191.954 277 L 187 277 L 187 303.5 M 215.127 292.893 C 212.307 301.633 210.045 309.846 210.1 311.143 C 210.165 312.656 210.53 312.069 211.119 309.5 C 211.625 307.3 214.092 299.313 216.602 291.75 L 221.166 278 L 225.083 278 L 229 278 L 229 303.5 C 229 328.253 228.942 329 227.019 329 C 225.11 329 225.027 328.164 224.749 306.25 L 224.461 283.5 L 224.23 306.75 L 224 330 L 227 330 L 230 330 L 230 303.5 L 230 277 L 225.127 277 L 220.254 277 L 215.127 292.893 M 477.25 281.662 C 476.488 281.97 476 284.086 476 287.083 C 476 291.333 475.729 292 474 292 C 472.554 292 472 292.667 472 294.406 C 472 296.32 472.409 296.706 474 296.29 C 475.935 295.784 476 296.259 476 310.929 C 476 325.694 476.064 326.155 478.455 328.545 C 482.113 332.204 491.261 331.714 490.267 327.914 C 489.736 325.881 487.527 325.338 486.507 326.989 C 486.146 327.573 486.587 327.712 487.585 327.329 C 488.76 326.878 489.132 327.109 488.809 328.091 C 487.959 330.675 482.29 330.381 479.517 327.608 C 477.057 325.148 477 324.759 477 310.452 C 477 296.654 476.885 295.783 475 295.29 C 472.458 294.625 472.43 293.382 474.941 292.726 C 476.465 292.327 476.948 291.177 477.191 287.368 C 477.421 283.758 477.933 282.436 479.196 282.196 C 480.589 281.932 480.945 282.823 481.196 287.187 L 481.5 292.5 L 485.25 292.81 C 489.614 293.172 490.257 294.712 486.25 295.207 C 483.556 295.541 483.566 295.559 486.75 296.101 C 489.644 296.593 490 296.399 490 294.327 C 490 292.279 489.521 292 486 292 L 482 292 L 482 286.5 C 482 280.879 481.203 280.067 477.25 281.662 M 194.073 283.856 C 193.945 286.236 196.955 296.744 201.163 308.6 C 205.24 320.091 205.251 320.108 208.314 319.804 C 211.301 319.508 211.504 319.148 216.068 306 C 218.646 298.575 221.052 290.925 221.415 289 C 221.779 287.075 219.477 293.057 216.3 302.293 C 210.882 318.048 210.377 319.069 208.149 318.793 C 206.128 318.544 205.262 317.083 202.341 309 C 200.452 303.775 197.836 295.675 196.527 291 C 195.218 286.325 194.114 283.11 194.073 283.856 M 247.75 292.6 C 243.077 294.037 242.209 295.205 243.87 297.824 C 244.559 298.91 245.387 298.865 248.477 297.574 C 253.29 295.563 258.419 295.562 260.429 297.571 C 261.324 298.467 262 300.833 262 303.071 L 262 307 L 257.25 307.006 C 246.31 307.018 241 310.797 241 318.57 C 241 324.616 242.41 327.644 246.12 329.562 C 250.221 331.683 256.536 330.932 259.397 327.983 L 261.5 325.814 L 258 327.903 C 252.943 330.922 248.486 330.64 244.923 327.077 C 242.587 324.741 242 323.279 242 319.799 C 242 312.063 245.69 308.972 256 308.069 L 262.5 307.5 L 262.805 303.305 C 263.348 295.827 257.113 292.837 248.49 296.44 C 246.154 297.416 244.834 297.541 244.394 296.828 C 242.973 294.53 252.338 291.514 258.378 292.324 C 265.863 293.328 266.444 294.803 266.514 313.004 C 266.56 324.846 266.263 329 265.371 329 C 264.709 329 263.94 328.438 263.662 327.75 C 263.361 327.003 263.126 327.205 263.079 328.25 C 263.024 329.471 263.756 330 265.5 330 L 268 330 L 267.944 315.25 C 267.881 298.992 266.858 294.237 263 292.291 C 259.747 290.649 253.695 290.772 247.75 292.6 M 321.5 291.954 C 318.763 293.086 315.352 296.923 314.067 300.315 C 312.309 304.955 312.733 318.971 314.752 322.929 C 318.41 330.103 326.939 332.823 335.512 329.549 C 340.41 327.678 340.658 327.282 338.647 324.532 C 337.375 322.792 337.151 322.781 334.924 324.34 C 331.743 326.568 324.822 326.486 321.982 324.186 C 320.353 322.867 319.606 320.958 319.244 317.186 L 318.746 312 L 330.279 312 C 341.756 312 341.81 311.989 341.197 309.75 C 340.708 307.964 340.507 307.854 340.224 309.217 C 339.917 310.688 338.335 310.974 329.183 311.217 L 318.5 311.5 L 318.191 315.225 C 317.81 319.825 320.466 325.696 323.342 326.608 C 326.435 327.59 330.836 327.31 334.197 325.919 C 336.35 325.027 337.404 325.004 338.233 325.833 C 339.713 327.313 333.438 330 328.5 330 C 318.831 330 314.062 324.03 314.022 311.875 C 313.992 302.74 314.822 299.402 317.961 296.042 C 323.241 290.389 333.808 291.02 337.463 297.206 C 338.523 299.002 339.702 302.053 340.081 303.986 C 340.696 307.121 340.782 307.2 340.885 304.718 C 341.067 300.327 338.415 295.224 334.81 293.026 C 331.398 290.945 325.155 290.442 321.5 291.954 M 378.5 292.386 C 376.849 293.105 374.824 294.517 374 295.523 C 372.898 296.867 373.718 296.642 377.088 294.676 C 379.611 293.204 382.678 292 383.904 292 C 386.396 292 390.117 293.725 391.235 295.4 C 391.639 296.005 391.976 303.813 391.985 312.75 C 391.999 327.566 391.846 329 390.25 329 C 388.669 328.999 388.473 327.475 388.218 313.25 C 387.981 299.963 387.677 297.304 386.277 296.25 C 383.064 293.83 376.317 295.504 372.954 299.555 C 372.184 300.483 373.292 300.063 375.416 298.621 C 379.536 295.826 383.837 295.237 385.8 297.2 C 386.632 298.032 387 303.244 387 314.2 L 387 330 L 390 330 L 393 330 L 393 312.955 C 393 296.19 392.96 295.869 390.545 293.455 C 387.769 290.678 383.323 290.284 378.5 292.386 M 410.299 292.96 C 404.992 296.195 403.5 300.155 403.5 311 C 403.5 322.022 405.256 326.291 411.034 329.313 C 415.245 331.515 424.694 331.085 428.62 328.513 C 431.041 326.927 431.083 326.75 429.463 324.959 C 427.909 323.242 427.506 323.204 424.928 324.537 C 423.372 325.342 420.31 326 418.122 326 C 415.017 326 413.691 325.423 412.073 323.365 C 410.933 321.916 410 319.666 410 318.365 C 410 317.064 409.597 316 409.105 316 C 407.467 316 409.851 323.459 412.061 325.25 C 414.714 327.399 421.067 327.534 424.952 325.525 C 427.486 324.215 427.871 324.221 428.392 325.58 C 429.33 328.024 422.58 330.347 416.599 329.639 C 408.283 328.654 404 322.318 404 311 C 404 299.653 408.489 293.034 416.703 292.269 C 425.256 291.472 430.678 297.374 430.923 307.75 L 431 311 L 420.059 311 C 414.041 311 408.908 311.337 408.652 311.75 C 408.395 312.163 413.605 312.36 420.229 312.189 L 432.272 311.878 L 431.638 305.81 C 431.289 302.471 430.091 298.266 428.975 296.459 C 425.584 290.972 416.385 289.248 410.299 292.96 M 557.75 292.547 C 553.102 294.028 552.214 295.213 553.836 297.769 C 554.479 298.783 555.507 298.732 558.946 297.519 C 567.708 294.428 572 296.209 572 302.937 L 572 306.731 L 565.189 307.219 C 561.287 307.498 557.296 308.415 555.843 309.367 C 548.831 313.962 549.538 326.909 556.969 329.987 C 560.922 331.624 566.792 330.667 569.44 327.953 C 571.464 325.878 571.434 325.88 567.707 328.045 C 563.273 330.621 557.797 330.242 554.7 327.144 C 552.015 324.459 551.264 316.773 553.372 313.555 C 555.713 309.982 558.632 308.714 566 308.069 L 572.5 307.5 L 572.815 303.674 C 573.285 297.962 570.939 295 565.945 295 C 563.74 295 560.409 295.638 558.543 296.417 C 555.803 297.562 555.055 297.586 554.654 296.542 C 553.532 293.616 565.453 291.004 571.228 292.91 C 576.33 294.594 577 297.047 577 314.047 C 577 326.281 576.742 329 575.583 329 C 574.804 329 573.94 328.438 573.662 327.75 C 573.361 327.003 573.126 327.205 573.079 328.25 C 573.023 329.482 573.759 330 575.566 330 L 578.132 330 L 577.816 313.025 C 577.52 297.112 577.363 295.914 575.309 293.862 C 572.5 291.056 564.345 290.445 557.75 292.547 M 601.764 292.439 C 600.26 293.224 598.022 294.572 596.792 295.433 C 594.786 296.838 594.749 297 596.432 297 C 598.188 297 598.202 297.119 596.655 298.829 C 595.324 300.299 595 302.831 595 311.747 L 595 322.837 L 598.368 324.918 C 605.613 329.396 614.12 326.042 613.9 318.795 C 613.799 315.505 613.798 315.506 612.878 319.5 C 612.371 321.7 611.205 324.063 610.287 324.75 C 607.993 326.467 603.469 326.316 599.401 324.386 L 596 322.772 L 596 311.468 L 596 300.163 L 599.368 298.082 C 601.22 296.937 604.145 296 605.868 296 C 610.737 296 612.72 298.775 613.486 306.661 C 614.408 316.157 615.129 317.116 614.493 308 C 613.851 298.798 611.927 295.639 606.693 295.192 C 604.708 295.023 602.127 295.397 600.957 296.023 C 597.39 297.932 597.545 296.248 601.137 294.058 C 608.003 289.872 614.681 292.503 617.484 300.5 C 620.38 308.76 618.211 324.091 613.605 327.913 C 610.822 330.222 604.821 330.293 600.546 328.067 C 598.372 326.934 596.216 326.384 595.756 326.844 C 595.297 327.303 595.07 331.914 595.253 337.09 L 595.585 346.5 L 595.792 336.75 C 595.907 331.387 596.214 327 596.476 327 C 596.738 327 598.425 327.898 600.226 328.996 C 606.686 332.935 614.984 330.676 617.67 324.247 C 620.094 318.446 620.528 307.327 618.59 300.662 C 617.288 296.184 616.216 294.493 613.711 292.965 C 609.918 290.653 605.557 290.461 601.764 292.439 M 641.5 292.563 C 639.85 293.416 637.825 294.82 637 295.684 C 636.175 296.548 637.659 296.017 640.298 294.504 C 648.018 290.079 654.779 292.325 657.674 300.276 C 658.49 302.517 658.87 302.89 658.92 301.5 C 658.96 300.4 658.094 298.026 656.996 296.225 C 653.84 291.049 647.381 289.523 641.5 292.563 M 675.299 292.96 C 669.992 296.195 668.5 300.155 668.5 311 C 668.5 318.739 668.877 321.149 670.534 324 C 674.451 330.741 683.394 332.819 691.892 328.963 C 696.154 327.03 696.232 326.913 694.52 325.023 C 692.907 323.24 692.517 323.199 689.928 324.537 C 686.651 326.232 680.715 326.453 677.968 324.983 C 676.923 324.424 675.573 322.128 674.968 319.882 C 674.363 317.636 673.685 315.981 673.461 316.205 C 672.388 317.279 675.381 324.204 677.527 325.609 C 680.613 327.632 685.852 327.645 689.729 325.64 C 692.625 324.143 694 324.329 694 326.218 C 694 327.634 687.391 330 683.433 330 C 678.417 330 673.778 327.573 671.456 323.734 C 668.723 319.215 668.635 303.086 671.316 298.171 C 674.603 292.149 684.225 290.296 690.583 294.462 C 693.512 296.382 694.671 299.037 695.585 305.927 L 696.249 310.932 L 684.886 311.216 C 675.638 311.447 673.504 311.779 673.416 313 C 673.353 313.864 673.485 313.97 673.727 313.25 C 674.03 312.346 677.35 312 685.711 312 L 697.275 312 L 696.611 306.344 C 696.245 303.233 695.248 299.218 694.396 297.421 C 691.52 291.361 681.687 289.064 675.299 292.96 M 717.815 293.035 C 713.876 295.115 712.108 297 714.096 297 C 714.887 297 714.734 297.637 713.655 298.829 C 712.279 300.349 712 303.046 712 314.829 C 712 328.333 711.906 329 710 329 C 708.074 329 708 328.333 708 311 C 708 293.459 708.718 289.65 710.969 295.25 C 711.838 297.413 711.876 297.393 711.937 294.75 C 711.989 292.466 711.576 292 709.5 292 L 707 292 L 707 311 L 707 330 L 710 330 L 713 330 L 713 315.02 L 713 300.041 L 716.96 298.02 C 721.979 295.46 725.624 295.428 726.965 297.934 C 727.547 299.022 728 306.461 728 314.934 L 728 330 L 731.084 330 L 734.169 330 L 733.834 312.912 L 733.5 295.824 L 730.694 293.412 C 727.278 290.475 722.903 290.347 717.815 293.035 M 771.181 293.607 C 768.806 295.031 767.083 296.416 767.352 296.686 C 767.622 296.955 769.159 296.203 770.768 295.013 C 775.014 291.874 780.921 291.306 783.936 293.747 C 786.286 295.65 786.346 296.083 786.548 312.348 C 786.742 328.043 786.646 329 784.877 329 C 783.126 329 783 328.011 783 314.223 C 783 302.466 782.682 298.991 781.443 297.223 C 779.32 294.191 774.463 294.322 769.732 297.536 L 766 300.072 L 765.9 309.786 C 765.844 315.129 765.778 321.637 765.752 324.25 C 765.713 328.19 765.39 329 763.853 329 C 762.118 329 762 327.856 762 311 C 762 296.078 762.244 293 763.427 293 C 764.211 293 765.059 293.788 765.311 294.75 C 765.655 296.067 765.797 295.943 765.884 294.25 C 765.975 292.486 765.46 292 763.5 292 L 761 292 L 761 311 L 761 330 L 764 330 L 767 330 L 767 315.184 L 767 300.368 L 770.886 298.184 C 775.731 295.461 779.59 295.366 780.965 297.934 C 781.547 299.022 782 306.461 782 314.934 L 782 330 L 785 330 L 788 330 L 788 314.649 C 788 306.206 787.528 297.943 786.95 296.287 C 784.974 290.617 778.116 289.451 771.181 293.607 M 804.898 293.27 C 799.686 296.752 798.003 301.079 798.003 311 C 798.003 320.466 799.609 324.972 804.176 328.319 C 807.961 331.093 815.61 331.57 820 329.305 C 824.189 327.144 828.039 320.207 827.916 315.038 C 827.843 311.938 827.682 312.181 826.619 317 C 825 324.343 823.716 326.432 819.633 328.37 C 812.228 331.884 803.962 329.327 800.895 322.576 C 798.216 316.677 798.302 304.289 801.059 298.885 C 803.692 293.724 808.435 291.561 815.485 292.309 C 818.687 292.648 819.777 292.533 818.5 291.99 C 814.602 290.334 808.422 290.916 804.898 293.27 M 293.942 300.076 L 287.795 308.151 L 290.735 312.826 C 302.265 331.161 301.208 329.906 305.168 329.955 L 308.836 330 L 301.367 319 C 297.26 312.95 293.706 308 293.47 308 C 293.075 308 300.166 319.153 304.26 324.973 C 306.465 328.105 306.453 329 304.208 329 C 302.36 329 289.243 309.853 289.761 307.911 C 290.515 305.087 300.665 293 302.283 293 C 304.407 293 304.144 293.583 299.115 300 C 294.124 306.369 293.689 307 294.291 307 C 294.827 307 304.016 295.617 305.392 293.25 C 305.905 292.366 305.236 292 303.104 292 C 300.508 292 299.237 293.121 293.942 300.076 M 366.5 311 L 366.5 330 L 369.25 330 C 370.762 330 372 329.592 372 329.094 C 372 328.595 371.1 328.423 370 328.71 C 368.054 329.219 368 328.741 368 311.117 C 368 294.332 368.758 289.512 370.524 295.075 C 371.388 297.799 372.089 297.057 371.344 294.206 C 370.976 292.801 369.992 292 368.633 292 C 366.53 292 366.5 292.271 366.5 311 M 439 292.511 C 439 292.792 441.26 296.629 444.023 301.037 L 449.046 309.052 L 444.191 317.276 C 436.118 330.948 436.412 330 440.246 330 C 443.38 330 443.768 329.583 447.33 322.383 C 449.403 318.194 450.938 314.605 450.74 314.407 C 450.543 314.21 448.674 317.412 446.586 321.524 C 443.877 326.861 442.248 329 440.895 329 C 439.853 329 439 328.8 439 328.556 C 439 328.312 441.513 323.82 444.585 318.573 L 450.17 309.033 L 445.585 301.481 C 443.063 297.328 441 293.72 441 293.465 C 441 293.209 441.803 293 442.785 293 C 443.919 293 445.643 294.984 447.512 298.439 C 451.323 305.483 451.91 304.901 448.339 297.619 C 445.824 292.49 445.296 292 442.292 292 C 440.481 292 439 292.23 439 292.511 M 455.949 298.101 C 454.255 301.457 453.083 304.416 453.344 304.678 C 453.606 304.939 455.046 302.418 456.546 299.076 C 458.47 294.791 459.822 293 461.137 293 C 462.161 293 463 293.25 463 293.555 C 463 293.86 461.2 297.094 459 300.742 C 456.8 304.389 455.008 308.077 455.018 308.937 C 455.028 309.797 457.278 314.494 460.018 319.376 C 462.758 324.258 465 328.42 465 328.626 C 465 328.832 464.105 329 463.011 329 C 461.527 329 460.002 326.97 457 321 C 454.788 316.6 452.761 313 452.496 313 C 452.231 313 453.912 316.825 456.23 321.5 C 460.237 329.58 460.608 330 463.723 330 C 465.525 330 467 329.826 467 329.613 C 467 329.4 464.53 325.012 461.511 319.863 C 458.492 314.713 456.017 309.882 456.011 309.127 C 456.005 308.371 458.025 304.418 460.5 300.341 C 462.975 296.265 465 292.72 465 292.465 C 465 292.209 463.656 292 462.014 292 C 459.363 292 458.684 292.683 455.949 298.101 M 590 319 C 590 333.85 590.337 346 590.75 346 C 591.163 346 591.492 334.495 591.482 320.434 C 591.464 295.458 591.902 290.828 593.985 294 C 594.828 295.284 594.972 295.248 594.985 293.75 C 594.995 292.546 594.22 292 592.5 292 L 590 292 L 590 319 M 630.233 319.25 L 630.466 346.5 L 630.749 319.75 C 630.984 297.62 631.275 293 632.433 293 C 633.203 293 634.06 293.563 634.338 294.25 C 634.639 294.997 634.874 294.795 634.921 293.75 C 634.976 292.529 634.244 292 632.5 292 L 630 292 L 630.233 319.25 M 718.137 294.058 C 714.608 296.209 714.36 297.948 717.849 296.081 C 721.278 294.246 725.729 294.775 727.443 297.223 C 728.682 298.991 729 302.466 729 314.223 C 729 327.911 729.136 329 730.842 329 C 732.558 329 732.673 327.956 732.522 313.75 C 732.433 305.363 732.016 297.462 731.595 296.193 C 730.15 291.84 723.504 290.786 718.137 294.058 M 835.001 294.75 C 835.494 296.262 837.789 304.836 840.099 313.802 L 844.3 330.104 L 847.344 329.802 C 850.367 329.502 850.407 329.419 853.685 316.5 C 855.5 309.35 856.875 302.639 856.742 301.587 C 856.609 300.534 854.964 306.272 853.086 314.337 C 849.91 327.975 849.511 329 847.374 329 C 845.56 329 844.872 328.212 844.102 325.25 C 843.566 323.188 841.49 315.271 839.489 307.658 C 837.488 300.045 836.09 293.577 836.382 293.284 C 837.795 291.872 840.067 294.381 841.104 298.497 C 842.678 304.748 843.327 303.568 841.845 297.15 C 840.712 292.24 840.504 292 837.38 292 C 834.255 292 834.145 292.127 835.001 294.75 M 852.024 304.903 C 850.26 311.999 849.03 318.637 849.292 319.653 C 849.668 321.114 849.792 321.012 849.884 319.167 C 849.986 317.123 851.769 309.457 855.112 296.688 C 855.93 293.565 856.508 292.932 858.304 293.188 C 860.868 293.553 861.691 295.701 865.338 311.552 C 866.723 317.574 867.889 321.635 867.928 320.577 C 867.968 319.519 866.566 312.657 864.813 305.327 L 861.626 292 L 858.429 292 L 855.232 292 L 852.024 304.903 M 873.74 303.25 C 870.96 315.198 869.221 325.197 870.915 319.5 C 871.405 317.85 873.029 311.212 874.522 304.75 C 876.845 294.7 877.52 293 879.186 293 C 880.612 293 880.981 293.486 880.56 294.81 C 878.805 300.341 872 326.401 872 327.593 C 872 328.424 870.985 329 869.519 329 C 867.648 329 866.867 328.324 866.343 326.25 C 862.897 312.608 859.101 299.173 859.491 302 C 859.757 303.925 861.406 311.035 863.157 317.801 L 866.341 330.101 L 869.344 329.801 L 872.348 329.5 L 877.146 311.5 C 879.785 301.6 881.957 293.163 881.972 292.75 C 881.987 292.337 880.73 292 879.179 292 C 876.406 292 876.312 292.194 873.74 303.25 M 892 292.929 C 892 293.439 894.475 293.857 897.5 293.857 C 900.525 293.857 903 293.439 903 292.929 C 903 292.418 900.525 292 897.5 292 C 894.475 292 892 292.418 892 292.929 M 906 299.5 C 906 304.426 906.389 307 907.134 307 C 907.92 307 908.115 304.847 907.768 300 C 907.275 293.115 908.416 290.365 909.531 295.75 C 910.897 302.347 911.599 304.366 912.651 304.717 C 913.92 305.14 916 299.923 916 296.319 C 916 294.782 916.799 293.614 918.25 293.031 C 920.485 292.133 920.486 292.126 918.348 292.063 C 916.07 291.996 914 296.056 914 300.59 C 914 301.851 913.55 303.16 913 303.5 C 912.444 303.844 911.998 303.093 911.994 301.809 C 911.983 296.885 909.97 292 907.953 292 C 906.189 292 906 292.727 906 299.5 M 821.584 294.359 C 821.931 295.261 822.579 296 823.024 296 C 823.925 296 826.708 303.112 827.329 307 C 827.679 309.194 827.742 309.133 827.842 306.5 C 827.974 303.022 825.079 296.13 822.636 294.109 C 821.168 292.894 821.034 292.926 821.584 294.359 M 323.5 295.208 C 320.147 297.131 316.828 303 319.094 303 C 319.592 303 320 302.133 320 301.073 C 320 300.012 321.23 298.177 322.734 296.994 C 328.147 292.737 335 296.713 335 304.111 L 335 308 L 327.07 308 C 319.655 308 319.108 307.854 318.656 305.75 C 318.23 303.767 318.192 303.797 318.336 306 C 318.497 308.458 318.644 308.5 327 308.5 L 335.5 308.5 L 335.808 304.231 C 336.07 300.609 335.665 299.511 333.135 296.981 C 330.012 293.858 326.864 293.279 323.5 295.208 M 412.462 296.279 C 410.78 297.726 409.528 300.114 409.033 302.819 C 408.06 308.138 409.134 307.302 410.493 301.682 C 411.963 295.601 417.569 293.422 422.866 296.872 C 423.618 297.361 424.817 300.178 425.531 303.131 C 426.418 306.797 426.857 307.618 426.915 305.718 C 427.201 296.355 418.773 290.851 412.462 296.279 M 677.784 295.955 C 676.291 297.13 674.606 299.758 674.04 301.795 C 672.755 306.421 672.741 307.948 674 306 C 674.533 305.175 674.976 303.537 674.985 302.361 C 675.007 299.271 678.02 296.099 681.587 295.411 C 685.934 294.572 689.752 298.101 690.61 303.75 L 691.256 308 L 682.378 308.204 L 673.5 308.407 L 681.907 308.747 C 686.531 308.933 690.74 308.66 691.261 308.139 C 692.572 306.828 691.185 299.445 689.163 296.972 C 686.613 293.854 681.084 293.36 677.784 295.955 M 808.838 295.096 C 804.793 296.634 803 301.519 803 311 C 803 320.258 804.69 325.082 808.548 326.84 C 810.053 327.525 811 327.579 811 326.979 C 811 326.44 810.318 326 809.485 326 C 806.196 326 804.007 319.994 804.018 311 C 804.025 306.155 804.573 301.425 805.294 300 C 807.09 296.448 811.47 294.562 815.368 295.661 C 819.943 296.951 821.997 301.704 821.997 311 C 821.997 320.334 820.005 324.802 815 326.695 C 811.856 327.884 811.804 327.958 814.494 327.429 C 816.141 327.104 818.124 326.313 818.899 325.67 C 824.481 321.042 824.419 300.908 818.81 296.256 C 816.655 294.469 811.931 293.92 808.838 295.096 M 896.542 295.867 C 895.576 298.912 896.226 307 897.437 307.001 C 898.099 307.001 898.409 304.677 898.259 300.844 C 897.997 294.118 897.528 292.76 896.542 295.867 M 481.667 295.667 C 481.3 296.033 481 302.693 481 310.467 C 481 324.236 481.567 327 484.391 327 C 484.936 327 484.597 326.426 483.637 325.724 C 482.088 324.592 481.926 322.792 482.196 309.722 C 482.363 301.623 482.462 294.998 482.417 294.998 C 482.371 294.999 482.033 295.3 481.667 295.667 M 638.967 297.24 L 635.5 299.574 L 635.208 309.537 C 634.873 320.945 635.301 323.518 637.685 324.433 C 639.286 325.047 639.286 324.974 637.694 323.214 C 636.329 321.706 636.001 319.318 636.007 310.921 L 636.014 300.5 L 639.319 298.25 C 641.262 296.927 644.134 296 646.289 296 C 648.989 296 650.339 296.592 651.417 298.25 C 654.951 303.683 654.552 320.448 650.801 324.199 C 649.165 325.835 647.89 326.135 644.296 325.73 C 641.469 325.411 640.176 325.576 640.777 326.177 C 641.3 326.7 643.657 326.987 646.014 326.814 C 649.35 326.57 650.765 325.874 652.4 323.677 C 654.2 321.256 654.5 319.447 654.5 311 C 654.5 302.553 654.2 300.744 652.4 298.323 C 649.52 294.451 643.797 293.989 638.967 297.24 M 918.116 301.25 C 918.052 304.413 918.349 307 918.776 307 C 919.203 307 919.405 305.087 919.224 302.75 C 918.681 295.745 918.239 295.147 918.116 301.25 M 203.091 298.5 C 203.056 299.05 203.88 302.2 204.922 305.5 C 205.965 308.8 206.824 310.6 206.831 309.5 C 206.845 307.431 203.205 296.724 203.091 298.5 M 371.328 308.5 C 371.333 312.35 371.513 313.802 371.73 311.728 C 371.946 309.653 371.943 306.503 371.722 304.728 C 371.501 302.952 371.324 304.65 371.328 308.5 M 658.84 308.906 C 659.333 316.008 657.36 324.313 654.555 326.948 C 651.224 330.078 645.401 330.596 640.761 328.177 C 638.705 327.104 637.297 326.672 637.633 327.215 C 637.969 327.759 639.75 328.833 641.59 329.602 C 649.583 332.942 656.038 329.979 658.447 321.865 C 660.037 316.513 660.599 304 659.25 303.999 C 658.837 303.999 658.653 306.207 658.84 308.906 M 843.498 309.25 C 844.217 312.137 845.103 316.233 845.467 318.352 C 845.831 320.471 846.357 321.977 846.635 321.698 C 847.381 320.953 843.859 304 842.958 304 C 842.536 304 842.778 306.363 843.498 309.25 M 412.75 308.732 C 415.087 308.943 418.913 308.943 421.25 308.732 C 423.587 308.522 421.675 308.349 417 308.349 C 412.325 308.349 410.413 308.522 412.75 308.732 M 250.315 310.984 C 249.114 311.481 247.6 312.878 246.952 314.09 C 245.294 317.188 246.325 324.786 248.632 326.473 C 251.277 328.407 251.554 327.554 249.083 325.083 C 247.68 323.68 247 321.719 247 319.073 C 247 313.72 250.415 311 257.135 311 L 262 311 L 262 316.345 C 262 322.235 260.943 323.762 254.97 326.505 C 251.805 327.959 251.753 328.046 254.381 327.498 C 258.213 326.698 261.865 323.985 262.564 321.42 C 262.876 320.276 262.989 317.351 262.816 314.92 L 262.5 310.5 L 257.5 310.29 C 254.75 310.175 251.517 310.487 250.315 310.984 M 560.364 311.17 C 555.544 313.503 554.536 321.627 558.566 325.657 C 561.543 328.633 565.219 328.405 570.084 324.94 C 572.788 323.015 573 322.396 573 316.432 L 573 310 L 567.75 310.068 C 564.862 310.105 561.539 310.601 560.364 311.17 M 559.455 313.455 C 556.345 316.564 556.126 322.126 559 325 C 561.598 327.598 563.923 327.525 568.102 324.716 C 571.218 322.621 571.525 321.958 571.8 316.716 L 572.1 311 L 567.004 311 C 562.928 311 561.418 311.491 559.455 313.455 M 887.243 322.157 C 883.761 325.639 887.397 331.961 892.035 330.489 C 894.362 329.75 895.708 325.351 894.296 323.095 C 893.034 321.077 888.876 320.524 887.243 322.157 M 887.667 322.667 C 886.337 323.997 887.043 327.952 888.776 328.88 C 892.474 330.859 895.786 326.186 892.8 323.2 C 891.493 321.893 888.728 321.605 887.667 322.667 M 635.36 337 C 635.36 342.225 635.529 344.363 635.735 341.75 C 635.941 339.137 635.941 334.863 635.735 332.25 C 635.529 329.637 635.36 331.775 635.36 337" stroke-linecap="round" />
</g>
</g>
</g>
</svg>