<svg xmlns="http://www.w3.org/2000/svg" width="900" height="492" viewBox="0 0 900 492" version="1.1"><path d="M 528.619 189.034 C 524.940 190.136, 521.339 193.514, 520.568 196.586 C 520.237 197.905, 520.605 200.511, 521.385 202.379 C 522.525 205.108, 523.754 206.089, 527.652 207.378 C 530.318 208.260, 534.750 209.273, 537.500 209.629 C 544.106 210.485, 546 211.570, 546 214.500 C 546 217.605, 543.370 219, 537.516 219 C 531.641 219, 527.624 216.920, 526.020 213.047 C 525.246 211.180, 524.030 210, 522.879 210 C 521.233 210, 521 210.807, 521 216.500 C 521 222.333, 521.205 223, 523 223 C 524.100 223, 525 222.347, 525 221.549 C 525 220.356, 525.755 220.441, 529.250 222.027 C 534.331 224.333, 541.745 224.551, 546.568 222.536 C 552.283 220.148, 554.436 211.926, 550.612 207.095 C 548.930 204.971, 544.008 203.199, 536.415 201.986 C 532.654 201.386, 528.997 200.413, 528.289 199.825 C 523.980 196.249, 530.435 191.407, 537.412 192.980 C 541.416 193.883, 546 197.456, 546 199.674 C 546 200.403, 546.900 201, 548 201 C 549.778 201, 550 200.333, 550 195 C 550 188.975, 548.898 187.502, 546.320 190.080 C 545.546 190.854, 543.919 190.712, 540.585 189.580 C 535.476 187.846, 532.971 187.731, 528.619 189.034 M 347 190.853 C 347 192.056, 347.903 193.010, 349.397 193.385 C 351.813 193.991, 354.099 198.568, 361.087 216.792 C 363.449 222.951, 363.572 223.077, 366.928 222.792 C 370.162 222.516, 370.514 222.106, 373.178 215.500 C 374.730 211.650, 376.361 207.648, 376.803 206.607 C 377.438 205.111, 378.410 206.630, 381.440 213.857 C 385.146 222.696, 385.381 223, 388.496 223 C 391.714 223, 391.723 222.985, 396.484 210.044 C 402.164 194.603, 403.155 193, 407.022 193 C 411.160 193, 412 195.339, 412 206.863 C 412 217.469, 411.023 220, 406.929 220 C 405.868 220, 405 220.675, 405 221.500 C 405 222.781, 407.778 223, 424 223 L 443 223 443 216.500 C 443 210.233, 442.910 210, 440.500 210 C 438.565 210, 438 210.515, 438 212.277 C 438 213.530, 437.299 215.555, 436.443 216.777 C 435.057 218.757, 434.018 219, 426.943 219 L 419 219 419 213.500 L 419 208 422.525 208 C 425.642 208, 426.120 208.348, 426.650 211 C 427.061 213.053, 427.842 214, 429.125 214 C 430.811 214, 431 213.144, 431 205.500 C 431 197.856, 430.811 197, 429.125 197 C 427.859 197, 427.063 197.935, 426.674 199.879 C 426.262 201.940, 425.332 202.951, 423.405 203.435 C 419.770 204.347, 418.813 203.088, 419.186 197.886 L 419.500 193.500 425.500 193.242 C 433.224 192.910, 436.223 194.435, 437.436 199.312 C 438.080 201.903, 438.859 202.982, 439.936 202.777 C 441.134 202.549, 441.569 200.902, 441.796 195.740 L 442.091 189 416.546 189 C 391.667 189, 391 189.052, 391 191 C 391 192.344, 391.667 193, 393.031 193 C 394.149 193, 395.324 193.681, 395.644 194.514 C 396.198 195.959, 390.040 213.993, 389 213.970 C 388.138 213.950, 381.072 194.692, 381.609 193.824 C 381.889 193.371, 382.991 193, 384.059 193 C 385.333 193, 386 192.313, 386 191 C 386 189.148, 385.333 189, 377 189 C 368.867 189, 368 189.181, 368 190.875 C 368 192.140, 368.935 192.937, 370.874 193.325 C 374.965 194.143, 375.247 196.048, 372.335 203.201 C 370.925 206.665, 369.343 210.618, 368.821 211.984 C 367.962 214.232, 367.501 213.527, 363.978 204.570 C 361.837 199.126, 360.317 194.296, 360.601 193.836 C 360.886 193.376, 362.024 193, 363.132 193 C 364.512 193, 365.041 192.448, 364.812 191.250 C 364.529 189.770, 363.130 189.455, 355.739 189.211 C 347.672 188.944, 347 189.071, 347 190.853 M 445 191 C 445 192.420, 445.667 193, 447.300 193 C 451.403 193, 452 194.714, 452 206.500 C 452 217.951, 451.362 220, 447.800 220 C 446.810 220, 446 220.675, 446 221.500 C 446 222.776, 448.611 223, 463.500 223 L 481 223 481 216.500 C 481 210.811, 480.766 210, 479.125 210 C 477.821 210, 477.058 210.961, 476.619 213.155 C 475.577 218.364, 474.460 219, 466.348 219 L 458.940 219 459.220 206.250 L 459.500 193.500 462.750 193.187 C 465.190 192.951, 466 192.391, 466 190.937 C 466 189.144, 465.219 189, 455.500 189 C 445.667 189, 445 189.127, 445 191 M 482 190.934 C 482 192.300, 482.807 192.960, 484.750 193.184 L 487.500 193.500 487.781 206.336 C 488.047 218.515, 487.957 219.198, 486.031 219.702 C 484.914 219.994, 484 220.798, 484 221.489 C 484 222.413, 488.202 222.935, 499.942 223.467 C 508.711 223.864, 516.361 223.895, 516.942 223.536 C 517.524 223.176, 518 219.984, 518 216.441 C 518 210.755, 517.775 210, 516.079 210 C 514.722 210, 513.955 210.953, 513.464 213.250 C 512.359 218.418, 511.386 219, 503.848 219 L 496.940 219 497.220 206.250 L 497.500 193.500 500.250 193.184 C 502.193 192.960, 503 192.300, 503 190.934 C 503 189.145, 502.213 189, 492.500 189 C 482.787 189, 482 189.145, 482 190.934 M 478.415 241.421 C 469.395 245.349, 466.361 258.903, 472.445 268.096 C 475.763 273.110, 482.773 276.452, 488.165 275.590 C 490.390 275.234, 493.442 274.306, 494.947 273.528 C 497.345 272.287, 497.877 272.305, 499.246 273.674 C 501.803 276.231, 503 274.281, 503 267.558 C 503 262.074, 503.266 261.164, 505 260.710 C 506.100 260.423, 507 259.470, 507 258.594 C 507 257.268, 505.653 257, 499 257 C 491.667 257, 491 257.167, 491 259 C 491 260.467, 491.667 261, 493.500 261 C 495.597 261, 496 261.472, 496 263.927 C 496 267.716, 491.955 271, 487.288 271 C 477.533 271, 473.702 254.207, 481.646 246.264 C 483.809 244.100, 484.788 243.829, 488.793 244.280 C 493.253 244.783, 497.001 247.504, 498.204 251.113 C 498.443 251.830, 499.338 252.084, 500.310 251.711 C 502.589 250.837, 502.811 240, 500.550 240 C 499.752 240, 498.714 240.688, 498.243 241.530 C 497.475 242.903, 497.012 242.903, 493.726 241.530 C 489.257 239.663, 482.563 239.615, 478.415 241.421 M 520.655 241.459 C 515.527 243.287, 512.398 246.390, 510.395 251.636 C 507.110 260.238, 511.097 269.386, 519.812 273.241 C 525.812 275.895, 536.124 275.322, 541.436 272.040 C 550.416 266.490, 551.659 252.606, 543.831 245.298 C 538.407 240.233, 528.634 238.614, 520.655 241.459 M 357 242.375 C 357 243.131, 358.350 244.020, 360 244.350 L 363 244.950 363 257.500 L 363 270.050 360 270.650 C 357.947 271.061, 357 271.842, 357 273.125 C 357 274.839, 357.900 275, 367.500 275 C 377.219 275, 378 274.856, 378 273.063 C 378 271.609, 377.190 271.049, 374.750 270.813 C 371.532 270.503, 371.497 270.443, 371.198 264.683 L 370.896 258.866 374.140 259.183 C 376.857 259.448, 377.521 260.029, 378.221 262.750 C 378.688 264.565, 379.707 266, 380.529 266 C 381.708 266, 382 264.315, 382 257.500 C 382 250.875, 381.691 249, 380.598 249 C 379.827 249, 378.725 250.350, 378.150 252 C 377.296 254.450, 376.544 255, 374.052 255 C 371.056 255, 371 254.908, 371 250 L 371 245 378.441 245 C 386.370 245, 386.906 245.305, 387.949 250.407 C 388.312 252.181, 389.305 253.628, 390.290 253.817 C 391.763 254.101, 392 253.237, 392 247.573 L 392 241 374.500 241 C 360.318 241, 357 241.261, 357 242.375 M 401.440 246.750 C 392.450 267.400, 391.344 269.548, 389.227 270.487 C 388.002 271.030, 387 272.268, 387 273.237 C 387 274.783, 388.048 275, 395.500 275 C 403.333 275, 404 274.843, 404 273 C 404 271.444, 403.333 271, 401 271 C 397.703 271, 397.431 270.342, 399.161 266.547 C 400.225 264.210, 400.840 264, 406.625 264 C 411.835 264, 413.109 264.336, 413.965 265.934 C 415.838 269.434, 415.230 271, 412 271 C 409.667 271, 409 271.444, 409 273 C 409 274.932, 409.667 275, 428.500 275 C 447.121 275, 448 274.913, 448 273.063 C 448 271.609, 447.190 271.049, 444.750 270.813 C 441.537 270.504, 441.497 270.435, 441.200 264.750 L 440.900 259 445.250 259 C 450.782 259, 452 260.279, 452 266.089 C 452 272.601, 454.435 275.455, 459.990 275.455 C 464.935 275.455, 467 273.349, 467 268.309 C 467 264.952, 465.326 263.756, 464.469 266.500 C 462.945 271.377, 463.034 271.273, 461.488 269.990 C 460.670 269.311, 460 267.321, 460 265.569 C 460 262.144, 458.617 259.835, 455.624 258.264 C 453.932 257.376, 454.030 257.210, 456.624 256.562 C 461.084 255.449, 463 253.151, 463 248.918 C 463 246.033, 462.380 244.657, 460.365 243.073 C 457.959 241.180, 456.395 241, 442.365 241 C 429.690 241, 427 241.251, 427 242.434 C 427 243.254, 428.176 244.002, 429.750 244.184 L 432.500 244.500 432.500 257.486 C 432.500 269.273, 432.331 270.505, 430.671 270.825 C 425.430 271.834, 424.412 270.562, 418.417 255.505 L 412.641 241 408.292 241 C 403.954 241, 403.936 241.015, 401.440 246.750 M 441 249.481 L 441 255.240 447.015 254.805 C 453.748 254.318, 455.250 253.351, 455.250 249.500 C 455.250 245.704, 453.999 244.901, 447.116 244.277 L 441 243.722 441 249.481 M 524.256 245.029 C 520.089 246.704, 517.851 251.785, 518.239 258.693 C 518.626 265.573, 520.359 268.369, 525.615 270.595 C 529.570 272.270, 534.727 270.984, 537.991 267.509 C 540.846 264.470, 541.915 255.622, 539.988 250.971 C 537.479 244.913, 530.810 242.394, 524.256 245.029 M 404.139 253.589 C 402.962 256.663, 402 259.363, 402 259.589 C 402 259.815, 404.250 260, 407 260 C 409.750 260, 412 259.815, 412 259.589 C 412 258.213, 407.594 248, 407 248 C 406.603 248, 405.315 250.515, 404.139 253.589" stroke="none" fill="#fbed3e" fill-rule="evenodd"/><path d="M 428 93.430 C 416.742 95.448, 408.446 97.767, 398.860 101.578 C 351.085 120.570, 318.311 162.423, 310.937 213.857 C 309.417 224.459, 310.278 249.810, 312.505 260 C 324.777 316.158, 366.550 357.625, 423 369.684 C 429.472 371.067, 435.913 371.500, 450 371.500 C 464.087 371.500, 470.528 371.067, 477 369.684 C 533.866 357.537, 575.537 315.866, 587.684 259 C 590.250 246.991, 590.250 217.009, 587.684 205 C 575.652 148.673, 534.191 106.899, 478 94.487 C 467.802 92.235, 438.165 91.608, 428 93.430 M 528.619 189.034 C 524.940 190.136, 521.339 193.514, 520.568 196.586 C 520.237 197.905, 520.605 200.511, 521.385 202.379 C 522.525 205.108, 523.754 206.089, 527.652 207.378 C 530.318 208.260, 534.750 209.273, 537.500 209.629 C 544.106 210.485, 546 211.570, 546 214.500 C 546 217.605, 543.370 219, 537.516 219 C 531.641 219, 527.624 216.920, 526.020 213.047 C 525.246 211.180, 524.030 210, 522.879 210 C 521.233 210, 521 210.807, 521 216.500 C 521 222.333, 521.205 223, 523 223 C 524.100 223, 525 222.347, 525 221.549 C 525 220.356, 525.755 220.441, 529.250 222.027 C 534.331 224.333, 541.745 224.551, 546.568 222.536 C 552.283 220.148, 554.436 211.926, 550.612 207.095 C 548.930 204.971, 544.008 203.199, 536.415 201.986 C 532.654 201.386, 528.997 200.413, 528.289 199.825 C 523.980 196.249, 530.435 191.407, 537.412 192.980 C 541.416 193.883, 546 197.456, 546 199.674 C 546 200.403, 546.900 201, 548 201 C 549.778 201, 550 200.333, 550 195 C 550 188.975, 548.898 187.502, 546.320 190.080 C 545.546 190.854, 543.919 190.712, 540.585 189.580 C 535.476 187.846, 532.971 187.731, 528.619 189.034 M 347 190.853 C 347 192.056, 347.903 193.010, 349.397 193.385 C 351.813 193.991, 354.099 198.568, 361.087 216.792 C 363.449 222.951, 363.572 223.077, 366.928 222.792 C 370.162 222.516, 370.514 222.106, 373.178 215.500 C 374.730 211.650, 376.361 207.648, 376.803 206.607 C 377.438 205.111, 378.410 206.630, 381.440 213.857 C 385.146 222.696, 385.381 223, 388.496 223 C 391.714 223, 391.723 222.985, 396.484 210.044 C 402.164 194.603, 403.155 193, 407.022 193 C 411.160 193, 412 195.339, 412 206.863 C 412 217.469, 411.023 220, 406.929 220 C 405.868 220, 405 220.675, 405 221.500 C 405 222.781, 407.778 223, 424 223 L 443 223 443 216.500 C 443 210.233, 442.910 210, 440.500 210 C 438.565 210, 438 210.515, 438 212.277 C 438 213.530, 437.299 215.555, 436.443 216.777 C 435.057 218.757, 434.018 219, 426.943 219 L 419 219 419 213.500 L 419 208 422.525 208 C 425.642 208, 426.120 208.348, 426.650 211 C 427.061 213.053, 427.842 214, 429.125 214 C 430.811 214, 431 213.144, 431 205.500 C 431 197.856, 430.811 197, 429.125 197 C 427.859 197, 427.063 197.935, 426.674 199.879 C 426.262 201.940, 425.332 202.951, 423.405 203.435 C 419.770 204.347, 418.813 203.088, 419.186 197.886 L 419.500 193.500 425.500 193.242 C 433.224 192.910, 436.223 194.435, 437.436 199.312 C 438.080 201.903, 438.859 202.982, 439.936 202.777 C 441.134 202.549, 441.569 200.902, 441.796 195.740 L 442.091 189 416.546 189 C 391.667 189, 391 189.052, 391 191 C 391 192.344, 391.667 193, 393.031 193 C 394.149 193, 395.324 193.681, 395.644 194.514 C 396.198 195.959, 390.040 213.993, 389 213.970 C 388.138 213.950, 381.072 194.692, 381.609 193.824 C 381.889 193.371, 382.991 193, 384.059 193 C 385.333 193, 386 192.313, 386 191 C 386 189.148, 385.333 189, 377 189 C 368.867 189, 368 189.181, 368 190.875 C 368 192.140, 368.935 192.937, 370.874 193.325 C 374.965 194.143, 375.247 196.048, 372.335 203.201 C 370.925 206.665, 369.343 210.618, 368.821 211.984 C 367.962 214.232, 367.501 213.527, 363.978 204.570 C 361.837 199.126, 360.317 194.296, 360.601 193.836 C 360.886 193.376, 362.024 193, 363.132 193 C 364.512 193, 365.041 192.448, 364.812 191.250 C 364.529 189.770, 363.130 189.455, 355.739 189.211 C 347.672 188.944, 347 189.071, 347 190.853 M 445 191 C 445 192.420, 445.667 193, 447.300 193 C 451.403 193, 452 194.714, 452 206.500 C 452 217.951, 451.362 220, 447.800 220 C 446.810 220, 446 220.675, 446 221.500 C 446 222.776, 448.611 223, 463.500 223 L 481 223 481 216.500 C 481 210.811, 480.766 210, 479.125 210 C 477.821 210, 477.058 210.961, 476.619 213.155 C 475.577 218.364, 474.460 219, 466.348 219 L 458.940 219 459.220 206.250 L 459.500 193.500 462.750 193.187 C 465.190 192.951, 466 192.391, 466 190.937 C 466 189.144, 465.219 189, 455.500 189 C 445.667 189, 445 189.127, 445 191 M 482 190.934 C 482 192.300, 482.807 192.960, 484.750 193.184 L 487.500 193.500 487.781 206.336 C 488.047 218.515, 487.957 219.198, 486.031 219.702 C 484.914 219.994, 484 220.798, 484 221.489 C 484 222.413, 488.202 222.935, 499.942 223.467 C 508.711 223.864, 516.361 223.895, 516.942 223.536 C 517.524 223.176, 518 219.984, 518 216.441 C 518 210.755, 517.775 210, 516.079 210 C 514.722 210, 513.955 210.953, 513.464 213.250 C 512.359 218.418, 511.386 219, 503.848 219 L 496.940 219 497.220 206.250 L 497.500 193.500 500.250 193.184 C 502.193 192.960, 503 192.300, 503 190.934 C 503 189.145, 502.213 189, 492.500 189 C 482.787 189, 482 189.145, 482 190.934 M 478.415 241.421 C 469.395 245.349, 466.361 258.903, 472.445 268.096 C 475.763 273.110, 482.773 276.452, 488.165 275.590 C 490.390 275.234, 493.442 274.306, 494.947 273.528 C 497.345 272.287, 497.877 272.305, 499.246 273.674 C 501.803 276.231, 503 274.281, 503 267.558 C 503 262.074, 503.266 261.164, 505 260.710 C 506.100 260.423, 507 259.470, 507 258.594 C 507 257.268, 505.653 257, 499 257 C 491.667 257, 491 257.167, 491 259 C 491 260.467, 491.667 261, 493.500 261 C 495.597 261, 496 261.472, 496 263.927 C 496 267.716, 491.955 271, 487.288 271 C 477.533 271, 473.702 254.207, 481.646 246.264 C 483.809 244.100, 484.788 243.829, 488.793 244.280 C 493.253 244.783, 497.001 247.504, 498.204 251.113 C 498.443 251.830, 499.338 252.084, 500.310 251.711 C 502.589 250.837, 502.811 240, 500.550 240 C 499.752 240, 498.714 240.688, 498.243 241.530 C 497.475 242.903, 497.012 242.903, 493.726 241.530 C 489.257 239.663, 482.563 239.615, 478.415 241.421 M 520.655 241.459 C 515.527 243.287, 512.398 246.390, 510.395 251.636 C 507.110 260.238, 511.097 269.386, 519.812 273.241 C 525.812 275.895, 536.124 275.322, 541.436 272.040 C 550.416 266.490, 551.659 252.606, 543.831 245.298 C 538.407 240.233, 528.634 238.614, 520.655 241.459 M 357 242.375 C 357 243.131, 358.350 244.020, 360 244.350 L 363 244.950 363 257.500 L 363 270.050 360 270.650 C 357.947 271.061, 357 271.842, 357 273.125 C 357 274.839, 357.900 275, 367.500 275 C 377.219 275, 378 274.856, 378 273.063 C 378 271.609, 377.190 271.049, 374.750 270.813 C 371.532 270.503, 371.497 270.443, 371.198 264.683 L 370.896 258.866 374.140 259.183 C 376.857 259.448, 377.521 260.029, 378.221 262.750 C 378.688 264.565, 379.707 266, 380.529 266 C 381.708 266, 382 264.315, 382 257.500 C 382 250.875, 381.691 249, 380.598 249 C 379.827 249, 378.725 250.350, 378.150 252 C 377.296 254.450, 376.544 255, 374.052 255 C 371.056 255, 371 254.908, 371 250 L 371 245 378.441 245 C 386.370 245, 386.906 245.305, 387.949 250.407 C 388.312 252.181, 389.305 253.628, 390.290 253.817 C 391.763 254.101, 392 253.237, 392 247.573 L 392 241 374.500 241 C 360.318 241, 357 241.261, 357 242.375 M 401.440 246.750 C 392.450 267.400, 391.344 269.548, 389.227 270.487 C 388.002 271.030, 387 272.268, 387 273.237 C 387 274.783, 388.048 275, 395.500 275 C 403.333 275, 404 274.843, 404 273 C 404 271.444, 403.333 271, 401 271 C 397.703 271, 397.431 270.342, 399.161 266.547 C 400.225 264.210, 400.840 264, 406.625 264 C 411.835 264, 413.109 264.336, 413.965 265.934 C 415.838 269.434, 415.230 271, 412 271 C 409.667 271, 409 271.444, 409 273 C 409 274.932, 409.667 275, 428.500 275 C 447.121 275, 448 274.913, 448 273.063 C 448 271.609, 447.190 271.049, 444.750 270.813 C 441.537 270.504, 441.497 270.435, 441.200 264.750 L 440.900 259 445.250 259 C 450.782 259, 452 260.279, 452 266.089 C 452 272.601, 454.435 275.455, 459.990 275.455 C 464.935 275.455, 467 273.349, 467 268.309 C 467 264.952, 465.326 263.756, 464.469 266.500 C 462.945 271.377, 463.034 271.273, 461.488 269.990 C 460.670 269.311, 460 267.321, 460 265.569 C 460 262.144, 458.617 259.835, 455.624 258.264 C 453.932 257.376, 454.030 257.210, 456.624 256.562 C 461.084 255.449, 463 253.151, 463 248.918 C 463 246.033, 462.380 244.657, 460.365 243.073 C 457.959 241.180, 456.395 241, 442.365 241 C 429.690 241, 427 241.251, 427 242.434 C 427 243.254, 428.176 244.002, 429.750 244.184 L 432.500 244.500 432.500 257.486 C 432.500 269.273, 432.331 270.505, 430.671 270.825 C 425.430 271.834, 424.412 270.562, 418.417 255.505 L 412.641 241 408.292 241 C 403.954 241, 403.936 241.015, 401.440 246.750 M 441 249.481 L 441 255.240 447.015 254.805 C 453.748 254.318, 455.250 253.351, 455.250 249.500 C 455.250 245.704, 453.999 244.901, 447.116 244.277 L 441 243.722 441 249.481 M 524.256 245.029 C 520.089 246.704, 517.851 251.785, 518.239 258.693 C 518.626 265.573, 520.359 268.369, 525.615 270.595 C 529.570 272.270, 534.727 270.984, 537.991 267.509 C 540.846 264.470, 541.915 255.622, 539.988 250.971 C 537.479 244.913, 530.810 242.394, 524.256 245.029 M 404.139 253.589 C 402.962 256.663, 402 259.363, 402 259.589 C 402 259.815, 404.250 260, 407 260 C 409.750 260, 412 259.815, 412 259.589 C 412 258.213, 407.594 248, 407 248 C 406.603 248, 405.315 250.515, 404.139 253.589" stroke="none" fill="#c2472e" fill-rule="evenodd"/></svg>